{"glyphs":{"0":{"ha":938,"x_min":47,"x_max":863,"o":"m 365 -19 q 130 83 213 -19 q 47 360 47 185 q 110 668 47 522 q 285 903 172 814 q 543 992 399 992 q 777 893 692 992 q 863 625 863 794 q 799 315 863 464 q 622 73 736 165 q 365 -19 508 -19 m 386 100 q 568 176 492 100 q 684 371 644 251 q 724 621 724 490 q 671 808 724 744 q 522 872 618 872 q 340 798 415 872 q 226 606 264 724 q 188 361 188 488 q 238 167 188 235 q 386 100 289 100 z "},"1":{"ha":439,"x_min":69,"x_max":392,"o":"m 231 782 q 142 726 178 744 q 71 697 106 708 l 69 821 q 196 882 131 840 q 301 972 261 924 l 392 972 l 219 0 l 92 0 l 231 782 z "},"2":{"ha":678,"x_min":-42,"x_max":608,"o":"m 279 404 q 428 610 388 540 q 469 749 469 681 q 439 835 469 803 q 353 867 408 867 q 224 835 288 867 q 94 743 161 803 l 103 882 q 233 961 160 931 q 382 992 307 992 q 551 932 493 992 q 608 769 608 872 q 584 638 608 700 q 516 513 560 575 q 386 343 472 451 l 208 121 l 540 121 l 519 1 l -42 1 l 279 404 z "},"3":{"ha":713,"x_min":-42,"x_max":638,"o":"m 442 506 q 549 419 511 476 q 586 282 586 363 q 542 128 586 197 q 421 20 499 60 q 247 -19 343 -19 q -42 67 99 -19 l 13 189 q 135 122 76 144 q 256 100 193 100 q 391 147 339 100 q 443 276 443 194 q 395 397 443 354 q 249 440 347 440 l 194 440 l 215 560 l 269 560 q 428 610 368 560 q 489 747 489 660 q 357 872 489 872 q 146 793 267 872 l 147 928 q 399 992 263 992 q 573 931 508 992 q 638 771 638 869 q 585 609 638 679 q 442 506 532 539 z "},"4":{"ha":778,"x_min":-28,"x_max":700,"o":"m 700 364 l 681 251 l 569 251 l 525 0 l 397 0 l 442 251 l -28 251 l 601 972 l 697 972 l 589 364 l 700 364 m 461 364 l 525 717 l 218 364 l 461 364 z "},"5":{"ha":710,"x_min":-29,"x_max":674,"o":"m 318 847 l 247 610 q 319 614 282 614 q 533 536 457 614 q 608 331 608 458 q 561 148 608 228 q 431 24 514 68 q 243 -19 349 -19 q -29 60 90 -19 l 32 171 q 138 117 89 135 q 247 100 186 100 q 410 160 350 100 q 469 317 469 219 q 417 452 469 404 q 269 500 365 500 q 92 485 186 500 l 232 972 l 674 972 l 646 847 l 318 847 z "},"6":{"ha":763,"x_min":28,"x_max":679,"o":"m 428 583 q 610 514 542 583 q 679 333 679 444 q 632 156 679 236 q 500 28 585 75 q 311 -19 415 -19 q 104 58 181 -19 q 28 265 28 135 q 105 551 28 410 q 310 808 182 693 q 585 992 438 922 l 660 893 q 388 726 508 825 q 207 506 267 626 q 308 563 251 543 q 428 583 364 583 m 319 94 q 432 126 382 94 q 511 210 482 158 q 540 321 540 263 q 501 428 540 388 q 393 469 461 469 q 276 438 329 469 q 194 354 224 407 q 164 243 164 301 q 206 135 165 175 q 319 94 247 94 z "},"7":{"ha":674,"x_min":25,"x_max":729,"o":"m 729 972 l 164 0 l 25 0 l 514 847 l 106 847 l 128 972 l 729 972 z "},"8":{"ha":811,"x_min":31,"x_max":717,"o":"m 589 532 q 663 449 638 499 q 689 333 689 399 q 640 151 689 232 q 505 26 590 71 q 317 -19 419 -19 q 110 47 189 -19 q 31 225 31 114 q 84 406 31 324 q 226 533 138 488 q 175 599 193 560 q 156 686 157 639 q 199 842 156 772 q 317 951 242 911 q 481 992 392 992 q 658 931 599 992 q 717 775 717 869 q 683 634 717 697 q 589 532 649 571 m 464 872 q 338 824 388 872 q 289 703 289 775 q 322 618 289 651 q 414 585 354 585 q 535 634 488 585 q 583 756 583 683 q 553 841 583 810 q 464 872 522 872 m 328 100 q 490 161 428 100 q 551 318 551 222 q 509 428 550 388 q 393 469 468 469 q 278 438 329 469 q 197 354 226 407 q 168 239 168 301 q 210 137 169 174 q 328 100 251 100 z "},"9":{"ha":776,"x_min":69,"x_max":721,"o":"m 438 992 q 644 915 568 992 q 721 707 721 838 q 644 421 721 563 q 439 165 567 279 q 164 -19 311 50 l 89 79 q 361 247 240 147 q 542 467 482 346 q 441 409 497 429 q 321 389 385 389 q 138 458 207 389 q 69 639 69 528 q 117 817 69 736 q 249 944 164 897 q 438 992 333 992 m 356 503 q 472 534 419 503 q 555 618 525 565 q 585 729 585 671 q 542 838 583 797 q 429 878 501 878 q 317 846 367 878 q 238 762 267 814 q 208 651 208 710 q 248 544 208 585 q 356 503 288 503 z "},"\r":{"ha":282,"x_min":0,"x_max":0,"o":""}," ":{"ha":282,"x_min":0,"x_max":0,"o":""},"A":{"ha":789,"x_min":-51,"x_max":708,"o":"m 433 972 l 567 972 l 708 0 l 569 0 l 535 263 l 214 263 l 88 0 l -51 0 l 433 972 m 513 382 l 467 788 l 278 382 l 513 382 z "},"Á":{"ha":789,"x_min":-51,"x_max":708,"o":"m 433 972 l 567 972 l 708 0 l 569 0 l 535 263 l 214 263 l 88 0 l -51 0 l 433 972 m 513 382 l 467 788 l 278 382 l 513 382 m 424 1185 l 678 1329 l 654 1175 l 407 1090 l 424 1185 z "},"Ă":{"ha":789,"x_min":-51,"x_max":758,"o":"m 433 972 l 567 972 l 708 0 l 569 0 l 535 263 l 214 263 l 88 0 l -51 0 l 433 972 m 513 382 l 467 788 l 278 382 l 513 382 m 531 1092 q 402 1131 446 1092 q 358 1232 358 1171 q 364 1268 358 1251 l 472 1268 q 468 1244 468 1258 q 488 1199 468 1215 q 542 1183 507 1183 q 608 1205 581 1183 q 643 1268 636 1226 l 758 1268 q 687 1141 746 1190 q 531 1092 628 1092 z "},"Ắ":{"ha":789,"x_min":-51,"x_max":758,"o":"m 433 972 l 567 972 l 708 0 l 569 0 l 535 263 l 214 263 l 88 0 l -51 0 l 433 972 m 513 382 l 467 788 l 278 382 l 513 382 m 528 1061 q 394 1099 439 1061 q 350 1197 350 1138 q 353 1228 350 1208 l 464 1228 q 463 1211 463 1222 q 484 1164 463 1181 q 540 1147 506 1147 q 610 1168 581 1147 q 647 1228 640 1189 l 758 1228 q 687 1106 746 1151 q 528 1061 628 1061 m 483 1378 l 721 1510 l 701 1369 l 472 1289 l 483 1378 z "},"Ặ":{"ha":789,"x_min":-51,"x_max":749,"o":"m 433 972 l 567 972 l 708 0 l 569 0 l 535 263 l 214 263 l 88 0 l -51 0 l 433 972 m 513 382 l 467 788 l 278 382 l 513 382 m 518 1061 q 385 1099 429 1061 q 340 1197 340 1138 q 343 1228 340 1208 l 454 1228 q 453 1211 453 1222 q 474 1164 453 1181 q 531 1147 496 1147 q 601 1168 571 1147 q 638 1228 631 1189 l 749 1228 q 677 1106 736 1151 q 518 1061 618 1061 m 246 -112 l 374 -112 l 349 -237 l 221 -237 l 246 -112 z "},"Ằ":{"ha":789,"x_min":-51,"x_max":754,"o":"m 433 972 l 567 972 l 708 0 l 569 0 l 535 263 l 214 263 l 88 0 l -51 0 l 433 972 m 513 382 l 467 788 l 278 382 l 513 382 m 524 1060 q 390 1098 435 1060 q 346 1196 346 1136 q 349 1226 346 1207 l 460 1226 q 458 1210 458 1221 q 480 1163 458 1179 q 536 1146 501 1146 q 606 1167 576 1146 q 643 1226 636 1188 l 754 1226 q 683 1105 742 1150 q 524 1060 624 1060 m 465 1368 l 489 1500 l 711 1368 l 696 1288 l 465 1368 z "},"Ẳ":{"ha":789,"x_min":-51,"x_max":768,"o":"m 433 972 l 567 972 l 708 0 l 569 0 l 535 263 l 214 263 l 88 0 l -51 0 l 433 972 m 513 382 l 467 788 l 278 382 l 513 382 m 538 1061 q 404 1099 449 1061 q 360 1197 360 1138 q 363 1228 360 1208 l 474 1228 q 472 1211 472 1222 q 494 1164 472 1181 q 550 1147 515 1147 q 620 1168 590 1147 q 657 1228 650 1189 l 768 1228 q 697 1106 756 1151 q 538 1061 638 1061 m 571 1306 q 628 1365 628 1325 q 615 1394 628 1383 q 578 1404 601 1404 q 493 1379 546 1404 l 482 1450 q 594 1475 535 1475 q 678 1451 646 1475 q 710 1382 710 1426 q 673 1297 710 1331 q 574 1250 636 1263 l 571 1306 z "},"Ẵ":{"ha":789,"x_min":-51,"x_max":822,"o":"m 433 972 l 567 972 l 708 0 l 569 0 l 535 263 l 214 263 l 88 0 l -51 0 l 433 972 m 513 382 l 467 788 l 278 382 l 513 382 m 533 1061 q 400 1099 444 1061 q 356 1197 356 1138 q 358 1228 356 1208 l 469 1228 q 468 1211 468 1222 q 490 1164 468 1181 q 546 1147 511 1147 q 616 1168 586 1147 q 653 1228 646 1189 l 764 1228 q 692 1106 751 1151 q 533 1061 633 1061 m 692 1293 q 649 1300 671 1293 q 589 1322 626 1307 q 510 1347 531 1347 q 477 1335 490 1347 q 463 1300 464 1322 l 372 1300 q 417 1403 383 1367 q 500 1439 450 1439 q 542 1432 521 1439 q 600 1410 564 1425 q 645 1392 622 1400 q 685 1385 668 1385 q 717 1397 704 1385 q 732 1432 729 1410 l 822 1432 q 778 1328 813 1364 q 692 1293 743 1293 z "},"Â":{"ha":789,"x_min":-51,"x_max":713,"o":"m 433 972 l 567 972 l 708 0 l 569 0 l 535 263 l 214 263 l 88 0 l -51 0 l 433 972 m 513 382 l 467 788 l 278 382 l 513 382 m 389 1178 l 567 1313 l 713 1160 l 696 1075 l 542 1186 l 368 1089 l 389 1178 z "},"Ấ":{"ha":789,"x_min":-51,"x_max":885,"o":"m 433 972 l 567 972 l 708 0 l 569 0 l 535 263 l 214 263 l 88 0 l -51 0 l 433 972 m 513 382 l 467 788 l 278 382 l 513 382 m 751 1404 l 885 1404 l 726 1249 l 638 1249 l 751 1404 m 704 1131 l 690 1046 l 529 1138 l 369 1063 l 383 1147 l 550 1256 l 704 1131 z "},"Ậ":{"ha":789,"x_min":-51,"x_max":708,"o":"m 433 972 l 567 972 l 708 0 l 569 0 l 535 263 l 214 263 l 88 0 l -51 0 l 433 972 m 513 382 l 467 788 l 278 382 l 513 382 m 704 1131 l 690 1046 l 529 1138 l 369 1063 l 383 1147 l 550 1256 l 704 1131 m 246 -112 l 374 -112 l 349 -237 l 221 -237 l 246 -112 z "},"Ầ":{"ha":789,"x_min":-51,"x_max":718,"o":"m 433 972 l 567 972 l 708 0 l 569 0 l 535 263 l 214 263 l 88 0 l -51 0 l 433 972 m 513 382 l 467 788 l 278 382 l 513 382 m 629 1249 l 536 1411 l 668 1411 l 718 1249 l 629 1249 m 704 1131 l 690 1046 l 529 1138 l 369 1063 l 383 1147 l 550 1256 l 704 1131 z "},"Ẩ":{"ha":789,"x_min":-51,"x_max":799,"o":"m 433 972 l 567 972 l 708 0 l 569 0 l 535 263 l 214 263 l 88 0 l -51 0 l 433 972 m 513 382 l 467 788 l 278 382 l 513 382 m 704 1131 l 690 1046 l 529 1138 l 369 1063 l 383 1147 l 550 1256 l 704 1131 m 660 1267 q 717 1326 717 1286 q 703 1355 717 1344 q 667 1365 690 1365 q 582 1340 635 1365 l 571 1411 q 683 1436 624 1436 q 767 1412 735 1436 q 799 1343 799 1388 q 762 1258 799 1292 q 663 1211 725 1224 l 660 1267 z "},"Ẫ":{"ha":789,"x_min":-51,"x_max":799,"o":"m 433 972 l 567 972 l 708 0 l 569 0 l 535 263 l 214 263 l 88 0 l -51 0 l 433 972 m 513 382 l 467 788 l 278 382 l 513 382 m 704 1131 l 690 1046 l 529 1138 l 369 1063 l 383 1147 l 550 1256 l 704 1131 m 668 1299 q 625 1306 647 1299 q 565 1328 603 1313 q 486 1353 507 1353 q 453 1340 467 1353 q 439 1306 440 1328 l 349 1306 q 393 1408 360 1372 q 476 1444 426 1444 q 519 1438 497 1444 q 576 1415 540 1431 q 622 1398 599 1406 q 661 1390 644 1390 q 693 1403 681 1390 q 708 1438 706 1415 l 799 1438 q 754 1334 789 1369 q 668 1299 719 1299 z "},"Ȁ":{"ha":789,"x_min":-51,"x_max":708,"o":"m 433 972 l 567 972 l 708 0 l 569 0 l 535 263 l 214 263 l 88 0 l -51 0 l 433 972 m 513 382 l 467 788 l 278 382 l 513 382 m 382 1094 l 286 1299 l 419 1299 l 471 1094 l 382 1094 m 574 1094 l 485 1299 l 618 1299 l 663 1094 l 574 1094 z "},"Ä":{"ha":789,"x_min":-51,"x_max":736,"o":"m 433 972 l 567 972 l 708 0 l 569 0 l 535 263 l 214 263 l 88 0 l -51 0 l 433 972 m 513 382 l 467 788 l 278 382 l 513 382 m 361 1224 l 478 1224 l 456 1113 l 339 1113 l 361 1224 m 619 1224 l 736 1224 l 714 1113 l 597 1113 l 619 1224 z "},"Ạ":{"ha":789,"x_min":-51,"x_max":708,"o":"m 433 972 l 567 972 l 708 0 l 569 0 l 535 263 l 214 263 l 88 0 l -51 0 l 433 972 m 513 382 l 467 788 l 278 382 l 513 382 m 246 -112 l 374 -112 l 349 -237 l 221 -237 l 246 -112 z "},"À":{"ha":789,"x_min":-51,"x_max":708,"o":"m 433 972 l 567 972 l 708 0 l 569 0 l 535 263 l 214 263 l 88 0 l -51 0 l 433 972 m 513 382 l 467 788 l 278 382 l 513 382 m 414 1188 l 438 1324 l 658 1176 l 643 1092 l 414 1188 z "},"Ả":{"ha":789,"x_min":-51,"x_max":708,"o":"m 433 972 l 567 972 l 708 0 l 569 0 l 535 263 l 214 263 l 88 0 l -51 0 l 433 972 m 513 382 l 467 788 l 278 382 l 513 382 m 492 1067 q 554 1124 536 1103 q 572 1172 572 1144 q 524 1210 572 1210 q 432 1183 488 1210 l 421 1254 q 538 1281 476 1281 q 622 1256 590 1281 q 656 1188 654 1232 q 624 1099 656 1138 q 531 1021 592 1060 l 492 1067 z "},"Ȃ":{"ha":789,"x_min":-51,"x_max":722,"o":"m 433 972 l 567 972 l 708 0 l 569 0 l 535 263 l 214 263 l 88 0 l -51 0 l 433 972 m 513 382 l 467 788 l 278 382 l 513 382 m 550 1249 q 679 1210 636 1249 q 722 1111 722 1171 q 719 1082 722 1101 l 608 1082 q 610 1099 610 1089 q 589 1146 610 1129 q 535 1163 568 1163 q 467 1142 496 1163 q 431 1082 438 1121 l 319 1082 q 392 1200 332 1151 q 550 1249 453 1249 z "},"Ā":{"ha":789,"x_min":-51,"x_max":758,"o":"m 433 972 l 567 972 l 708 0 l 569 0 l 535 263 l 214 263 l 88 0 l -51 0 l 433 972 m 513 382 l 467 788 l 278 382 l 513 382 m 319 1196 l 758 1196 l 742 1101 l 303 1101 l 319 1196 z "},"Ą":{"ha":789,"x_min":-51,"x_max":717,"o":"m 433 972 l 567 972 l 708 0 l 569 0 l 535 263 l 214 263 l 88 0 l -51 0 l 433 972 m 513 382 l 467 788 l 278 382 l 513 382 m 708 0 q 609 -83 644 -44 q 574 -165 574 -121 q 587 -205 574 -192 q 625 -218 600 -218 q 708 -194 665 -218 l 717 -262 q 606 -289 667 -289 q 522 -264 554 -289 q 488 -193 489 -239 q 531 -85 488 -137 q 635 0 575 -32 l 708 0 z "},"Å":{"ha":789,"x_min":-51,"x_max":708,"o":"m 433 972 l 567 972 l 708 0 l 569 0 l 535 263 l 214 263 l 88 0 l -51 0 l 433 972 m 513 382 l 467 788 l 278 382 l 513 382 m 519 1081 q 430 1112 461 1081 q 399 1190 399 1143 q 449 1309 399 1260 q 569 1358 500 1358 q 659 1327 628 1358 q 690 1249 690 1296 q 641 1129 690 1178 q 519 1081 592 1081 m 529 1142 q 592 1169 565 1142 q 618 1235 618 1197 q 601 1280 618 1263 q 560 1297 585 1297 q 498 1269 525 1297 q 471 1203 471 1240 q 488 1158 471 1175 q 529 1142 504 1142 z "},"Ǻ":{"ha":789,"x_min":-51,"x_max":713,"o":"m 433 972 l 567 972 l 708 0 l 569 0 l 535 263 l 214 263 l 88 0 l -51 0 l 433 972 m 513 382 l 467 788 l 278 382 l 513 382 m 517 1050 q 427 1081 458 1050 q 396 1161 396 1113 q 444 1274 396 1226 q 558 1322 492 1322 q 648 1290 617 1322 q 679 1211 679 1258 q 632 1097 679 1144 q 517 1050 585 1050 m 524 1111 q 583 1138 558 1111 q 608 1201 608 1164 q 592 1244 608 1228 q 551 1261 576 1261 q 492 1234 518 1261 q 467 1172 467 1207 q 483 1128 467 1144 q 524 1111 499 1111 m 475 1457 l 713 1589 l 693 1449 l 464 1368 l 475 1457 z "},"Ã":{"ha":789,"x_min":-51,"x_max":775,"o":"m 433 972 l 567 972 l 708 0 l 569 0 l 535 263 l 214 263 l 88 0 l -51 0 l 433 972 m 513 382 l 467 788 l 278 382 l 513 382 m 633 1097 q 592 1106 613 1097 q 539 1129 571 1114 q 492 1151 511 1143 q 458 1158 474 1158 q 406 1108 417 1158 l 306 1108 q 451 1263 342 1263 q 493 1255 474 1263 q 542 1231 513 1247 q 585 1209 567 1217 q 622 1201 603 1201 q 675 1256 665 1201 l 775 1256 q 722 1135 757 1174 q 633 1097 688 1097 z "},"Æ":{"ha":1094,"x_min":-72,"x_max":1135,"o":"m 526 972 l 1135 972 l 1113 851 l 729 851 l 679 568 l 975 568 l 954 449 l 658 449 l 600 119 l 996 119 l 975 0 l 431 0 l 474 250 l 215 250 l 60 0 l -72 0 l 526 972 m 497 378 l 579 849 l 297 378 l 497 378 z "},"Ǽ":{"ha":1094,"x_min":-72,"x_max":1135,"o":"m 526 972 l 1135 972 l 1113 851 l 729 851 l 679 568 l 975 568 l 954 449 l 658 449 l 600 119 l 996 119 l 975 0 l 431 0 l 474 250 l 215 250 l 60 0 l -72 0 l 526 972 m 497 378 l 579 849 l 297 378 l 497 378 m 751 1150 l 989 1282 l 969 1142 l 740 1061 l 751 1150 z "},"B":{"ha":785,"x_min":39,"x_max":715,"o":"m 210 972 l 429 972 q 643 925 571 972 q 715 764 715 878 q 678 618 715 679 q 578 524 642 557 q 713 321 713 474 q 608 82 713 164 q 324 0 503 0 l 39 0 l 210 972 m 399 568 q 531 613 482 568 q 581 732 581 657 q 546 825 581 796 q 442 854 511 854 l 321 854 l 271 568 l 399 568 m 325 119 q 503 168 433 119 q 574 307 574 217 q 415 449 574 449 l 250 449 l 192 119 l 325 119 z "},"C":{"ha":785,"x_min":64,"x_max":835,"o":"m 424 -19 q 233 30 314 -19 q 108 172 151 79 q 64 394 64 265 q 137 699 64 563 q 333 914 210 836 q 599 992 456 992 q 728 976 664 992 q 835 935 792 960 l 799 813 l 769 825 q 674 860 715 849 q 581 872 632 872 q 385 806 469 872 q 255 632 300 740 q 210 401 210 524 q 270 182 210 264 q 449 100 331 100 q 545 113 497 100 q 654 149 593 125 l 683 158 l 675 36 q 554 -4 622 11 q 424 -19 486 -19 z "},"Ć":{"ha":785,"x_min":64,"x_max":835,"o":"m 424 -19 q 233 30 314 -19 q 108 172 151 79 q 64 394 64 265 q 137 699 64 563 q 333 914 210 836 q 599 992 456 992 q 728 976 664 992 q 835 935 792 960 l 799 813 l 769 825 q 674 860 715 849 q 581 872 632 872 q 385 806 469 872 q 255 632 300 740 q 210 401 210 524 q 270 182 210 264 q 449 100 331 100 q 545 113 497 100 q 654 149 593 125 l 683 158 l 675 36 q 554 -4 622 11 q 424 -19 486 -19 m 536 1150 l 774 1282 l 754 1142 l 525 1061 l 536 1150 z "},"Č":{"ha":785,"x_min":64,"x_max":835,"o":"m 424 -19 q 233 30 314 -19 q 108 172 151 79 q 64 394 64 265 q 137 699 64 563 q 333 914 210 836 q 599 992 456 992 q 728 976 664 992 q 835 935 792 960 l 799 813 l 769 825 q 674 860 715 849 q 581 872 632 872 q 385 806 469 872 q 255 632 300 740 q 210 401 210 524 q 270 182 210 264 q 449 100 331 100 q 545 113 497 100 q 654 149 593 125 l 683 158 l 675 36 q 554 -4 622 11 q 424 -19 486 -19 m 469 1171 l 483 1256 l 644 1164 l 811 1250 l 799 1160 l 624 1046 l 469 1171 z "},"Ç":{"ha":785,"x_min":64,"x_max":835,"o":"m 581 872 q 385 806 469 872 q 255 632 300 740 q 210 401 210 524 q 270 182 210 264 q 449 100 331 100 q 545 113 497 100 q 654 149 593 125 l 683 158 l 675 36 q 575 1 631 15 q 465 -18 519 -14 l 436 -75 l 447 -75 q 524 -99 496 -75 q 551 -167 551 -124 q 502 -272 551 -231 q 379 -314 453 -314 q 275 -287 319 -314 l 308 -219 q 392 -243 347 -243 q 449 -226 428 -243 q 469 -182 469 -208 q 408 -135 469 -135 q 342 -146 375 -135 l 396 -18 q 153 99 242 -10 q 64 394 64 208 q 137 699 64 563 q 333 914 210 836 q 599 992 456 992 q 728 976 664 992 q 835 935 792 960 l 799 813 l 769 825 q 674 860 715 849 q 581 872 632 872 z "},"Ḉ":{"ha":785,"x_min":64,"x_max":835,"o":"m 754 1142 l 525 1061 l 536 1150 l 774 1282 l 754 1142 m 581 872 q 385 806 469 872 q 255 632 300 740 q 210 401 210 524 q 270 182 210 264 q 449 100 331 100 q 545 113 497 100 q 654 149 593 125 l 683 158 l 675 36 q 575 1 631 15 q 465 -18 519 -14 l 436 -75 l 447 -75 q 524 -99 496 -75 q 551 -167 551 -124 q 502 -272 551 -231 q 379 -314 453 -314 q 275 -287 319 -314 l 308 -219 q 392 -243 347 -243 q 449 -226 428 -243 q 469 -182 469 -208 q 408 -135 469 -135 q 342 -146 375 -135 l 396 -18 q 153 99 242 -10 q 64 394 64 208 q 137 699 64 563 q 333 914 210 836 q 599 992 456 992 q 728 976 664 992 q 835 935 792 960 l 799 813 l 769 825 q 674 860 715 849 q 581 872 632 872 z "},"Ĉ":{"ha":785,"x_min":64,"x_max":835,"o":"m 424 -19 q 233 30 314 -19 q 108 172 151 79 q 64 394 64 265 q 137 699 64 563 q 333 914 210 836 q 599 992 456 992 q 728 976 664 992 q 835 935 792 960 l 799 813 l 769 825 q 674 860 715 849 q 581 872 632 872 q 385 806 469 872 q 255 632 300 740 q 210 401 210 524 q 270 182 210 264 q 449 100 331 100 q 545 113 497 100 q 654 149 593 125 l 683 158 l 675 36 q 554 -4 622 11 q 424 -19 486 -19 m 819 1131 l 806 1046 l 644 1138 l 485 1063 l 499 1147 l 665 1256 l 819 1131 z "},"Ċ":{"ha":785,"x_min":64,"x_max":835,"o":"m 424 -19 q 233 30 314 -19 q 108 172 151 79 q 64 394 64 265 q 137 699 64 563 q 333 914 210 836 q 599 992 456 992 q 728 976 664 992 q 835 935 792 960 l 799 813 l 769 825 q 674 860 715 849 q 581 872 632 872 q 385 806 469 872 q 255 632 300 740 q 210 401 210 524 q 270 182 210 264 q 449 100 331 100 q 545 113 497 100 q 654 149 593 125 l 683 158 l 675 36 q 554 -4 622 11 q 424 -19 486 -19 m 594 1224 l 725 1224 l 703 1099 l 572 1099 l 594 1224 z "},"D":{"ha":933,"x_min":39,"x_max":894,"o":"m 210 972 l 535 972 q 798 868 701 972 q 894 571 894 764 q 824 275 894 406 q 631 72 753 144 q 364 0 510 0 l 39 0 l 210 972 m 385 119 q 580 180 497 119 q 706 342 663 240 q 749 564 749 443 q 690 777 749 701 q 514 853 631 853 l 321 853 l 192 119 l 385 119 z "},"Ǆ":{"ha":1610,"x_min":39,"x_max":1696,"o":"m 210 972 l 535 972 q 798 868 701 972 q 894 571 894 764 q 824 275 894 406 q 631 72 753 144 q 364 0 510 0 l 39 0 l 210 972 m 385 119 q 580 180 497 119 q 706 342 663 240 q 749 564 749 443 q 690 777 749 701 q 514 853 631 853 l 321 853 l 192 119 l 385 119 m 1457 853 l 1065 853 l 1086 972 l 1696 972 l 1096 119 l 1489 119 l 1468 0 l 858 0 l 1457 853 m 1264 1219 l 1281 1304 l 1435 1193 l 1624 1304 l 1607 1200 l 1410 1067 l 1264 1219 z "},"Ð":{"ha":936,"x_min":26,"x_max":897,"o":"m 540 972 q 729 926 649 972 q 853 792 810 879 q 897 585 897 704 q 827 277 897 410 q 636 72 757 144 q 369 0 515 0 l 47 0 l 124 438 l 26 438 l 46 551 l 144 551 l 218 972 l 540 972 m 390 121 q 587 181 504 121 q 712 343 669 240 q 754 575 754 446 q 694 778 754 704 q 519 853 635 853 l 325 853 l 272 551 l 457 551 l 436 438 l 251 438 l 196 121 l 390 121 z "},"Ď":{"ha":933,"x_min":39,"x_max":894,"o":"m 210 972 l 535 972 q 798 868 701 972 q 894 571 894 764 q 824 275 894 406 q 631 72 753 144 q 364 0 510 0 l 39 0 l 210 972 m 385 119 q 580 180 497 119 q 706 342 663 240 q 749 564 749 443 q 690 777 749 701 q 514 853 631 853 l 321 853 l 192 119 l 385 119 m 425 1171 l 439 1256 l 600 1164 l 767 1250 l 754 1160 l 579 1046 l 425 1171 z "},"Đ":{"ha":936,"x_min":26,"x_max":897,"o":"m 540 972 q 729 926 649 972 q 853 792 810 879 q 897 585 897 704 q 827 277 897 410 q 636 72 757 144 q 369 0 515 0 l 47 0 l 124 438 l 26 438 l 46 551 l 144 551 l 218 972 l 540 972 m 390 121 q 587 181 504 121 q 712 343 669 240 q 754 575 754 446 q 694 778 754 704 q 519 853 635 853 l 325 853 l 272 551 l 457 551 l 436 438 l 251 438 l 196 121 l 390 121 z "},"Ḍ":{"ha":933,"x_min":39,"x_max":894,"o":"m 210 972 l 535 972 q 798 868 701 972 q 894 571 894 764 q 824 275 894 406 q 631 72 753 144 q 364 0 510 0 l 39 0 l 210 972 m 385 119 q 580 180 497 119 q 706 342 663 240 q 749 564 749 443 q 690 777 749 701 q 514 853 631 853 l 321 853 l 192 119 l 385 119 m 383 -112 l 511 -112 l 486 -237 l 358 -237 l 383 -112 z "},"Ḏ":{"ha":933,"x_min":39,"x_max":894,"o":"m 210 972 l 535 972 q 798 868 701 972 q 894 571 894 764 q 824 275 894 406 q 631 72 753 144 q 364 0 510 0 l 39 0 l 210 972 m 385 119 q 580 180 497 119 q 706 342 663 240 q 749 564 749 443 q 690 777 749 701 q 514 853 631 853 l 321 853 l 192 119 l 385 119 m 232 -126 l 665 -126 l 646 -225 l 213 -225 l 232 -126 z "},"ǅ":{"ha":1519,"x_min":39,"x_max":1535,"o":"m 210 972 l 535 972 q 798 868 701 972 q 894 571 894 764 q 824 275 894 406 q 631 72 753 144 q 364 0 510 0 l 39 0 l 210 972 m 385 119 q 580 180 497 119 q 706 342 663 240 q 749 564 749 443 q 690 777 749 701 q 514 853 631 853 l 321 853 l 192 119 l 385 119 m 1315 583 l 997 583 l 1014 681 l 1535 681 l 1103 97 l 1424 97 l 1406 0 l 882 0 l 1315 583 m 1147 928 l 1164 1013 l 1318 901 l 1507 1013 l 1490 908 l 1293 775 l 1147 928 z "},"E":{"ha":714,"x_min":39,"x_max":753,"o":"m 210 972 l 753 972 l 732 853 l 322 853 l 272 568 l 594 568 l 574 449 l 251 449 l 193 119 l 614 119 l 593 0 l 39 0 l 210 972 z "},"É":{"ha":714,"x_min":39,"x_max":753,"o":"m 210 972 l 753 972 l 732 853 l 322 853 l 272 568 l 594 568 l 574 449 l 251 449 l 193 119 l 614 119 l 593 0 l 39 0 l 210 972 m 403 1185 l 657 1329 l 633 1175 l 386 1090 l 403 1185 z "},"Ĕ":{"ha":714,"x_min":39,"x_max":753,"o":"m 210 972 l 753 972 l 732 853 l 322 853 l 272 568 l 594 568 l 574 449 l 251 449 l 193 119 l 614 119 l 593 0 l 39 0 l 210 972 m 497 1061 q 364 1099 408 1061 q 319 1197 319 1138 q 322 1228 319 1208 l 433 1228 q 432 1211 432 1222 q 453 1164 432 1181 q 510 1147 475 1147 q 580 1168 550 1147 q 617 1228 610 1189 l 728 1228 q 656 1106 715 1151 q 497 1061 597 1061 z "},"Ě":{"ha":714,"x_min":39,"x_max":753,"o":"m 210 972 l 753 972 l 732 853 l 322 853 l 272 568 l 594 568 l 574 449 l 251 449 l 193 119 l 614 119 l 593 0 l 39 0 l 210 972 m 333 1171 l 347 1256 l 508 1164 l 675 1250 l 663 1160 l 488 1046 l 333 1171 z "},"Ḝ":{"ha":714,"x_min":39,"x_max":753,"o":"m 210 972 l 753 972 l 732 853 l 322 853 l 272 568 l 594 568 l 574 449 l 251 449 l 193 119 l 614 119 l 593 0 l 39 0 l 210 972 m 343 -75 q 419 -99 392 -75 q 447 -167 447 -124 q 398 -272 447 -231 q 275 -314 349 -314 q 171 -287 215 -314 l 204 -219 q 288 -243 243 -243 q 344 -226 324 -243 q 365 -182 365 -208 q 304 -135 365 -135 q 238 -146 271 -135 l 300 0 l 369 0 l 332 -75 l 343 -75 m 497 1061 q 364 1099 408 1061 q 319 1197 319 1138 q 322 1228 319 1208 l 433 1228 q 432 1211 432 1222 q 453 1164 432 1181 q 510 1147 475 1147 q 580 1168 550 1147 q 617 1228 610 1189 l 728 1228 q 656 1106 715 1151 q 497 1061 597 1061 z "},"Ê":{"ha":714,"x_min":39,"x_max":753,"o":"m 210 972 l 753 972 l 732 853 l 322 853 l 272 568 l 594 568 l 574 449 l 251 449 l 193 119 l 614 119 l 593 0 l 39 0 l 210 972 m 368 1178 l 546 1313 l 692 1160 l 675 1075 l 521 1186 l 347 1089 l 368 1178 z "},"Ế":{"ha":714,"x_min":39,"x_max":864,"o":"m 210 972 l 753 972 l 732 853 l 322 853 l 272 568 l 594 568 l 574 449 l 251 449 l 193 119 l 614 119 l 593 0 l 39 0 l 210 972 m 731 1404 l 864 1404 l 706 1249 l 617 1249 l 731 1404 m 683 1131 l 669 1046 l 508 1138 l 349 1063 l 363 1147 l 529 1256 l 683 1131 z "},"Ệ":{"ha":714,"x_min":39,"x_max":753,"o":"m 210 972 l 753 972 l 732 853 l 322 853 l 272 568 l 594 568 l 574 449 l 251 449 l 193 119 l 614 119 l 593 0 l 39 0 l 210 972 m 683 1131 l 669 1046 l 508 1138 l 349 1063 l 363 1147 l 529 1256 l 683 1131 m 247 -112 l 375 -112 l 350 -237 l 222 -237 l 247 -112 z "},"Ề":{"ha":714,"x_min":39,"x_max":753,"o":"m 210 972 l 753 972 l 732 853 l 322 853 l 272 568 l 594 568 l 574 449 l 251 449 l 193 119 l 614 119 l 593 0 l 39 0 l 210 972 m 608 1249 l 515 1411 l 647 1411 l 697 1249 l 608 1249 m 683 1131 l 669 1046 l 508 1138 l 349 1063 l 363 1147 l 529 1256 l 683 1131 z "},"Ể":{"ha":714,"x_min":39,"x_max":778,"o":"m 210 972 l 753 972 l 732 853 l 322 853 l 272 568 l 594 568 l 574 449 l 251 449 l 193 119 l 614 119 l 593 0 l 39 0 l 210 972 m 683 1131 l 669 1046 l 508 1138 l 349 1063 l 363 1147 l 529 1256 l 683 1131 m 639 1267 q 696 1326 696 1286 q 683 1355 696 1344 q 646 1365 669 1365 q 561 1340 614 1365 l 550 1411 q 663 1436 603 1436 q 746 1412 714 1436 q 778 1343 778 1388 q 741 1258 778 1292 q 642 1211 704 1224 l 639 1267 z "},"Ễ":{"ha":714,"x_min":39,"x_max":778,"o":"m 210 972 l 753 972 l 732 853 l 322 853 l 272 568 l 594 568 l 574 449 l 251 449 l 193 119 l 614 119 l 593 0 l 39 0 l 210 972 m 683 1131 l 669 1046 l 508 1138 l 349 1063 l 363 1147 l 529 1256 l 683 1131 m 647 1299 q 604 1306 626 1299 q 544 1328 582 1313 q 465 1353 486 1353 q 433 1340 446 1353 q 418 1306 419 1328 l 328 1306 q 372 1408 339 1372 q 456 1444 406 1444 q 498 1438 476 1444 q 556 1415 519 1431 q 601 1398 578 1406 q 640 1390 624 1390 q 672 1403 660 1390 q 688 1438 685 1415 l 778 1438 q 733 1334 768 1369 q 647 1299 699 1299 z "},"Ȅ":{"ha":714,"x_min":39,"x_max":753,"o":"m 210 972 l 753 972 l 732 853 l 322 853 l 272 568 l 594 568 l 574 449 l 251 449 l 193 119 l 614 119 l 593 0 l 39 0 l 210 972 m 361 1094 l 265 1299 l 399 1299 l 450 1094 l 361 1094 m 553 1094 l 464 1299 l 597 1299 l 642 1094 l 553 1094 z "},"Ë":{"ha":714,"x_min":39,"x_max":753,"o":"m 210 972 l 753 972 l 732 853 l 322 853 l 272 568 l 594 568 l 574 449 l 251 449 l 193 119 l 614 119 l 593 0 l 39 0 l 210 972 m 340 1224 l 457 1224 l 435 1113 l 318 1113 l 340 1224 m 599 1224 l 715 1224 l 693 1113 l 576 1113 l 599 1224 z "},"Ė":{"ha":714,"x_min":39,"x_max":753,"o":"m 210 972 l 753 972 l 732 853 l 322 853 l 272 568 l 594 568 l 574 449 l 251 449 l 193 119 l 614 119 l 593 0 l 39 0 l 210 972 m 458 1224 l 589 1224 l 567 1099 l 436 1099 l 458 1224 z "},"Ẹ":{"ha":714,"x_min":39,"x_max":753,"o":"m 210 972 l 753 972 l 732 853 l 322 853 l 272 568 l 594 568 l 574 449 l 251 449 l 193 119 l 614 119 l 593 0 l 39 0 l 210 972 m 247 -112 l 375 -112 l 350 -237 l 222 -237 l 247 -112 z "},"È":{"ha":714,"x_min":39,"x_max":753,"o":"m 210 972 l 753 972 l 732 853 l 322 853 l 272 568 l 594 568 l 574 449 l 251 449 l 193 119 l 614 119 l 593 0 l 39 0 l 210 972 m 393 1188 l 417 1324 l 638 1176 l 622 1092 l 393 1188 z "},"Ẻ":{"ha":714,"x_min":39,"x_max":753,"o":"m 210 972 l 753 972 l 732 853 l 322 853 l 272 568 l 594 568 l 574 449 l 251 449 l 193 119 l 614 119 l 593 0 l 39 0 l 210 972 m 471 1067 q 533 1124 515 1103 q 551 1172 551 1144 q 503 1210 551 1210 q 411 1183 467 1210 l 400 1254 q 517 1281 456 1281 q 601 1256 569 1281 q 635 1188 633 1232 q 603 1099 635 1138 q 510 1021 571 1060 l 471 1067 z "},"Ȇ":{"ha":714,"x_min":39,"x_max":753,"o":"m 210 972 l 753 972 l 732 853 l 322 853 l 272 568 l 594 568 l 574 449 l 251 449 l 193 119 l 614 119 l 593 0 l 39 0 l 210 972 m 529 1249 q 658 1210 615 1249 q 701 1111 701 1171 q 699 1082 701 1101 l 588 1082 q 589 1099 589 1089 q 568 1146 589 1129 q 514 1163 547 1163 q 446 1142 475 1163 q 410 1082 417 1121 l 299 1082 q 372 1200 311 1151 q 529 1249 432 1249 z "},"Ē":{"ha":714,"x_min":39,"x_max":753,"o":"m 210 972 l 753 972 l 732 853 l 322 853 l 272 568 l 594 568 l 574 449 l 251 449 l 193 119 l 614 119 l 593 0 l 39 0 l 210 972 m 299 1196 l 738 1196 l 721 1101 l 282 1101 l 299 1196 z "},"Ḗ":{"ha":714,"x_min":39,"x_max":753,"o":"m 210 972 l 753 972 l 732 853 l 322 853 l 272 568 l 594 568 l 574 449 l 251 449 l 193 119 l 614 119 l 593 0 l 39 0 l 210 972 m 299 1196 l 738 1196 l 721 1101 l 282 1101 l 299 1196 m 451 1361 l 689 1493 l 669 1353 l 440 1272 l 451 1361 z "},"Ḕ":{"ha":714,"x_min":39,"x_max":753,"o":"m 210 972 l 753 972 l 732 853 l 322 853 l 272 568 l 594 568 l 574 449 l 251 449 l 193 119 l 614 119 l 593 0 l 39 0 l 210 972 m 299 1196 l 738 1196 l 721 1101 l 282 1101 l 299 1196 m 438 1353 l 461 1485 l 683 1353 l 668 1272 l 438 1353 z "},"Ę":{"ha":714,"x_min":39,"x_max":753,"o":"m 210 972 l 753 972 l 732 853 l 322 853 l 272 568 l 594 568 l 574 449 l 251 449 l 193 119 l 614 119 l 593 0 l 39 0 l 210 972 m 593 0 q 494 -83 529 -44 q 458 -165 458 -121 q 472 -205 458 -192 q 510 -218 485 -218 q 593 -194 550 -218 l 601 -262 q 490 -289 551 -289 q 406 -264 439 -289 q 372 -193 374 -239 q 416 -85 372 -137 q 519 0 460 -32 l 593 0 z "},"Ẽ":{"ha":714,"x_min":39,"x_max":754,"o":"m 210 972 l 753 972 l 732 853 l 322 853 l 272 568 l 594 568 l 574 449 l 251 449 l 193 119 l 614 119 l 593 0 l 39 0 l 210 972 m 613 1097 q 571 1106 592 1097 q 518 1129 550 1114 q 472 1151 490 1143 q 438 1158 453 1158 q 385 1108 396 1158 l 285 1108 q 431 1263 321 1263 q 472 1255 453 1263 q 521 1231 492 1247 q 564 1209 546 1217 q 601 1201 582 1201 q 654 1256 644 1201 l 754 1256 q 701 1135 736 1174 q 613 1097 667 1097 z "},"F":{"ha":676,"x_min":39,"x_max":746,"o":"m 210 972 l 746 972 l 725 853 l 321 853 l 271 568 l 582 568 l 561 449 l 250 449 l 171 0 l 39 0 l 210 972 z "},"G":{"ha":863,"x_min":65,"x_max":854,"o":"m 429 -19 q 238 30 321 -19 q 110 173 156 79 q 65 396 65 267 q 138 700 65 564 q 332 914 210 836 q 600 992 454 992 q 738 976 667 992 q 854 936 808 960 l 821 821 q 704 858 767 843 q 586 872 642 872 q 383 805 468 872 q 253 630 297 738 q 210 403 210 522 q 274 181 210 261 q 465 100 338 100 q 608 126 547 100 l 651 368 l 526 368 l 547 488 l 804 488 l 728 54 q 589 1 671 22 q 429 -19 507 -19 z "},"Ğ":{"ha":863,"x_min":65,"x_max":854,"o":"m 429 -19 q 238 30 321 -19 q 110 173 156 79 q 65 396 65 267 q 138 700 65 564 q 332 914 210 836 q 600 992 454 992 q 738 976 667 992 q 854 936 808 960 l 821 821 q 704 858 767 843 q 586 872 642 872 q 383 805 468 872 q 253 630 297 738 q 210 403 210 522 q 274 181 210 261 q 465 100 338 100 q 608 126 547 100 l 651 368 l 526 368 l 547 488 l 804 488 l 728 54 q 589 1 671 22 q 429 -19 507 -19 m 611 1061 q 478 1099 522 1061 q 433 1197 433 1138 q 436 1228 433 1208 l 547 1228 q 546 1211 546 1222 q 567 1164 546 1181 q 624 1147 589 1147 q 694 1168 664 1147 q 731 1228 724 1189 l 842 1228 q 770 1106 829 1151 q 611 1061 711 1061 z "},"Ǧ":{"ha":863,"x_min":65,"x_max":854,"o":"m 429 -19 q 238 30 321 -19 q 110 173 156 79 q 65 396 65 267 q 138 700 65 564 q 332 914 210 836 q 600 992 454 992 q 738 976 667 992 q 854 936 808 960 l 821 821 q 704 858 767 843 q 586 872 642 872 q 383 805 468 872 q 253 630 297 738 q 210 403 210 522 q 274 181 210 261 q 465 100 338 100 q 608 126 547 100 l 651 368 l 526 368 l 547 488 l 804 488 l 728 54 q 589 1 671 22 q 429 -19 507 -19 m 447 1171 l 461 1256 l 622 1164 l 789 1250 l 776 1160 l 601 1046 l 447 1171 z "},"Ĝ":{"ha":863,"x_min":65,"x_max":854,"o":"m 429 -19 q 238 30 321 -19 q 110 173 156 79 q 65 396 65 267 q 138 700 65 564 q 332 914 210 836 q 600 992 454 992 q 738 976 667 992 q 854 936 808 960 l 821 821 q 704 858 767 843 q 586 872 642 872 q 383 805 468 872 q 253 630 297 738 q 210 403 210 522 q 274 181 210 261 q 465 100 338 100 q 608 126 547 100 l 651 368 l 526 368 l 547 488 l 804 488 l 728 54 q 589 1 671 22 q 429 -19 507 -19 m 797 1131 l 783 1046 l 622 1138 l 463 1063 l 476 1147 l 643 1256 l 797 1131 z "},"Ģ":{"ha":863,"x_min":65,"x_max":854,"o":"m 429 -19 q 238 30 321 -19 q 110 173 156 79 q 65 396 65 267 q 138 700 65 564 q 332 914 210 836 q 600 992 454 992 q 738 976 667 992 q 854 936 808 960 l 821 821 q 704 858 767 843 q 586 872 642 872 q 383 805 468 872 q 253 630 297 738 q 210 403 210 522 q 274 181 210 261 q 465 100 338 100 q 608 126 547 100 l 651 368 l 526 368 l 547 488 l 804 488 l 728 54 q 589 1 671 22 q 429 -19 507 -19 m 318 -364 l 379 -246 l 329 -246 l 350 -126 l 483 -126 l 463 -246 l 369 -364 l 318 -364 z "},"Ġ":{"ha":863,"x_min":65,"x_max":854,"o":"m 429 -19 q 238 30 321 -19 q 110 173 156 79 q 65 396 65 267 q 138 700 65 564 q 332 914 210 836 q 600 992 454 992 q 738 976 667 992 q 854 936 808 960 l 821 821 q 704 858 767 843 q 586 872 642 872 q 383 805 468 872 q 253 630 297 738 q 210 403 210 522 q 274 181 210 261 q 465 100 338 100 q 608 126 547 100 l 651 368 l 526 368 l 547 488 l 804 488 l 728 54 q 589 1 671 22 q 429 -19 507 -19 m 572 1224 l 703 1224 l 681 1099 l 550 1099 l 572 1224 z "},"Ḡ":{"ha":863,"x_min":65,"x_max":854,"o":"m 429 -19 q 238 30 321 -19 q 110 173 156 79 q 65 396 65 267 q 138 700 65 564 q 332 914 210 836 q 600 992 454 992 q 738 976 667 992 q 854 936 808 960 l 821 821 q 704 858 767 843 q 586 872 642 872 q 383 805 468 872 q 253 630 297 738 q 210 403 210 522 q 274 181 210 261 q 465 100 338 100 q 608 126 547 100 l 651 368 l 526 368 l 547 488 l 804 488 l 728 54 q 589 1 671 22 q 429 -19 507 -19 m 413 1196 l 851 1196 l 835 1101 l 396 1101 l 413 1196 z "},"H":{"ha":956,"x_min":39,"x_max":943,"o":"m 210 972 l 342 972 l 271 571 l 740 571 l 811 972 l 943 972 l 771 0 l 639 0 l 718 446 l 250 446 l 171 0 l 39 0 l 210 972 z "},"Ħ":{"ha":956,"x_min":39,"x_max":993,"o":"m 978 696 l 894 696 l 771 0 l 639 0 l 718 446 l 250 446 l 171 0 l 39 0 l 161 696 l 78 696 l 92 782 l 176 782 l 210 972 l 342 972 l 308 782 l 778 782 l 811 972 l 943 972 l 910 782 l 993 782 l 978 696 m 763 696 l 293 696 l 271 571 l 740 571 l 763 696 z "},"Ḫ":{"ha":956,"x_min":39,"x_max":943,"o":"m 210 972 l 342 972 l 271 571 l 740 571 l 811 972 l 943 972 l 771 0 l 639 0 l 718 446 l 250 446 l 171 0 l 39 0 l 210 972 m 354 -303 q 226 -263 269 -303 q 182 -162 182 -224 q 188 -126 182 -143 l 296 -126 q 292 -150 292 -137 q 311 -195 292 -179 q 365 -211 331 -211 q 432 -190 404 -211 q 467 -126 460 -168 l 582 -126 q 510 -253 569 -204 q 354 -303 451 -303 z "},"Ĥ":{"ha":956,"x_min":39,"x_max":943,"o":"m 210 972 l 342 972 l 271 571 l 740 571 l 811 972 l 943 972 l 771 0 l 639 0 l 718 446 l 250 446 l 171 0 l 39 0 l 210 972 m 781 1131 l 767 1046 l 606 1138 l 446 1063 l 460 1147 l 626 1256 l 781 1131 z "},"Ḥ":{"ha":956,"x_min":39,"x_max":943,"o":"m 210 972 l 342 972 l 271 571 l 740 571 l 811 972 l 943 972 l 771 0 l 639 0 l 718 446 l 250 446 l 171 0 l 39 0 l 210 972 m 322 -112 l 450 -112 l 425 -237 l 297 -237 l 322 -112 z "},"I":{"ha":354,"x_min":39,"x_max":342,"o":"m 210 972 l 342 972 l 171 0 l 39 0 l 210 972 z "},"Ĳ":{"ha":928,"x_min":90,"x_max":926,"o":"m 389 -19 q 167 57 242 -19 q 90 275 93 133 l 229 307 q 274 155 232 210 q 410 100 315 100 q 610 203 543 100 q 707 476 676 306 l 794 972 l 926 972 l 828 413 q 681 94 792 207 q 389 -19 569 -19 m 201 972 l 333 972 l 246 476 q 235 404 238 432 l 101 404 l 201 972 z "},"Í":{"ha":354,"x_min":39,"x_max":453,"o":"m 210 972 l 342 972 l 171 0 l 39 0 l 210 972 m 199 1185 l 453 1329 l 429 1175 l 182 1090 l 199 1185 z "},"Ĭ":{"ha":354,"x_min":39,"x_max":524,"o":"m 210 972 l 342 972 l 171 0 l 39 0 l 210 972 m 293 1061 q 160 1099 204 1061 q 115 1197 115 1138 q 118 1228 115 1208 l 229 1228 q 228 1211 228 1222 q 249 1164 228 1181 q 306 1147 271 1147 q 376 1168 346 1147 q 413 1228 406 1189 l 524 1228 q 452 1106 511 1151 q 293 1061 393 1061 z "},"Î":{"ha":354,"x_min":39,"x_max":488,"o":"m 210 972 l 342 972 l 171 0 l 39 0 l 210 972 m 164 1178 l 342 1313 l 488 1160 l 471 1075 l 317 1186 l 143 1089 l 164 1178 z "},"Ȉ":{"ha":354,"x_min":39,"x_max":438,"o":"m 210 972 l 342 972 l 171 0 l 39 0 l 210 972 m 157 1094 l 61 1299 l 194 1299 l 246 1094 l 157 1094 m 349 1094 l 260 1299 l 393 1299 l 438 1094 l 349 1094 z "},"Ï":{"ha":354,"x_min":39,"x_max":511,"o":"m 210 972 l 342 972 l 171 0 l 39 0 l 210 972 m 136 1224 l 253 1224 l 231 1113 l 114 1113 l 136 1224 m 394 1224 l 511 1224 l 489 1113 l 372 1113 l 394 1224 z "},"Ḯ":{"ha":354,"x_min":39,"x_max":503,"o":"m 210 972 l 342 972 l 171 0 l 39 0 l 210 972 m 131 1207 l 247 1207 l 228 1103 l 111 1103 l 131 1207 m 386 1207 l 503 1207 l 483 1103 l 367 1103 l 386 1207 m 235 1372 l 472 1504 l 453 1364 l 224 1283 l 235 1372 z "},"İ":{"ha":354,"x_min":39,"x_max":385,"o":"m 210 972 l 342 972 l 171 0 l 39 0 l 210 972 m 254 1224 l 385 1224 l 363 1099 l 232 1099 l 254 1224 z "},"Ị":{"ha":354,"x_min":-3,"x_max":342,"o":"m 210 972 l 342 972 l 171 0 l 39 0 l 210 972 m 22 -112 l 150 -112 l 125 -237 l -3 -237 l 22 -112 z "},"Ì":{"ha":354,"x_min":39,"x_max":433,"o":"m 210 972 l 342 972 l 171 0 l 39 0 l 210 972 m 189 1188 l 213 1324 l 433 1176 l 418 1092 l 189 1188 z "},"Ỉ":{"ha":354,"x_min":39,"x_max":431,"o":"m 210 972 l 342 972 l 171 0 l 39 0 l 210 972 m 267 1067 q 329 1124 311 1103 q 347 1172 347 1144 q 299 1210 347 1210 q 207 1183 263 1210 l 196 1254 q 313 1281 251 1281 q 397 1256 365 1281 q 431 1188 429 1232 q 399 1099 431 1138 q 306 1021 367 1060 l 267 1067 z "},"Ȋ":{"ha":354,"x_min":39,"x_max":497,"o":"m 210 972 l 342 972 l 171 0 l 39 0 l 210 972 m 325 1249 q 454 1210 411 1249 q 497 1111 497 1171 q 494 1082 497 1101 l 383 1082 q 385 1099 385 1089 q 364 1146 385 1129 q 310 1163 343 1163 q 242 1142 271 1163 q 206 1082 213 1121 l 94 1082 q 167 1200 107 1151 q 325 1249 228 1249 z "},"Ī":{"ha":354,"x_min":39,"x_max":533,"o":"m 210 972 l 342 972 l 171 0 l 39 0 l 210 972 m 94 1196 l 533 1196 l 517 1101 l 78 1101 l 94 1196 z "},"Į":{"ha":354,"x_min":-50,"x_max":342,"o":"m 210 972 l 342 972 l 171 0 l 39 0 l 210 972 m 171 0 q 72 -83 107 -44 q 36 -165 36 -121 q 49 -205 36 -192 q 88 -218 63 -218 q 171 -194 128 -218 l 179 -262 q 68 -289 129 -289 q -16 -264 17 -289 q -50 -193 -49 -239 q -6 -85 -50 -137 q 97 0 38 -32 l 171 0 z "},"Ĩ":{"ha":354,"x_min":39,"x_max":550,"o":"m 210 972 l 342 972 l 171 0 l 39 0 l 210 972 m 408 1097 q 367 1106 388 1097 q 314 1129 346 1114 q 267 1151 286 1143 q 233 1158 249 1158 q 181 1108 192 1158 l 81 1108 q 226 1263 117 1263 q 268 1255 249 1263 q 317 1231 288 1247 q 360 1209 342 1217 q 397 1201 378 1201 q 450 1256 440 1201 l 550 1256 q 497 1135 532 1174 q 408 1097 463 1097 z "},"J":{"ha":356,"x_min":-106,"x_max":343,"o":"m -103 -161 l -90 -161 q -3 -125 -31 -161 q 39 -4 24 -89 l 211 972 l 343 972 l 164 -44 q 87 -189 147 -139 q -76 -239 26 -239 l -106 -239 l -103 -161 z "},"Ĵ":{"ha":356,"x_min":-106,"x_max":482,"o":"m -103 -161 l -90 -161 q -3 -125 -31 -161 q 39 -4 24 -89 l 211 972 l 343 972 l 164 -44 q 87 -189 147 -139 q -76 -239 26 -239 l -106 -239 l -103 -161 m 482 1131 l 468 1046 l 307 1138 l 147 1063 l 161 1147 l 328 1256 l 482 1131 z "},"K":{"ha":760,"x_min":39,"x_max":831,"o":"m 210 972 l 342 972 l 171 0 l 39 0 l 210 972 m 274 515 l 672 972 l 831 972 l 415 515 l 683 0 l 532 0 l 274 515 z "},"Ķ":{"ha":760,"x_min":39,"x_max":831,"o":"m 210 972 l 342 972 l 171 0 l 39 0 l 210 972 m 274 515 l 672 972 l 831 972 l 415 515 l 683 0 l 532 0 l 274 515 m 238 -364 l 299 -246 l 249 -246 l 269 -126 l 403 -126 l 382 -246 l 289 -364 l 238 -364 z "},"L":{"ha":649,"x_min":39,"x_max":581,"o":"m 210 972 l 342 972 l 192 119 l 581 119 l 558 0 l 39 0 l 210 972 z "},"Ǉ":{"ha":1004,"x_min":39,"x_max":992,"o":"m 210 972 l 342 972 l 192 119 l 581 119 l 558 0 l 39 0 l 210 972 m 546 -161 l 558 -161 q 645 -125 618 -161 q 688 -4 672 -89 l 860 972 l 992 972 l 813 -44 q 735 -189 796 -139 q 572 -239 675 -239 l 543 -239 l 546 -161 z "},"Ĺ":{"ha":649,"x_min":39,"x_max":581,"o":"m 210 972 l 342 972 l 192 119 l 581 119 l 558 0 l 39 0 l 210 972 m 197 1150 l 435 1282 l 415 1142 l 186 1061 l 197 1150 z "},"Ľ":{"ha":649,"x_min":39,"x_max":776,"o":"m 210 972 l 342 972 l 192 119 l 581 119 l 558 0 l 39 0 l 210 972 m 647 972 l 776 972 l 696 740 l 606 740 l 647 972 z "},"Ļ":{"ha":649,"x_min":39,"x_max":581,"o":"m 210 972 l 342 972 l 192 119 l 581 119 l 558 0 l 39 0 l 210 972 m 211 -364 l 272 -246 l 222 -246 l 243 -126 l 376 -126 l 356 -246 l 263 -364 l 211 -364 z "},"Ŀ":{"ha":649,"x_min":39,"x_max":589,"o":"m 210 972 l 342 972 l 192 119 l 581 119 l 558 0 l 39 0 l 210 972 m 453 604 l 589 604 l 564 463 l 428 463 l 453 604 z "},"Ḷ":{"ha":649,"x_min":39,"x_max":581,"o":"m 210 972 l 342 972 l 192 119 l 581 119 l 558 0 l 39 0 l 210 972 m 242 -112 l 369 -112 l 344 -237 l 217 -237 l 242 -112 z "},"ǈ":{"ha":946,"x_min":39,"x_max":961,"o":"m 210 972 l 342 972 l 192 119 l 581 119 l 558 0 l 39 0 l 210 972 m 835 972 l 961 972 l 936 833 l 810 833 l 835 972 m 535 -240 q 592 -224 572 -236 q 623 -185 611 -212 q 644 -101 635 -158 l 782 681 l 908 681 l 763 -149 q 697 -278 746 -237 q 575 -329 647 -318 l 531 -336 l 535 -240 z "},"Ḻ":{"ha":649,"x_min":39,"x_max":581,"o":"m 210 972 l 342 972 l 192 119 l 581 119 l 558 0 l 39 0 l 210 972 m 90 -126 l 524 -126 l 504 -225 l 71 -225 l 90 -126 z "},"Ł":{"ha":649,"x_min":28,"x_max":581,"o":"m 581 119 l 558 0 l 39 0 l 131 522 l 28 483 l 46 585 l 149 624 l 210 972 l 342 972 l 290 676 l 554 776 l 536 675 l 272 575 l 192 119 l 581 119 z "},"M":{"ha":1044,"x_min":-4,"x_max":956,"o":"m 286 972 l 406 972 l 536 490 l 836 972 l 956 972 l 903 0 l 764 0 l 811 717 l 492 231 l 340 717 l 135 0 l -4 0 l 286 972 z "},"Ṃ":{"ha":1044,"x_min":-4,"x_max":956,"o":"m 286 972 l 406 972 l 536 490 l 836 972 l 956 972 l 903 0 l 764 0 l 811 717 l 492 231 l 340 717 l 135 0 l -4 0 l 286 972 m 367 -112 l 494 -112 l 469 -237 l 342 -237 l 367 -112 z "},"N":{"ha":907,"x_min":39,"x_max":894,"o":"m 210 972 l 349 972 l 633 244 l 761 972 l 894 972 l 722 0 l 611 0 l 307 768 l 171 0 l 39 0 l 210 972 z "},"Ǌ":{"ha":1263,"x_min":39,"x_max":1250,"o":"m 210 972 l 349 972 l 633 244 l 761 972 l 894 972 l 722 0 l 611 0 l 307 768 l 171 0 l 39 0 l 210 972 m 804 -161 l 817 -161 q 903 -125 876 -161 q 946 -4 931 -89 l 1118 972 l 1250 972 l 1071 -44 q 994 -189 1054 -139 q 831 -239 933 -239 l 801 -239 l 804 -161 z "},"Ń":{"ha":907,"x_min":39,"x_max":894,"o":"m 210 972 l 349 972 l 633 244 l 761 972 l 894 972 l 722 0 l 611 0 l 307 768 l 171 0 l 39 0 l 210 972 m 476 1150 l 714 1282 l 694 1142 l 465 1061 l 476 1150 z "},"Ň":{"ha":907,"x_min":39,"x_max":894,"o":"m 210 972 l 349 972 l 633 244 l 761 972 l 894 972 l 722 0 l 611 0 l 307 768 l 171 0 l 39 0 l 210 972 m 410 1171 l 424 1256 l 585 1164 l 751 1250 l 739 1160 l 564 1046 l 410 1171 z "},"Ņ":{"ha":907,"x_min":39,"x_max":894,"o":"m 210 972 l 349 972 l 633 244 l 761 972 l 894 972 l 722 0 l 611 0 l 307 768 l 171 0 l 39 0 l 210 972 m 278 -364 l 339 -246 l 289 -246 l 310 -126 l 443 -126 l 422 -246 l 329 -364 l 278 -364 z "},"Ṅ":{"ha":907,"x_min":39,"x_max":894,"o":"m 210 972 l 349 972 l 633 244 l 761 972 l 894 972 l 722 0 l 611 0 l 307 768 l 171 0 l 39 0 l 210 972 m 535 1224 l 665 1224 l 643 1099 l 513 1099 l 535 1224 z "},"Ṇ":{"ha":907,"x_min":39,"x_max":894,"o":"m 210 972 l 349 972 l 633 244 l 761 972 l 894 972 l 722 0 l 611 0 l 307 768 l 171 0 l 39 0 l 210 972 m 308 -112 l 436 -112 l 411 -237 l 283 -237 l 308 -112 z "},"Ŋ":{"ha":936,"x_min":47,"x_max":881,"o":"m 769 56 q 652 -178 742 -100 q 432 -257 563 -257 q 282 -226 351 -257 l 319 -110 q 447 -137 382 -137 q 573 -88 522 -137 q 638 56 624 -39 l 739 625 q 744 688 744 654 q 699 825 744 778 q 563 872 653 872 q 313 757 428 872 l 179 0 l 47 0 l 219 972 l 331 972 l 322 874 q 626 992 464 992 q 815 919 750 992 q 881 724 881 847 q 872 639 881 683 l 769 56 z "},"ǋ":{"ha":1190,"x_min":39,"x_max":1206,"o":"m 210 972 l 349 972 l 633 244 l 761 972 l 894 972 l 722 0 l 611 0 l 307 768 l 171 0 l 39 0 l 210 972 m 1079 972 l 1206 972 l 1181 833 l 1054 833 l 1079 972 m 779 -240 q 836 -224 817 -236 q 867 -185 856 -212 q 889 -101 879 -158 l 1026 681 l 1153 681 l 1007 -149 q 941 -278 990 -237 q 819 -329 892 -318 l 775 -336 l 779 -240 z "},"Ṉ":{"ha":907,"x_min":39,"x_max":894,"o":"m 210 972 l 349 972 l 633 244 l 761 972 l 894 972 l 722 0 l 611 0 l 307 768 l 171 0 l 39 0 l 210 972 m 157 -126 l 590 -126 l 571 -225 l 138 -225 l 157 -126 z "},"Ñ":{"ha":907,"x_min":39,"x_max":894,"o":"m 210 972 l 349 972 l 633 244 l 761 972 l 894 972 l 722 0 l 611 0 l 307 768 l 171 0 l 39 0 l 210 972 m 689 1097 q 647 1106 668 1097 q 594 1129 626 1114 q 548 1151 567 1143 q 514 1158 529 1158 q 461 1108 472 1158 l 361 1108 q 507 1263 397 1263 q 549 1255 529 1263 q 597 1231 568 1247 q 640 1209 622 1217 q 678 1201 658 1201 q 731 1256 721 1201 l 831 1256 q 778 1135 813 1174 q 689 1097 743 1097 z "},"O":{"ha":986,"x_min":64,"x_max":949,"o":"m 421 -19 q 160 90 256 -19 q 64 392 64 199 q 135 697 64 560 q 328 913 207 835 q 592 992 450 992 q 853 883 757 992 q 949 581 949 774 q 876 275 949 413 q 683 59 804 138 q 421 -19 563 -19 m 443 100 q 632 167 550 100 q 759 342 714 233 q 804 572 804 450 q 746 790 804 708 q 569 872 688 872 q 381 806 463 872 q 254 631 299 740 q 210 400 210 522 q 267 183 210 265 q 443 100 325 100 z "},"Ó":{"ha":986,"x_min":64,"x_max":949,"o":"m 421 -19 q 160 90 256 -19 q 64 392 64 199 q 135 697 64 560 q 328 913 207 835 q 592 992 450 992 q 853 883 757 992 q 949 581 949 774 q 876 275 949 413 q 683 59 804 138 q 421 -19 563 -19 m 443 100 q 632 167 550 100 q 759 342 714 233 q 804 572 804 450 q 746 790 804 708 q 569 872 688 872 q 381 806 463 872 q 254 631 299 740 q 210 400 210 522 q 267 183 210 265 q 443 100 325 100 m 515 1185 l 769 1329 l 746 1175 l 499 1090 l 515 1185 z "},"Ŏ":{"ha":986,"x_min":64,"x_max":949,"o":"m 421 -19 q 160 90 256 -19 q 64 392 64 199 q 135 697 64 560 q 328 913 207 835 q 592 992 450 992 q 853 883 757 992 q 949 581 949 774 q 876 275 949 413 q 683 59 804 138 q 421 -19 563 -19 m 443 100 q 632 167 550 100 q 759 342 714 233 q 804 572 804 450 q 746 790 804 708 q 569 872 688 872 q 381 806 463 872 q 254 631 299 740 q 210 400 210 522 q 267 183 210 265 q 443 100 325 100 m 610 1061 q 476 1099 521 1061 q 432 1197 432 1138 q 435 1228 432 1208 l 546 1228 q 544 1211 544 1222 q 566 1164 544 1181 q 622 1147 588 1147 q 692 1168 663 1147 q 729 1228 722 1189 l 840 1228 q 769 1106 828 1151 q 610 1061 710 1061 z "},"Ô":{"ha":986,"x_min":64,"x_max":949,"o":"m 421 -19 q 160 90 256 -19 q 64 392 64 199 q 135 697 64 560 q 328 913 207 835 q 592 992 450 992 q 853 883 757 992 q 949 581 949 774 q 876 275 949 413 q 683 59 804 138 q 421 -19 563 -19 m 443 100 q 632 167 550 100 q 759 342 714 233 q 804 572 804 450 q 746 790 804 708 q 569 872 688 872 q 381 806 463 872 q 254 631 299 740 q 210 400 210 522 q 267 183 210 265 q 443 100 325 100 m 481 1178 l 658 1313 l 804 1160 l 788 1075 l 633 1186 l 460 1089 l 481 1178 z "},"Ố":{"ha":986,"x_min":64,"x_max":976,"o":"m 421 -19 q 160 90 256 -19 q 64 392 64 199 q 135 697 64 560 q 328 913 207 835 q 592 992 450 992 q 853 883 757 992 q 949 581 949 774 q 876 275 949 413 q 683 59 804 138 q 421 -19 563 -19 m 443 100 q 632 167 550 100 q 759 342 714 233 q 804 572 804 450 q 746 790 804 708 q 569 872 688 872 q 381 806 463 872 q 254 631 299 740 q 210 400 210 522 q 267 183 210 265 q 443 100 325 100 m 843 1404 l 976 1404 l 818 1249 l 729 1249 l 843 1404 m 796 1131 l 782 1046 l 621 1138 l 461 1063 l 475 1147 l 642 1256 l 796 1131 z "},"Ộ":{"ha":986,"x_min":64,"x_max":949,"o":"m 421 -19 q 160 90 256 -19 q 64 392 64 199 q 135 697 64 560 q 328 913 207 835 q 592 992 450 992 q 853 883 757 992 q 949 581 949 774 q 876 275 949 413 q 683 59 804 138 q 421 -19 563 -19 m 443 100 q 632 167 550 100 q 759 342 714 233 q 804 572 804 450 q 746 790 804 708 q 569 872 688 872 q 381 806 463 872 q 254 631 299 740 q 210 400 210 522 q 267 183 210 265 q 443 100 325 100 m 796 1131 l 782 1046 l 621 1138 l 461 1063 l 475 1147 l 642 1256 l 796 1131 m 328 -112 l 456 -112 l 431 -237 l 303 -237 l 328 -112 z "},"Ồ":{"ha":986,"x_min":64,"x_max":949,"o":"m 421 -19 q 160 90 256 -19 q 64 392 64 199 q 135 697 64 560 q 328 913 207 835 q 592 992 450 992 q 853 883 757 992 q 949 581 949 774 q 876 275 949 413 q 683 59 804 138 q 421 -19 563 -19 m 443 100 q 632 167 550 100 q 759 342 714 233 q 804 572 804 450 q 746 790 804 708 q 569 872 688 872 q 381 806 463 872 q 254 631 299 740 q 210 400 210 522 q 267 183 210 265 q 443 100 325 100 m 721 1249 l 628 1411 l 760 1411 l 810 1249 l 721 1249 m 796 1131 l 782 1046 l 621 1138 l 461 1063 l 475 1147 l 642 1256 l 796 1131 z "},"Ổ":{"ha":986,"x_min":64,"x_max":949,"o":"m 421 -19 q 160 90 256 -19 q 64 392 64 199 q 135 697 64 560 q 328 913 207 835 q 592 992 450 992 q 853 883 757 992 q 949 581 949 774 q 876 275 949 413 q 683 59 804 138 q 421 -19 563 -19 m 443 100 q 632 167 550 100 q 759 342 714 233 q 804 572 804 450 q 746 790 804 708 q 569 872 688 872 q 381 806 463 872 q 254 631 299 740 q 210 400 210 522 q 267 183 210 265 q 443 100 325 100 m 796 1131 l 782 1046 l 621 1138 l 461 1063 l 475 1147 l 642 1256 l 796 1131 m 751 1267 q 808 1326 808 1286 q 795 1355 808 1344 q 758 1365 782 1365 q 674 1340 726 1365 l 663 1411 q 775 1436 715 1436 q 858 1412 826 1436 q 890 1343 890 1388 q 853 1258 890 1292 q 754 1211 817 1224 l 751 1267 z "},"Ỗ":{"ha":986,"x_min":64,"x_max":949,"o":"m 421 -19 q 160 90 256 -19 q 64 392 64 199 q 135 697 64 560 q 328 913 207 835 q 592 992 450 992 q 853 883 757 992 q 949 581 949 774 q 876 275 949 413 q 683 59 804 138 q 421 -19 563 -19 m 443 100 q 632 167 550 100 q 759 342 714 233 q 804 572 804 450 q 746 790 804 708 q 569 872 688 872 q 381 806 463 872 q 254 631 299 740 q 210 400 210 522 q 267 183 210 265 q 443 100 325 100 m 796 1131 l 782 1046 l 621 1138 l 461 1063 l 475 1147 l 642 1256 l 796 1131 m 760 1299 q 717 1306 739 1299 q 657 1328 694 1313 q 578 1353 599 1353 q 545 1340 558 1353 q 531 1306 532 1328 l 440 1306 q 485 1408 451 1372 q 568 1444 518 1444 q 610 1438 589 1444 q 668 1415 632 1431 q 713 1398 690 1406 q 753 1390 736 1390 q 785 1403 772 1390 q 800 1438 797 1415 l 890 1438 q 846 1334 881 1369 q 760 1299 811 1299 z "},"Ȍ":{"ha":986,"x_min":64,"x_max":949,"o":"m 421 -19 q 160 90 256 -19 q 64 392 64 199 q 135 697 64 560 q 328 913 207 835 q 592 992 450 992 q 853 883 757 992 q 949 581 949 774 q 876 275 949 413 q 683 59 804 138 q 421 -19 563 -19 m 443 100 q 632 167 550 100 q 759 342 714 233 q 804 572 804 450 q 746 790 804 708 q 569 872 688 872 q 381 806 463 872 q 254 631 299 740 q 210 400 210 522 q 267 183 210 265 q 443 100 325 100 m 474 1094 l 378 1299 l 511 1299 l 563 1094 l 474 1094 m 665 1094 l 576 1299 l 710 1299 l 754 1094 l 665 1094 z "},"Ö":{"ha":986,"x_min":64,"x_max":949,"o":"m 421 -19 q 160 90 256 -19 q 64 392 64 199 q 135 697 64 560 q 328 913 207 835 q 592 992 450 992 q 853 883 757 992 q 949 581 949 774 q 876 275 949 413 q 683 59 804 138 q 421 -19 563 -19 m 443 100 q 632 167 550 100 q 759 342 714 233 q 804 572 804 450 q 746 790 804 708 q 569 872 688 872 q 381 806 463 872 q 254 631 299 740 q 210 400 210 522 q 267 183 210 265 q 443 100 325 100 m 453 1224 l 569 1224 l 547 1113 l 431 1113 l 453 1224 m 711 1224 l 828 1224 l 806 1113 l 689 1113 l 711 1224 z "},"Ȫ":{"ha":986,"x_min":64,"x_max":949,"o":"m 421 -19 q 160 90 256 -19 q 64 392 64 199 q 135 697 64 560 q 328 913 207 835 q 592 992 450 992 q 853 883 757 992 q 949 581 949 774 q 876 275 949 413 q 683 59 804 138 q 421 -19 563 -19 m 443 100 q 632 167 550 100 q 759 342 714 233 q 804 572 804 450 q 746 790 804 708 q 569 872 688 872 q 381 806 463 872 q 254 631 299 740 q 210 400 210 522 q 267 183 210 265 q 443 100 325 100 m 447 1207 l 564 1207 l 544 1103 l 428 1103 l 447 1207 m 703 1207 l 819 1207 l 800 1103 l 683 1103 l 703 1207 m 450 1418 l 889 1418 l 872 1324 l 433 1324 l 450 1418 z "},"Ȱ":{"ha":986,"x_min":64,"x_max":949,"o":"m 421 -19 q 160 90 256 -19 q 64 392 64 199 q 135 697 64 560 q 328 913 207 835 q 592 992 450 992 q 853 883 757 992 q 949 581 949 774 q 876 275 949 413 q 683 59 804 138 q 421 -19 563 -19 m 443 100 q 632 167 550 100 q 759 342 714 233 q 804 572 804 450 q 746 790 804 708 q 569 872 688 872 q 381 806 463 872 q 254 631 299 740 q 210 400 210 522 q 267 183 210 265 q 443 100 325 100 m 571 1224 l 701 1224 l 679 1099 l 549 1099 l 571 1224 m 451 1426 l 890 1426 l 874 1332 l 435 1332 l 451 1426 z "},"Ọ":{"ha":986,"x_min":64,"x_max":949,"o":"m 421 -19 q 160 90 256 -19 q 64 392 64 199 q 135 697 64 560 q 328 913 207 835 q 592 992 450 992 q 853 883 757 992 q 949 581 949 774 q 876 275 949 413 q 683 59 804 138 q 421 -19 563 -19 m 443 100 q 632 167 550 100 q 759 342 714 233 q 804 572 804 450 q 746 790 804 708 q 569 872 688 872 q 381 806 463 872 q 254 631 299 740 q 210 400 210 522 q 267 183 210 265 q 443 100 325 100 m 328 -112 l 456 -112 l 431 -237 l 303 -237 l 328 -112 z "},"Ò":{"ha":986,"x_min":64,"x_max":949,"o":"m 421 -19 q 160 90 256 -19 q 64 392 64 199 q 135 697 64 560 q 328 913 207 835 q 592 992 450 992 q 853 883 757 992 q 949 581 949 774 q 876 275 949 413 q 683 59 804 138 q 421 -19 563 -19 m 443 100 q 632 167 550 100 q 759 342 714 233 q 804 572 804 450 q 746 790 804 708 q 569 872 688 872 q 381 806 463 872 q 254 631 299 740 q 210 400 210 522 q 267 183 210 265 q 443 100 325 100 m 506 1188 l 529 1324 l 750 1176 l 735 1092 l 506 1188 z "},"Ỏ":{"ha":986,"x_min":64,"x_max":949,"o":"m 421 -19 q 160 90 256 -19 q 64 392 64 199 q 135 697 64 560 q 328 913 207 835 q 592 992 450 992 q 853 883 757 992 q 949 581 949 774 q 876 275 949 413 q 683 59 804 138 q 421 -19 563 -19 m 443 100 q 632 167 550 100 q 759 342 714 233 q 804 572 804 450 q 746 790 804 708 q 569 872 688 872 q 381 806 463 872 q 254 631 299 740 q 210 400 210 522 q 267 183 210 265 q 443 100 325 100 m 583 1067 q 646 1124 628 1103 q 664 1172 664 1144 q 615 1210 664 1210 q 524 1183 579 1210 l 513 1254 q 629 1281 568 1281 q 714 1256 682 1281 q 747 1188 746 1232 q 715 1099 747 1138 q 622 1021 683 1060 l 583 1067 z "},"Ơ":{"ha":986,"x_min":64,"x_max":949,"o":"m 824 913 q 917 776 885 860 q 949 581 949 692 q 876 275 949 413 q 683 59 804 138 q 421 -19 563 -19 q 160 90 256 -19 q 64 392 64 199 q 135 697 64 560 q 328 913 207 835 q 592 992 450 992 q 715 974 654 992 q 826 1075 808 981 l 946 1075 q 903 978 935 1019 q 824 913 872 936 m 443 100 q 632 167 550 100 q 759 342 714 233 q 804 572 804 450 q 746 790 804 708 q 569 872 688 872 q 381 806 463 872 q 254 631 299 740 q 210 400 210 522 q 267 183 210 265 q 443 100 325 100 z "},"Ớ":{"ha":986,"x_min":64,"x_max":949,"o":"m 824 913 q 917 776 885 860 q 949 581 949 692 q 876 275 949 413 q 683 59 804 138 q 421 -19 563 -19 q 160 90 256 -19 q 64 392 64 199 q 135 697 64 560 q 328 913 207 835 q 592 992 450 992 q 715 974 654 992 q 826 1075 808 981 l 946 1075 q 903 978 935 1019 q 824 913 872 936 m 443 100 q 632 167 550 100 q 759 342 714 233 q 804 572 804 450 q 746 790 804 708 q 569 872 688 872 q 381 806 463 872 q 254 631 299 740 q 210 400 210 522 q 267 183 210 265 q 443 100 325 100 m 515 1185 l 769 1329 l 746 1175 l 499 1090 l 515 1185 z "},"Ợ":{"ha":986,"x_min":64,"x_max":949,"o":"m 824 913 q 917 776 885 860 q 949 581 949 692 q 876 275 949 413 q 683 59 804 138 q 421 -19 563 -19 q 160 90 256 -19 q 64 392 64 199 q 135 697 64 560 q 328 913 207 835 q 592 992 450 992 q 715 974 654 992 q 826 1075 808 981 l 946 1075 q 903 978 935 1019 q 824 913 872 936 m 443 100 q 632 167 550 100 q 759 342 714 233 q 804 572 804 450 q 746 790 804 708 q 569 872 688 872 q 381 806 463 872 q 254 631 299 740 q 210 400 210 522 q 267 183 210 265 q 443 100 325 100 m 328 -112 l 456 -112 l 431 -237 l 303 -237 l 328 -112 z "},"Ờ":{"ha":986,"x_min":64,"x_max":949,"o":"m 824 913 q 917 776 885 860 q 949 581 949 692 q 876 275 949 413 q 683 59 804 138 q 421 -19 563 -19 q 160 90 256 -19 q 64 392 64 199 q 135 697 64 560 q 328 913 207 835 q 592 992 450 992 q 715 974 654 992 q 826 1075 808 981 l 946 1075 q 903 978 935 1019 q 824 913 872 936 m 443 100 q 632 167 550 100 q 759 342 714 233 q 804 572 804 450 q 746 790 804 708 q 569 872 688 872 q 381 806 463 872 q 254 631 299 740 q 210 400 210 522 q 267 183 210 265 q 443 100 325 100 m 506 1188 l 529 1324 l 750 1176 l 735 1092 l 506 1188 z "},"Ở":{"ha":986,"x_min":64,"x_max":949,"o":"m 824 913 q 917 776 885 860 q 949 581 949 692 q 876 275 949 413 q 683 59 804 138 q 421 -19 563 -19 q 160 90 256 -19 q 64 392 64 199 q 135 697 64 560 q 328 913 207 835 q 592 992 450 992 q 715 974 654 992 q 826 1075 808 981 l 946 1075 q 903 978 935 1019 q 824 913 872 936 m 443 100 q 632 167 550 100 q 759 342 714 233 q 804 572 804 450 q 746 790 804 708 q 569 872 688 872 q 381 806 463 872 q 254 631 299 740 q 210 400 210 522 q 267 183 210 265 q 443 100 325 100 m 583 1067 q 646 1124 628 1103 q 664 1172 664 1144 q 615 1210 664 1210 q 524 1183 579 1210 l 513 1254 q 629 1281 568 1281 q 714 1256 682 1281 q 747 1188 746 1232 q 715 1099 747 1138 q 622 1021 683 1060 l 583 1067 z "},"Ỡ":{"ha":986,"x_min":64,"x_max":949,"o":"m 824 913 q 917 776 885 860 q 949 581 949 692 q 876 275 949 413 q 683 59 804 138 q 421 -19 563 -19 q 160 90 256 -19 q 64 392 64 199 q 135 697 64 560 q 328 913 207 835 q 592 992 450 992 q 715 974 654 992 q 826 1075 808 981 l 946 1075 q 903 978 935 1019 q 824 913 872 936 m 443 100 q 632 167 550 100 q 759 342 714 233 q 804 572 804 450 q 746 790 804 708 q 569 872 688 872 q 381 806 463 872 q 254 631 299 740 q 210 400 210 522 q 267 183 210 265 q 443 100 325 100 m 725 1097 q 683 1106 704 1097 q 631 1129 663 1114 q 584 1151 603 1143 q 550 1158 565 1158 q 497 1108 508 1158 l 397 1108 q 543 1263 433 1263 q 585 1255 565 1263 q 633 1231 604 1247 q 676 1209 658 1217 q 714 1201 694 1201 q 767 1256 757 1201 l 867 1256 q 814 1135 849 1174 q 725 1097 779 1097 z "},"Ő":{"ha":986,"x_min":64,"x_max":949,"o":"m 421 -19 q 160 90 256 -19 q 64 392 64 199 q 135 697 64 560 q 328 913 207 835 q 592 992 450 992 q 853 883 757 992 q 949 581 949 774 q 876 275 949 413 q 683 59 804 138 q 421 -19 563 -19 m 443 100 q 632 167 550 100 q 759 342 714 233 q 804 572 804 450 q 746 790 804 708 q 569 872 688 872 q 381 806 463 872 q 254 631 299 740 q 210 400 210 522 q 267 183 210 265 q 443 100 325 100 m 585 1299 l 718 1299 l 560 1094 l 471 1094 l 585 1299 m 783 1299 l 917 1299 l 751 1094 l 663 1094 l 783 1299 z "},"Ȏ":{"ha":986,"x_min":64,"x_max":949,"o":"m 421 -19 q 160 90 256 -19 q 64 392 64 199 q 135 697 64 560 q 328 913 207 835 q 592 992 450 992 q 853 883 757 992 q 949 581 949 774 q 876 275 949 413 q 683 59 804 138 q 421 -19 563 -19 m 443 100 q 632 167 550 100 q 759 342 714 233 q 804 572 804 450 q 746 790 804 708 q 569 872 688 872 q 381 806 463 872 q 254 631 299 740 q 210 400 210 522 q 267 183 210 265 q 443 100 325 100 m 642 1249 q 771 1210 728 1249 q 814 1111 814 1171 q 811 1082 814 1101 l 700 1082 q 701 1099 701 1089 q 681 1146 701 1129 q 626 1163 660 1163 q 558 1142 588 1163 q 522 1082 529 1121 l 411 1082 q 484 1200 424 1151 q 642 1249 544 1249 z "},"Ō":{"ha":986,"x_min":64,"x_max":949,"o":"m 421 -19 q 160 90 256 -19 q 64 392 64 199 q 135 697 64 560 q 328 913 207 835 q 592 992 450 992 q 853 883 757 992 q 949 581 949 774 q 876 275 949 413 q 683 59 804 138 q 421 -19 563 -19 m 443 100 q 632 167 550 100 q 759 342 714 233 q 804 572 804 450 q 746 790 804 708 q 569 872 688 872 q 381 806 463 872 q 254 631 299 740 q 210 400 210 522 q 267 183 210 265 q 443 100 325 100 m 411 1196 l 850 1196 l 833 1101 l 394 1101 l 411 1196 z "},"Ṓ":{"ha":986,"x_min":64,"x_max":949,"o":"m 421 -19 q 160 90 256 -19 q 64 392 64 199 q 135 697 64 560 q 328 913 207 835 q 592 992 450 992 q 853 883 757 992 q 949 581 949 774 q 876 275 949 413 q 683 59 804 138 q 421 -19 563 -19 m 443 100 q 632 167 550 100 q 759 342 714 233 q 804 572 804 450 q 746 790 804 708 q 569 872 688 872 q 381 806 463 872 q 254 631 299 740 q 210 400 210 522 q 267 183 210 265 q 443 100 325 100 m 411 1196 l 850 1196 l 833 1101 l 394 1101 l 411 1196 m 564 1361 l 801 1493 l 782 1353 l 553 1272 l 564 1361 z "},"Ṑ":{"ha":986,"x_min":64,"x_max":949,"o":"m 421 -19 q 160 90 256 -19 q 64 392 64 199 q 135 697 64 560 q 328 913 207 835 q 592 992 450 992 q 853 883 757 992 q 949 581 949 774 q 876 275 949 413 q 683 59 804 138 q 421 -19 563 -19 m 443 100 q 632 167 550 100 q 759 342 714 233 q 804 572 804 450 q 746 790 804 708 q 569 872 688 872 q 381 806 463 872 q 254 631 299 740 q 210 400 210 522 q 267 183 210 265 q 443 100 325 100 m 411 1196 l 850 1196 l 833 1101 l 394 1101 l 411 1196 m 550 1353 l 574 1485 l 796 1353 l 781 1272 l 550 1353 z "},"Ǫ":{"ha":986,"x_min":64,"x_max":949,"o":"m 489 -14 q 405 -90 435 -54 q 375 -165 375 -125 q 389 -205 375 -192 q 426 -218 403 -218 q 510 -194 467 -218 l 518 -262 q 407 -289 468 -289 q 323 -264 356 -289 q 289 -193 290 -239 q 322 -99 289 -146 q 404 -19 354 -53 q 155 96 246 -12 q 64 392 64 204 q 135 697 64 560 q 328 913 207 835 q 592 992 450 992 q 853 883 757 992 q 949 581 949 774 q 888 297 949 426 q 721 86 826 168 q 489 -14 615 4 m 210 400 q 267 183 210 265 q 443 100 325 100 q 632 167 550 100 q 759 342 714 233 q 804 572 804 450 q 746 790 804 708 q 569 872 688 872 q 381 806 463 872 q 254 631 299 740 q 210 400 210 522 z "},"Ø":{"ha":986,"x_min":24,"x_max":997,"o":"m 867 865 q 949 581 949 757 q 876 275 949 413 q 683 59 804 138 q 421 -19 563 -19 q 224 33 306 -19 l 150 -61 l 24 -61 l 150 101 q 64 392 64 210 q 135 697 64 560 q 328 913 207 835 q 592 992 450 992 q 793 935 711 992 l 869 1033 l 997 1033 l 867 865 m 210 400 q 243 224 210 297 l 710 828 q 569 872 654 872 q 381 806 463 872 q 254 631 299 740 q 210 400 210 522 m 804 572 q 772 743 804 675 l 307 142 q 443 100 361 100 q 632 167 550 100 q 759 342 714 233 q 804 572 804 450 z "},"Ǿ":{"ha":986,"x_min":24,"x_max":997,"o":"m 867 865 q 949 581 949 757 q 876 275 949 413 q 683 59 804 138 q 421 -19 563 -19 q 224 33 306 -19 l 150 -61 l 24 -61 l 150 101 q 64 392 64 210 q 135 697 64 560 q 328 913 207 835 q 592 992 450 992 q 793 935 711 992 l 869 1033 l 997 1033 l 867 865 m 210 400 q 243 224 210 297 l 710 828 q 569 872 654 872 q 381 806 463 872 q 254 631 299 740 q 210 400 210 522 m 804 572 q 772 743 804 675 l 307 142 q 443 100 361 100 q 632 167 550 100 q 759 342 714 233 q 804 572 804 450 m 513 1150 l 750 1282 l 731 1142 l 501 1061 l 513 1150 z "},"Õ":{"ha":986,"x_min":64,"x_max":949,"o":"m 421 -19 q 160 90 256 -19 q 64 392 64 199 q 135 697 64 560 q 328 913 207 835 q 592 992 450 992 q 853 883 757 992 q 949 581 949 774 q 876 275 949 413 q 683 59 804 138 q 421 -19 563 -19 m 443 100 q 632 167 550 100 q 759 342 714 233 q 804 572 804 450 q 746 790 804 708 q 569 872 688 872 q 381 806 463 872 q 254 631 299 740 q 210 400 210 522 q 267 183 210 265 q 443 100 325 100 m 725 1097 q 683 1106 704 1097 q 631 1129 663 1114 q 584 1151 603 1143 q 550 1158 565 1158 q 497 1108 508 1158 l 397 1108 q 543 1263 433 1263 q 585 1255 565 1263 q 633 1231 604 1247 q 676 1209 658 1217 q 714 1201 694 1201 q 767 1256 757 1201 l 867 1256 q 814 1135 849 1174 q 725 1097 779 1097 z "},"Ṍ":{"ha":986,"x_min":64,"x_max":949,"o":"m 421 -19 q 160 90 256 -19 q 64 392 64 199 q 135 697 64 560 q 328 913 207 835 q 592 992 450 992 q 853 883 757 992 q 949 581 949 774 q 876 275 949 413 q 683 59 804 138 q 421 -19 563 -19 m 443 100 q 632 167 550 100 q 759 342 714 233 q 804 572 804 450 q 746 790 804 708 q 569 872 688 872 q 381 806 463 872 q 254 631 299 740 q 210 400 210 522 q 267 183 210 265 q 443 100 325 100 m 721 1094 q 678 1101 700 1094 q 618 1124 656 1108 q 539 1149 560 1149 q 506 1136 519 1149 q 492 1101 493 1124 l 401 1101 q 446 1204 413 1168 q 529 1240 479 1240 q 572 1233 550 1240 q 629 1211 593 1226 q 674 1194 651 1201 q 714 1186 697 1186 q 746 1199 733 1186 q 761 1233 758 1211 l 851 1233 q 807 1130 842 1165 q 721 1094 772 1094 m 556 1394 l 793 1526 l 774 1386 l 544 1306 l 556 1394 z "},"Ṏ":{"ha":986,"x_min":64,"x_max":949,"o":"m 421 -19 q 160 90 256 -19 q 64 392 64 199 q 135 697 64 560 q 328 913 207 835 q 592 992 450 992 q 853 883 757 992 q 949 581 949 774 q 876 275 949 413 q 683 59 804 138 q 421 -19 563 -19 m 443 100 q 632 167 550 100 q 759 342 714 233 q 804 572 804 450 q 746 790 804 708 q 569 872 688 872 q 381 806 463 872 q 254 631 299 740 q 210 400 210 522 q 267 183 210 265 q 443 100 325 100 m 721 1094 q 678 1101 700 1094 q 618 1124 656 1108 q 539 1149 560 1149 q 506 1136 519 1149 q 492 1101 493 1124 l 401 1101 q 446 1204 413 1168 q 529 1240 479 1240 q 572 1233 550 1240 q 629 1211 593 1226 q 674 1194 651 1201 q 714 1186 697 1186 q 746 1199 733 1186 q 761 1233 758 1211 l 851 1233 q 807 1130 842 1165 q 721 1094 772 1094 m 490 1451 l 607 1451 l 588 1347 l 471 1347 l 490 1451 m 746 1451 l 863 1451 l 843 1347 l 726 1347 l 746 1451 z "},"Ȭ":{"ha":986,"x_min":64,"x_max":949,"o":"m 421 -19 q 160 90 256 -19 q 64 392 64 199 q 135 697 64 560 q 328 913 207 835 q 592 992 450 992 q 853 883 757 992 q 949 581 949 774 q 876 275 949 413 q 683 59 804 138 q 421 -19 563 -19 m 443 100 q 632 167 550 100 q 759 342 714 233 q 804 572 804 450 q 746 790 804 708 q 569 872 688 872 q 381 806 463 872 q 254 631 299 740 q 210 400 210 522 q 267 183 210 265 q 443 100 325 100 m 721 1094 q 678 1101 700 1094 q 618 1124 656 1108 q 539 1149 560 1149 q 506 1136 519 1149 q 492 1101 493 1124 l 401 1101 q 446 1204 413 1168 q 529 1240 479 1240 q 572 1233 550 1240 q 629 1211 593 1226 q 674 1194 651 1201 q 714 1186 697 1186 q 746 1199 733 1186 q 761 1233 758 1211 l 851 1233 q 807 1130 842 1165 q 721 1094 772 1094 m 454 1440 l 893 1440 l 876 1346 l 438 1346 l 454 1440 z "},"Œ":{"ha":1353,"x_min":64,"x_max":1392,"o":"m 961 853 l 911 568 l 1233 568 l 1213 449 l 890 449 l 832 119 l 1253 119 l 1232 0 l 692 0 l 714 124 q 571 18 651 56 q 397 -19 490 -19 q 221 30 296 -19 q 105 172 146 79 q 64 392 64 264 q 132 693 64 556 q 315 911 200 831 q 564 992 429 992 q 728 943 660 992 q 833 807 796 894 l 863 972 l 1392 972 l 1371 853 l 961 853 m 428 100 q 606 167 528 100 q 727 342 685 233 q 769 572 769 450 q 716 790 769 708 q 554 872 663 872 q 374 806 453 872 q 253 631 296 739 q 210 400 210 522 q 264 183 210 265 q 428 100 318 100 z "},"P":{"ha":747,"x_min":39,"x_max":763,"o":"m 210 972 l 478 972 q 692 909 622 972 q 763 711 763 846 q 713 499 763 582 q 585 378 664 415 q 414 340 506 340 l 235 340 l 175 0 l 39 0 l 210 972 m 413 458 q 568 524 513 458 q 624 693 624 590 q 589 813 624 771 q 475 854 554 854 l 326 854 l 256 458 l 413 458 z "},"Þ":{"ha":718,"x_min":28,"x_max":732,"o":"m 200 972 l 336 972 l 297 757 l 485 757 q 669 704 606 757 q 732 554 732 651 q 642 342 732 419 q 399 265 551 265 l 211 265 l 164 0 l 28 0 l 200 972 m 410 383 q 544 422 496 383 q 593 532 593 461 q 558 612 593 585 q 454 639 522 639 l 276 639 l 232 383 l 410 383 z "},"Q":{"ha":985,"x_min":64,"x_max":949,"o":"m 418 -19 q 231 30 311 -19 q 108 172 151 79 q 64 393 64 265 q 135 698 64 561 q 328 913 207 835 q 590 992 449 992 q 782 942 701 992 q 906 800 863 892 q 949 583 949 708 q 911 369 949 472 q 792 154 874 267 l 856 86 l 768 4 l 699 79 q 418 -19 565 -19 m 444 100 q 619 156 549 100 l 515 272 l 603 357 l 707 239 q 785 386 758 317 q 811 561 811 456 q 751 790 811 708 q 571 872 690 872 q 380 806 463 872 q 253 630 297 739 q 210 397 210 521 q 267 181 210 261 q 444 100 325 100 z "},"R":{"ha":785,"x_min":39,"x_max":765,"o":"m 210 972 l 481 972 q 694 909 622 972 q 765 726 765 846 q 706 526 765 608 q 553 414 646 444 l 682 0 l 542 0 l 419 379 l 242 379 l 175 0 l 39 0 l 210 972 m 431 507 q 571 560 517 507 q 625 717 625 614 q 590 828 625 792 q 475 865 556 865 l 328 865 l 264 507 l 431 507 z "},"Ŕ":{"ha":785,"x_min":39,"x_max":765,"o":"m 210 972 l 481 972 q 694 909 622 972 q 765 726 765 846 q 706 526 765 608 q 553 414 646 444 l 682 0 l 542 0 l 419 379 l 242 379 l 175 0 l 39 0 l 210 972 m 431 507 q 571 560 517 507 q 625 717 625 614 q 590 828 625 792 q 475 865 556 865 l 328 865 l 264 507 l 431 507 m 443 1150 l 681 1282 l 661 1142 l 432 1061 l 443 1150 z "},"Ř":{"ha":785,"x_min":39,"x_max":765,"o":"m 210 972 l 481 972 q 694 909 622 972 q 765 726 765 846 q 706 526 765 608 q 553 414 646 444 l 682 0 l 542 0 l 419 379 l 242 379 l 175 0 l 39 0 l 210 972 m 431 507 q 571 560 517 507 q 625 717 625 614 q 590 828 625 792 q 475 865 556 865 l 328 865 l 264 507 l 431 507 m 376 1171 l 390 1256 l 551 1164 l 718 1250 l 706 1160 l 531 1046 l 376 1171 z "},"Ŗ":{"ha":785,"x_min":39,"x_max":765,"o":"m 210 972 l 481 972 q 694 909 622 972 q 765 726 765 846 q 706 526 765 608 q 553 414 646 444 l 682 0 l 542 0 l 419 379 l 242 379 l 175 0 l 39 0 l 210 972 m 431 507 q 571 560 517 507 q 625 717 625 614 q 590 828 625 792 q 475 865 556 865 l 328 865 l 264 507 l 431 507 m 244 -364 l 306 -246 l 256 -246 l 276 -126 l 410 -126 l 389 -246 l 296 -364 l 244 -364 z "},"Ȑ":{"ha":785,"x_min":39,"x_max":765,"o":"m 210 972 l 481 972 q 694 909 622 972 q 765 726 765 846 q 706 526 765 608 q 553 414 646 444 l 682 0 l 542 0 l 419 379 l 242 379 l 175 0 l 39 0 l 210 972 m 431 507 q 571 560 517 507 q 625 717 625 614 q 590 828 625 792 q 475 865 556 865 l 328 865 l 264 507 l 431 507 m 404 1094 l 308 1299 l 442 1299 l 493 1094 l 404 1094 m 596 1094 l 507 1299 l 640 1299 l 685 1094 l 596 1094 z "},"Ṛ":{"ha":785,"x_min":39,"x_max":765,"o":"m 210 972 l 481 972 q 694 909 622 972 q 765 726 765 846 q 706 526 765 608 q 553 414 646 444 l 682 0 l 542 0 l 419 379 l 242 379 l 175 0 l 39 0 l 210 972 m 431 507 q 571 560 517 507 q 625 717 625 614 q 590 828 625 792 q 475 865 556 865 l 328 865 l 264 507 l 431 507 m 275 -112 l 403 -112 l 378 -237 l 250 -237 l 275 -112 z "},"Ȓ":{"ha":785,"x_min":39,"x_max":765,"o":"m 210 972 l 481 972 q 694 909 622 972 q 765 726 765 846 q 706 526 765 608 q 553 414 646 444 l 682 0 l 542 0 l 419 379 l 242 379 l 175 0 l 39 0 l 210 972 m 431 507 q 571 560 517 507 q 625 717 625 614 q 590 828 625 792 q 475 865 556 865 l 328 865 l 264 507 l 431 507 m 572 1249 q 701 1210 658 1249 q 744 1111 744 1171 q 742 1082 744 1101 l 631 1082 q 632 1099 632 1089 q 611 1146 632 1129 q 557 1163 590 1163 q 489 1142 518 1163 q 453 1082 460 1121 l 342 1082 q 415 1200 354 1151 q 572 1249 475 1249 z "},"Ṟ":{"ha":785,"x_min":39,"x_max":765,"o":"m 210 972 l 481 972 q 694 909 622 972 q 765 726 765 846 q 706 526 765 608 q 553 414 646 444 l 682 0 l 542 0 l 419 379 l 242 379 l 175 0 l 39 0 l 210 972 m 431 507 q 571 560 517 507 q 625 717 625 614 q 590 828 625 792 q 475 865 556 865 l 328 865 l 264 507 l 431 507 m 124 -126 l 557 -126 l 538 -225 l 104 -225 l 124 -126 z "},"S":{"ha":747,"x_min":8,"x_max":742,"o":"m 283 -19 q 120 -1 193 -19 q 8 43 47 17 l 53 197 q 304 100 165 100 q 465 142 400 100 q 529 267 529 185 q 506 347 529 315 q 445 399 482 379 q 343 446 408 419 q 219 501 261 479 q 142 565 176 522 q 108 674 108 607 q 147 817 108 743 q 268 941 185 890 q 478 992 351 992 q 625 972 557 992 q 742 925 693 953 l 704 785 q 590 851 644 829 q 468 872 535 872 q 369 855 418 872 q 287 801 319 838 q 254 713 254 765 q 292 628 254 658 q 413 567 329 599 q 556 505 508 529 q 641 430 604 481 q 678 296 678 379 q 640 144 678 215 q 513 26 601 72 q 283 -19 425 -19 z "},"Ś":{"ha":747,"x_min":8,"x_max":742,"o":"m 283 -19 q 120 -1 193 -19 q 8 43 47 17 l 53 197 q 304 100 165 100 q 465 142 400 100 q 529 267 529 185 q 506 347 529 315 q 445 399 482 379 q 343 446 408 419 q 219 501 261 479 q 142 565 176 522 q 108 674 108 607 q 147 817 108 743 q 268 941 185 890 q 478 992 351 992 q 625 972 557 992 q 742 925 693 953 l 704 785 q 590 851 644 829 q 468 872 535 872 q 369 855 418 872 q 287 801 319 838 q 254 713 254 765 q 292 628 254 658 q 413 567 329 599 q 556 505 508 529 q 641 430 604 481 q 678 296 678 379 q 640 144 678 215 q 513 26 601 72 q 283 -19 425 -19 m 394 1150 l 632 1282 l 613 1142 l 383 1061 l 394 1150 z "},"Ṥ":{"ha":747,"x_min":8,"x_max":742,"o":"m 283 -19 q 120 -1 193 -19 q 8 43 47 17 l 53 197 q 304 100 165 100 q 465 142 400 100 q 529 267 529 185 q 506 347 529 315 q 445 399 482 379 q 343 446 408 419 q 219 501 261 479 q 142 565 176 522 q 108 674 108 607 q 147 817 108 743 q 268 941 185 890 q 478 992 351 992 q 625 972 557 992 q 742 925 693 953 l 704 785 q 590 851 644 829 q 468 872 535 872 q 369 855 418 872 q 287 801 319 838 q 254 713 254 765 q 292 628 254 658 q 413 567 329 599 q 556 505 508 529 q 641 430 604 481 q 678 296 678 379 q 640 144 678 215 q 513 26 601 72 q 283 -19 425 -19 m 394 1150 l 632 1282 l 613 1142 l 383 1061 l 394 1150 m 501 1476 l 632 1476 l 610 1351 l 479 1351 l 501 1476 z "},"Š":{"ha":747,"x_min":8,"x_max":742,"o":"m 283 -19 q 120 -1 193 -19 q 8 43 47 17 l 53 197 q 304 100 165 100 q 465 142 400 100 q 529 267 529 185 q 506 347 529 315 q 445 399 482 379 q 343 446 408 419 q 219 501 261 479 q 142 565 176 522 q 108 674 108 607 q 147 817 108 743 q 268 941 185 890 q 478 992 351 992 q 625 972 557 992 q 742 925 693 953 l 704 785 q 590 851 644 829 q 468 872 535 872 q 369 855 418 872 q 287 801 319 838 q 254 713 254 765 q 292 628 254 658 q 413 567 329 599 q 556 505 508 529 q 641 430 604 481 q 678 296 678 379 q 640 144 678 215 q 513 26 601 72 q 283 -19 425 -19 m 346 1219 l 363 1304 l 517 1193 l 706 1304 l 689 1200 l 492 1067 l 346 1219 z "},"Ṧ":{"ha":747,"x_min":8,"x_max":742,"o":"m 283 -19 q 120 -1 193 -19 q 8 43 47 17 l 53 197 q 304 100 165 100 q 465 142 400 100 q 529 267 529 185 q 506 347 529 315 q 445 399 482 379 q 343 446 408 419 q 219 501 261 479 q 142 565 176 522 q 108 674 108 607 q 147 817 108 743 q 268 941 185 890 q 478 992 351 992 q 625 972 557 992 q 742 925 693 953 l 704 785 q 590 851 644 829 q 468 872 535 872 q 369 855 418 872 q 287 801 319 838 q 254 713 254 765 q 292 628 254 658 q 413 567 329 599 q 556 505 508 529 q 641 430 604 481 q 678 296 678 379 q 640 144 678 215 q 513 26 601 72 q 283 -19 425 -19 m 328 1171 l 342 1256 l 503 1164 l 669 1250 l 657 1160 l 482 1046 l 328 1171 m 492 1429 l 622 1429 l 600 1304 l 469 1304 l 492 1429 z "},"Ş":{"ha":747,"x_min":8,"x_max":742,"o":"m 468 872 q 369 855 418 872 q 287 801 319 838 q 254 713 254 765 q 292 628 254 658 q 413 567 329 599 q 556 505 508 529 q 641 430 604 481 q 678 296 678 379 q 601 90 678 179 q 353 -17 524 0 l 324 -75 l 335 -75 q 411 -99 383 -75 q 439 -167 439 -124 q 390 -272 439 -231 q 267 -314 340 -314 q 163 -287 207 -314 l 196 -219 q 279 -243 235 -243 q 336 -226 315 -243 q 357 -182 357 -208 q 296 -135 357 -135 q 229 -146 263 -135 l 283 -19 q 120 -1 193 -19 q 8 43 47 17 l 53 197 q 304 100 165 100 q 465 142 400 100 q 529 267 529 185 q 506 347 529 315 q 445 399 482 379 q 343 446 408 419 q 219 501 261 479 q 142 565 176 522 q 108 674 108 607 q 147 817 108 743 q 268 941 185 890 q 478 992 351 992 q 625 972 557 992 q 742 925 693 953 l 704 785 q 590 851 644 829 q 468 872 535 872 z "},"Ŝ":{"ha":747,"x_min":8,"x_max":742,"o":"m 283 -19 q 120 -1 193 -19 q 8 43 47 17 l 53 197 q 304 100 165 100 q 465 142 400 100 q 529 267 529 185 q 506 347 529 315 q 445 399 482 379 q 343 446 408 419 q 219 501 261 479 q 142 565 176 522 q 108 674 108 607 q 147 817 108 743 q 268 941 185 890 q 478 992 351 992 q 625 972 557 992 q 742 925 693 953 l 704 785 q 590 851 644 829 q 468 872 535 872 q 369 855 418 872 q 287 801 319 838 q 254 713 254 765 q 292 628 254 658 q 413 567 329 599 q 556 505 508 529 q 641 430 604 481 q 678 296 678 379 q 640 144 678 215 q 513 26 601 72 q 283 -19 425 -19 m 678 1131 l 664 1046 l 503 1138 l 343 1063 l 357 1147 l 524 1256 l 678 1131 z "},"Ș":{"ha":747,"x_min":8,"x_max":742,"o":"m 283 -19 q 120 -1 193 -19 q 8 43 47 17 l 53 197 q 304 100 165 100 q 465 142 400 100 q 529 267 529 185 q 506 347 529 315 q 445 399 482 379 q 343 446 408 419 q 219 501 261 479 q 142 565 176 522 q 108 674 108 607 q 147 817 108 743 q 268 941 185 890 q 478 992 351 992 q 625 972 557 992 q 742 925 693 953 l 704 785 q 590 851 644 829 q 468 872 535 872 q 369 855 418 872 q 287 801 319 838 q 254 713 254 765 q 292 628 254 658 q 413 567 329 599 q 556 505 508 529 q 641 430 604 481 q 678 296 678 379 q 640 144 678 215 q 513 26 601 72 q 283 -19 425 -19 m 208 -364 l 269 -246 l 219 -246 l 240 -126 l 374 -126 l 353 -246 l 260 -364 l 208 -364 z "},"Ṡ":{"ha":747,"x_min":8,"x_max":742,"o":"m 283 -19 q 120 -1 193 -19 q 8 43 47 17 l 53 197 q 304 100 165 100 q 465 142 400 100 q 529 267 529 185 q 506 347 529 315 q 445 399 482 379 q 343 446 408 419 q 219 501 261 479 q 142 565 176 522 q 108 674 108 607 q 147 817 108 743 q 268 941 185 890 q 478 992 351 992 q 625 972 557 992 q 742 925 693 953 l 704 785 q 590 851 644 829 q 468 872 535 872 q 369 855 418 872 q 287 801 319 838 q 254 713 254 765 q 292 628 254 658 q 413 567 329 599 q 556 505 508 529 q 641 430 604 481 q 678 296 678 379 q 640 144 678 215 q 513 26 601 72 q 283 -19 425 -19 m 453 1224 l 583 1224 l 561 1099 l 431 1099 l 453 1224 z "},"Ṣ":{"ha":747,"x_min":8,"x_max":742,"o":"m 283 -19 q 120 -1 193 -19 q 8 43 47 17 l 53 197 q 304 100 165 100 q 465 142 400 100 q 529 267 529 185 q 506 347 529 315 q 445 399 482 379 q 343 446 408 419 q 219 501 261 479 q 142 565 176 522 q 108 674 108 607 q 147 817 108 743 q 268 941 185 890 q 478 992 351 992 q 625 972 557 992 q 742 925 693 953 l 704 785 q 590 851 644 829 q 468 872 535 872 q 369 855 418 872 q 287 801 319 838 q 254 713 254 765 q 292 628 254 658 q 413 567 329 599 q 556 505 508 529 q 641 430 604 481 q 678 296 678 379 q 640 144 678 215 q 513 26 601 72 q 283 -19 425 -19 m 239 -112 l 367 -112 l 342 -237 l 214 -237 l 239 -112 z "},"Ṩ":{"ha":747,"x_min":8,"x_max":742,"o":"m 283 -19 q 120 -1 193 -19 q 8 43 47 17 l 53 197 q 304 100 165 100 q 465 142 400 100 q 529 267 529 185 q 506 347 529 315 q 445 399 482 379 q 343 446 408 419 q 219 501 261 479 q 142 565 176 522 q 108 674 108 607 q 147 817 108 743 q 268 941 185 890 q 478 992 351 992 q 625 972 557 992 q 742 925 693 953 l 704 785 q 590 851 644 829 q 468 872 535 872 q 369 855 418 872 q 287 801 319 838 q 254 713 254 765 q 292 628 254 658 q 413 567 329 599 q 556 505 508 529 q 641 430 604 481 q 678 296 678 379 q 640 144 678 215 q 513 26 601 72 q 283 -19 425 -19 m 453 1224 l 583 1224 l 561 1099 l 431 1099 l 453 1224 m 239 -112 l 367 -112 l 342 -237 l 214 -237 l 239 -112 z "},"ẞ":{"ha":800,"x_min":33,"x_max":786,"o":"m 764 815 l 557 550 q 694 465 644 528 q 743 307 743 401 q 699 140 743 214 q 577 23 656 65 q 397 -19 499 -19 q 272 0 336 -19 l 296 118 q 400 100 346 100 q 545 154 492 100 q 599 297 599 208 q 552 415 599 374 q 421 463 506 456 l 401 464 l 419 561 l 649 851 q 521 872 594 872 q 364 824 426 872 q 285 676 301 775 l 165 0 l 33 0 l 153 674 q 278 913 181 835 q 521 992 375 992 q 665 972 597 992 q 786 921 732 953 l 764 815 z "},"Ə":{"ha":926,"x_min":39,"x_max":892,"o":"m 526 992 q 796 888 700 992 q 892 600 892 785 q 824 292 892 435 q 636 65 756 150 q 367 -19 517 -19 q 128 65 217 -19 q 39 301 39 150 q 49 397 39 344 q 72 488 58 450 l 740 488 q 747 585 747 540 q 681 797 747 722 q 490 872 615 872 q 188 807 360 872 l 182 918 q 526 992 350 992 m 392 100 q 589 174 506 100 q 714 371 672 249 l 188 371 q 181 301 181 329 q 234 153 182 206 q 392 100 286 100 z "},"T":{"ha":726,"x_min":121,"x_max":779,"o":"m 374 853 l 121 853 l 142 972 l 779 972 l 758 853 l 506 853 l 356 0 l 224 0 l 374 853 z "},"Ŧ":{"ha":726,"x_min":121,"x_max":779,"o":"m 506 853 l 450 540 l 618 540 l 603 454 l 436 454 l 356 0 l 224 0 l 304 454 l 136 454 l 151 540 l 318 540 l 374 853 l 121 853 l 142 972 l 779 972 l 758 853 l 506 853 z "},"Ť":{"ha":726,"x_min":121,"x_max":779,"o":"m 374 853 l 121 853 l 142 972 l 779 972 l 758 853 l 506 853 l 356 0 l 224 0 l 374 853 m 315 1171 l 329 1256 l 490 1164 l 657 1250 l 644 1160 l 469 1046 l 315 1171 z "},"Ţ":{"ha":726,"x_min":121,"x_max":779,"o":"m 374 853 l 121 853 l 142 972 l 779 972 l 758 853 l 506 853 l 356 0 l 224 0 l 374 853 m 303 -75 q 379 -99 351 -75 q 407 -167 407 -124 q 358 -272 407 -231 q 235 -314 308 -314 q 131 -287 175 -314 l 164 -219 q 247 -243 203 -243 q 304 -226 283 -243 q 325 -182 325 -208 q 264 -135 325 -135 q 197 -146 231 -135 l 260 0 l 329 0 l 292 -75 l 303 -75 z "},"Ț":{"ha":726,"x_min":121,"x_max":779,"o":"m 374 853 l 121 853 l 142 972 l 779 972 l 758 853 l 506 853 l 356 0 l 224 0 l 374 853 m 176 -364 l 238 -246 l 188 -246 l 208 -126 l 342 -126 l 321 -246 l 228 -364 l 176 -364 z "},"Ṭ":{"ha":726,"x_min":121,"x_max":779,"o":"m 374 853 l 121 853 l 142 972 l 779 972 l 758 853 l 506 853 l 356 0 l 224 0 l 374 853 m 207 -112 l 335 -112 l 310 -237 l 182 -237 l 207 -112 z "},"Ṯ":{"ha":726,"x_min":36,"x_max":779,"o":"m 374 853 l 121 853 l 142 972 l 779 972 l 758 853 l 506 853 l 356 0 l 224 0 l 374 853 m 56 -126 l 489 -126 l 469 -225 l 36 -225 l 56 -126 z "},"U":{"ha":928,"x_min":90,"x_max":926,"o":"m 389 -19 q 165 59 239 -19 q 90 283 90 138 q 103 413 90 344 l 201 972 l 333 972 l 246 476 q 229 318 229 383 q 271 158 229 217 q 410 100 313 100 q 610 203 543 100 q 707 476 676 306 l 794 972 l 926 972 l 828 413 q 681 94 792 207 q 389 -19 569 -19 z "},"Ú":{"ha":928,"x_min":90,"x_max":926,"o":"m 389 -19 q 165 59 239 -19 q 90 283 90 138 q 103 413 90 344 l 201 972 l 333 972 l 246 476 q 229 318 229 383 q 271 158 229 217 q 410 100 313 100 q 610 203 543 100 q 707 476 676 306 l 794 972 l 926 972 l 828 413 q 681 94 792 207 q 389 -19 569 -19 m 494 1185 l 749 1329 l 725 1175 l 478 1090 l 494 1185 z "},"Ŭ":{"ha":928,"x_min":90,"x_max":926,"o":"m 389 -19 q 165 59 239 -19 q 90 283 90 138 q 103 413 90 344 l 201 972 l 333 972 l 246 476 q 229 318 229 383 q 271 158 229 217 q 410 100 313 100 q 610 203 543 100 q 707 476 676 306 l 794 972 l 926 972 l 828 413 q 681 94 792 207 q 389 -19 569 -19 m 589 1061 q 456 1099 500 1061 q 411 1197 411 1138 q 414 1228 411 1208 l 525 1228 q 524 1211 524 1222 q 545 1164 524 1181 q 601 1147 567 1147 q 672 1168 642 1147 q 708 1228 701 1189 l 819 1228 q 748 1106 807 1151 q 589 1061 689 1061 z "},"Û":{"ha":928,"x_min":90,"x_max":926,"o":"m 389 -19 q 165 59 239 -19 q 90 283 90 138 q 103 413 90 344 l 201 972 l 333 972 l 246 476 q 229 318 229 383 q 271 158 229 217 q 410 100 313 100 q 610 203 543 100 q 707 476 676 306 l 794 972 l 926 972 l 828 413 q 681 94 792 207 q 389 -19 569 -19 m 460 1178 l 638 1313 l 783 1160 l 767 1075 l 613 1186 l 439 1089 l 460 1178 z "},"Ȕ":{"ha":928,"x_min":90,"x_max":926,"o":"m 389 -19 q 165 59 239 -19 q 90 283 90 138 q 103 413 90 344 l 201 972 l 333 972 l 246 476 q 229 318 229 383 q 271 158 229 217 q 410 100 313 100 q 610 203 543 100 q 707 476 676 306 l 794 972 l 926 972 l 828 413 q 681 94 792 207 q 389 -19 569 -19 m 453 1094 l 357 1299 l 490 1299 l 542 1094 l 453 1094 m 644 1094 l 556 1299 l 689 1299 l 733 1094 l 644 1094 z "},"Ü":{"ha":928,"x_min":90,"x_max":926,"o":"m 389 -19 q 165 59 239 -19 q 90 283 90 138 q 103 413 90 344 l 201 972 l 333 972 l 246 476 q 229 318 229 383 q 271 158 229 217 q 410 100 313 100 q 610 203 543 100 q 707 476 676 306 l 794 972 l 926 972 l 828 413 q 681 94 792 207 q 389 -19 569 -19 m 432 1224 l 549 1224 l 526 1113 l 410 1113 l 432 1224 m 690 1224 l 807 1224 l 785 1113 l 668 1113 l 690 1224 z "},"Ụ":{"ha":928,"x_min":90,"x_max":926,"o":"m 389 -19 q 165 59 239 -19 q 90 283 90 138 q 103 413 90 344 l 201 972 l 333 972 l 246 476 q 229 318 229 383 q 271 158 229 217 q 410 100 313 100 q 610 203 543 100 q 707 476 676 306 l 794 972 l 926 972 l 828 413 q 681 94 792 207 q 389 -19 569 -19 m 307 -112 l 435 -112 l 410 -237 l 282 -237 l 307 -112 z "},"Ù":{"ha":928,"x_min":90,"x_max":926,"o":"m 389 -19 q 165 59 239 -19 q 90 283 90 138 q 103 413 90 344 l 201 972 l 333 972 l 246 476 q 229 318 229 383 q 271 158 229 217 q 410 100 313 100 q 610 203 543 100 q 707 476 676 306 l 794 972 l 926 972 l 828 413 q 681 94 792 207 q 389 -19 569 -19 m 485 1188 l 508 1324 l 729 1176 l 714 1092 l 485 1188 z "},"Ủ":{"ha":928,"x_min":90,"x_max":926,"o":"m 389 -19 q 165 59 239 -19 q 90 283 90 138 q 103 413 90 344 l 201 972 l 333 972 l 246 476 q 229 318 229 383 q 271 158 229 217 q 410 100 313 100 q 610 203 543 100 q 707 476 676 306 l 794 972 l 926 972 l 828 413 q 681 94 792 207 q 389 -19 569 -19 m 563 1067 q 625 1124 607 1103 q 643 1172 643 1144 q 594 1210 643 1210 q 503 1183 558 1210 l 492 1254 q 608 1281 547 1281 q 693 1256 661 1281 q 726 1188 725 1232 q 694 1099 726 1138 q 601 1021 663 1060 l 563 1067 z "},"Ư":{"ha":928,"x_min":90,"x_max":1096,"o":"m 1096 1075 q 1034 955 1082 1003 q 913 889 986 907 l 828 413 q 681 94 792 207 q 389 -19 569 -19 q 165 59 239 -19 q 90 283 90 138 q 103 413 90 344 l 201 972 l 333 972 l 246 476 q 229 318 229 383 q 271 158 229 217 q 410 100 313 100 q 610 203 543 100 q 707 476 676 306 l 794 972 l 847 972 q 976 1075 957 972 l 1096 1075 z "},"Ứ":{"ha":928,"x_min":90,"x_max":1096,"o":"m 1096 1075 q 1034 955 1082 1003 q 913 889 986 907 l 828 413 q 681 94 792 207 q 389 -19 569 -19 q 165 59 239 -19 q 90 283 90 138 q 103 413 90 344 l 201 972 l 333 972 l 246 476 q 229 318 229 383 q 271 158 229 217 q 410 100 313 100 q 610 203 543 100 q 707 476 676 306 l 794 972 l 847 972 q 976 1075 957 972 l 1096 1075 m 494 1185 l 749 1329 l 725 1175 l 478 1090 l 494 1185 z "},"Ự":{"ha":928,"x_min":90,"x_max":1096,"o":"m 1096 1075 q 1034 955 1082 1003 q 913 889 986 907 l 828 413 q 681 94 792 207 q 389 -19 569 -19 q 165 59 239 -19 q 90 283 90 138 q 103 413 90 344 l 201 972 l 333 972 l 246 476 q 229 318 229 383 q 271 158 229 217 q 410 100 313 100 q 610 203 543 100 q 707 476 676 306 l 794 972 l 847 972 q 976 1075 957 972 l 1096 1075 m 307 -112 l 435 -112 l 410 -237 l 282 -237 l 307 -112 z "},"Ừ":{"ha":928,"x_min":90,"x_max":1096,"o":"m 1096 1075 q 1034 955 1082 1003 q 913 889 986 907 l 828 413 q 681 94 792 207 q 389 -19 569 -19 q 165 59 239 -19 q 90 283 90 138 q 103 413 90 344 l 201 972 l 333 972 l 246 476 q 229 318 229 383 q 271 158 229 217 q 410 100 313 100 q 610 203 543 100 q 707 476 676 306 l 794 972 l 847 972 q 976 1075 957 972 l 1096 1075 m 485 1188 l 508 1324 l 729 1176 l 714 1092 l 485 1188 z "},"Ử":{"ha":928,"x_min":90,"x_max":1096,"o":"m 1096 1075 q 1034 955 1082 1003 q 913 889 986 907 l 828 413 q 681 94 792 207 q 389 -19 569 -19 q 165 59 239 -19 q 90 283 90 138 q 103 413 90 344 l 201 972 l 333 972 l 246 476 q 229 318 229 383 q 271 158 229 217 q 410 100 313 100 q 610 203 543 100 q 707 476 676 306 l 794 972 l 847 972 q 976 1075 957 972 l 1096 1075 m 563 1067 q 625 1124 607 1103 q 643 1172 643 1144 q 594 1210 643 1210 q 503 1183 558 1210 l 492 1254 q 608 1281 547 1281 q 693 1256 661 1281 q 726 1188 725 1232 q 694 1099 726 1138 q 601 1021 663 1060 l 563 1067 z "},"Ữ":{"ha":928,"x_min":90,"x_max":1096,"o":"m 1096 1075 q 1034 955 1082 1003 q 913 889 986 907 l 828 413 q 681 94 792 207 q 389 -19 569 -19 q 165 59 239 -19 q 90 283 90 138 q 103 413 90 344 l 201 972 l 333 972 l 246 476 q 229 318 229 383 q 271 158 229 217 q 410 100 313 100 q 610 203 543 100 q 707 476 676 306 l 794 972 l 847 972 q 976 1075 957 972 l 1096 1075 m 704 1097 q 663 1106 683 1097 q 610 1129 642 1114 q 563 1151 582 1143 q 529 1158 544 1158 q 476 1108 488 1158 l 376 1108 q 522 1263 413 1263 q 564 1255 544 1263 q 613 1231 583 1247 q 656 1209 638 1217 q 693 1201 674 1201 q 746 1256 736 1201 l 846 1256 q 793 1135 828 1174 q 704 1097 758 1097 z "},"Ű":{"ha":928,"x_min":90,"x_max":926,"o":"m 389 -19 q 165 59 239 -19 q 90 283 90 138 q 103 413 90 344 l 201 972 l 333 972 l 246 476 q 229 318 229 383 q 271 158 229 217 q 410 100 313 100 q 610 203 543 100 q 707 476 676 306 l 794 972 l 926 972 l 828 413 q 681 94 792 207 q 389 -19 569 -19 m 564 1299 l 697 1299 l 539 1094 l 450 1094 l 564 1299 m 763 1299 l 896 1299 l 731 1094 l 642 1094 l 763 1299 z "},"Ȗ":{"ha":928,"x_min":90,"x_max":926,"o":"m 389 -19 q 165 59 239 -19 q 90 283 90 138 q 103 413 90 344 l 201 972 l 333 972 l 246 476 q 229 318 229 383 q 271 158 229 217 q 410 100 313 100 q 610 203 543 100 q 707 476 676 306 l 794 972 l 926 972 l 828 413 q 681 94 792 207 q 389 -19 569 -19 m 621 1249 q 750 1210 707 1249 q 793 1111 793 1171 q 790 1082 793 1101 l 679 1082 q 681 1099 681 1089 q 660 1146 681 1129 q 606 1163 639 1163 q 538 1142 567 1163 q 501 1082 508 1121 l 390 1082 q 463 1200 403 1151 q 621 1249 524 1249 z "},"Ū":{"ha":928,"x_min":90,"x_max":926,"o":"m 389 -19 q 165 59 239 -19 q 90 283 90 138 q 103 413 90 344 l 201 972 l 333 972 l 246 476 q 229 318 229 383 q 271 158 229 217 q 410 100 313 100 q 610 203 543 100 q 707 476 676 306 l 794 972 l 926 972 l 828 413 q 681 94 792 207 q 389 -19 569 -19 m 390 1196 l 829 1196 l 813 1101 l 374 1101 l 390 1196 z "},"Ṻ":{"ha":928,"x_min":90,"x_max":926,"o":"m 389 -19 q 165 59 239 -19 q 90 283 90 138 q 103 413 90 344 l 201 972 l 333 972 l 246 476 q 229 318 229 383 q 271 158 229 217 q 410 100 313 100 q 610 203 543 100 q 707 476 676 306 l 794 972 l 926 972 l 828 413 q 681 94 792 207 q 389 -19 569 -19 m 390 1196 l 829 1196 l 813 1101 l 374 1101 l 390 1196 m 478 1418 l 594 1418 l 575 1314 l 458 1314 l 478 1418 m 733 1418 l 850 1418 l 831 1314 l 714 1314 l 733 1418 z "},"Ų":{"ha":928,"x_min":90,"x_max":926,"o":"m 926 972 l 828 413 q 716 135 799 243 q 501 -7 633 26 q 410 -85 443 -47 q 376 -165 376 -122 q 390 -205 376 -192 q 428 -218 404 -218 q 511 -194 468 -218 l 519 -262 q 408 -289 469 -289 q 324 -264 357 -289 q 290 -193 292 -239 q 323 -99 290 -146 q 406 -19 356 -53 l 389 -19 q 165 59 239 -19 q 90 283 90 138 q 103 413 90 344 l 201 972 l 333 972 l 246 476 q 229 318 229 383 q 271 158 229 217 q 410 100 313 100 q 610 203 543 100 q 707 476 676 306 l 794 972 l 926 972 z "},"Ů":{"ha":928,"x_min":90,"x_max":926,"o":"m 389 -19 q 165 59 239 -19 q 90 283 90 138 q 103 413 90 344 l 201 972 l 333 972 l 246 476 q 229 318 229 383 q 271 158 229 217 q 410 100 313 100 q 610 203 543 100 q 707 476 676 306 l 794 972 l 926 972 l 828 413 q 681 94 792 207 q 389 -19 569 -19 m 588 1050 q 498 1081 529 1050 q 467 1161 467 1113 q 515 1274 467 1226 q 629 1322 563 1322 q 719 1290 688 1322 q 750 1211 750 1258 q 703 1097 750 1144 q 588 1050 656 1050 m 594 1111 q 654 1138 629 1111 q 679 1201 679 1164 q 663 1244 679 1228 q 622 1261 647 1261 q 563 1234 589 1261 q 538 1172 538 1207 q 553 1128 538 1144 q 594 1111 569 1111 z "},"Ũ":{"ha":928,"x_min":90,"x_max":926,"o":"m 389 -19 q 165 59 239 -19 q 90 283 90 138 q 103 413 90 344 l 201 972 l 333 972 l 246 476 q 229 318 229 383 q 271 158 229 217 q 410 100 313 100 q 610 203 543 100 q 707 476 676 306 l 794 972 l 926 972 l 828 413 q 681 94 792 207 q 389 -19 569 -19 m 704 1097 q 663 1106 683 1097 q 610 1129 642 1114 q 563 1151 582 1143 q 529 1158 544 1158 q 476 1108 488 1158 l 376 1108 q 522 1263 413 1263 q 564 1255 544 1263 q 613 1231 583 1247 q 656 1209 638 1217 q 693 1201 674 1201 q 746 1256 736 1201 l 846 1256 q 793 1135 828 1174 q 704 1097 758 1097 z "},"Ṹ":{"ha":928,"x_min":90,"x_max":926,"o":"m 389 -19 q 165 59 239 -19 q 90 283 90 138 q 103 413 90 344 l 201 972 l 333 972 l 246 476 q 229 318 229 383 q 271 158 229 217 q 410 100 313 100 q 610 203 543 100 q 707 476 676 306 l 794 972 l 926 972 l 828 413 q 681 94 792 207 q 389 -19 569 -19 m 700 1094 q 657 1101 679 1094 q 597 1124 635 1108 q 518 1149 539 1149 q 485 1136 499 1149 q 471 1101 472 1124 l 381 1101 q 425 1204 392 1168 q 508 1240 458 1240 q 551 1233 529 1240 q 608 1211 572 1226 q 653 1194 631 1201 q 693 1186 676 1186 q 725 1199 713 1186 q 740 1233 738 1211 l 831 1233 q 786 1130 821 1165 q 700 1094 751 1094 m 535 1394 l 772 1526 l 753 1386 l 524 1306 l 535 1394 z "},"V":{"ha":826,"x_min":104,"x_max":907,"o":"m 104 972 l 243 972 l 363 160 l 768 972 l 907 972 l 408 0 l 261 0 l 104 972 z "},"W":{"ha":1235,"x_min":129,"x_max":1313,"o":"m 129 972 l 268 972 l 306 164 l 649 953 l 786 953 l 844 165 l 1175 972 l 1313 972 l 885 0 l 751 0 l 689 797 l 340 0 l 203 0 l 129 972 z "},"Ẃ":{"ha":1235,"x_min":129,"x_max":1313,"o":"m 129 972 l 268 972 l 306 164 l 649 953 l 786 953 l 844 165 l 1175 972 l 1313 972 l 885 0 l 751 0 l 689 797 l 340 0 l 203 0 l 129 972 m 639 1150 l 876 1282 l 857 1142 l 628 1061 l 639 1150 z "},"Ŵ":{"ha":1235,"x_min":129,"x_max":1313,"o":"m 129 972 l 268 972 l 306 164 l 649 953 l 786 953 l 844 165 l 1175 972 l 1313 972 l 885 0 l 751 0 l 689 797 l 340 0 l 203 0 l 129 972 m 922 1131 l 908 1046 l 747 1138 l 588 1063 l 601 1147 l 768 1256 l 922 1131 z "},"Ẅ":{"ha":1235,"x_min":129,"x_max":1313,"o":"m 129 972 l 268 972 l 306 164 l 649 953 l 786 953 l 844 165 l 1175 972 l 1313 972 l 885 0 l 751 0 l 689 797 l 340 0 l 203 0 l 129 972 m 574 1207 l 690 1207 l 671 1103 l 554 1103 l 574 1207 m 829 1207 l 946 1207 l 926 1103 l 810 1103 l 829 1207 z "},"Ẁ":{"ha":1235,"x_min":129,"x_max":1313,"o":"m 129 972 l 268 972 l 306 164 l 649 953 l 786 953 l 844 165 l 1175 972 l 1313 972 l 885 0 l 751 0 l 689 797 l 340 0 l 203 0 l 129 972 m 625 1142 l 649 1274 l 871 1142 l 856 1061 l 625 1142 z "},"X":{"ha":781,"x_min":-54,"x_max":860,"o":"m 322 496 l 122 972 l 275 972 l 425 586 l 717 972 l 860 972 l 474 494 l 694 0 l 551 0 l 382 399 l 90 0 l -54 0 l 322 496 z "},"Y":{"ha":758,"x_min":108,"x_max":839,"o":"m 314 449 l 108 972 l 247 972 l 406 568 l 700 972 l 839 972 l 450 449 l 371 0 l 235 0 l 314 449 z "},"Ý":{"ha":758,"x_min":108,"x_max":839,"o":"m 314 449 l 108 972 l 247 972 l 406 568 l 700 972 l 839 972 l 450 449 l 371 0 l 235 0 l 314 449 m 397 1185 l 651 1329 l 628 1175 l 381 1090 l 397 1185 z "},"Ŷ":{"ha":758,"x_min":108,"x_max":839,"o":"m 314 449 l 108 972 l 247 972 l 406 568 l 700 972 l 839 972 l 450 449 l 371 0 l 235 0 l 314 449 m 678 1131 l 664 1046 l 503 1138 l 343 1063 l 357 1147 l 524 1256 l 678 1131 z "},"Ÿ":{"ha":758,"x_min":108,"x_max":839,"o":"m 314 449 l 108 972 l 247 972 l 406 568 l 700 972 l 839 972 l 450 449 l 371 0 l 235 0 l 314 449 m 335 1224 l 451 1224 l 429 1113 l 313 1113 l 335 1224 m 593 1224 l 710 1224 l 688 1113 l 571 1113 l 593 1224 z "},"Ẏ":{"ha":758,"x_min":108,"x_max":839,"o":"m 314 449 l 108 972 l 247 972 l 406 568 l 700 972 l 839 972 l 450 449 l 371 0 l 235 0 l 314 449 m 453 1224 l 583 1224 l 561 1099 l 431 1099 l 453 1224 z "},"Ỵ":{"ha":758,"x_min":108,"x_max":839,"o":"m 314 449 l 108 972 l 247 972 l 406 568 l 700 972 l 839 972 l 450 449 l 371 0 l 235 0 l 314 449 m 219 -112 l 347 -112 l 322 -237 l 194 -237 l 219 -112 z "},"Ỳ":{"ha":758,"x_min":108,"x_max":839,"o":"m 314 449 l 108 972 l 247 972 l 406 568 l 700 972 l 839 972 l 450 449 l 371 0 l 235 0 l 314 449 m 388 1188 l 411 1324 l 632 1176 l 617 1092 l 388 1188 z "},"Ỷ":{"ha":758,"x_min":108,"x_max":839,"o":"m 314 449 l 108 972 l 247 972 l 406 568 l 700 972 l 839 972 l 450 449 l 371 0 l 235 0 l 314 449 m 465 1067 q 528 1124 510 1103 q 546 1172 546 1144 q 497 1210 546 1210 q 406 1183 461 1210 l 394 1254 q 511 1281 450 1281 q 596 1256 564 1281 q 629 1188 628 1232 q 597 1099 629 1138 q 504 1021 565 1060 l 465 1067 z "},"Ȳ":{"ha":758,"x_min":108,"x_max":839,"o":"m 314 449 l 108 972 l 247 972 l 406 568 l 700 972 l 839 972 l 450 449 l 371 0 l 235 0 l 314 449 m 293 1196 l 732 1196 l 715 1101 l 276 1101 l 293 1196 z "},"Ỹ":{"ha":758,"x_min":108,"x_max":839,"o":"m 314 449 l 108 972 l 247 972 l 406 568 l 700 972 l 839 972 l 450 449 l 371 0 l 235 0 l 314 449 m 607 1097 q 565 1106 586 1097 q 513 1129 544 1114 q 466 1151 485 1143 q 432 1158 447 1158 q 379 1108 390 1158 l 279 1108 q 425 1263 315 1263 q 467 1255 447 1263 q 515 1231 486 1247 q 558 1209 540 1217 q 596 1201 576 1201 q 649 1256 639 1201 l 749 1256 q 696 1135 731 1174 q 607 1097 661 1097 z "},"Z":{"ha":694,"x_min":-57,"x_max":781,"o":"m 542 853 l 150 853 l 171 972 l 781 972 l 181 119 l 574 119 l 553 0 l -57 0 l 542 853 z "},"Ź":{"ha":694,"x_min":-57,"x_max":781,"o":"m 542 853 l 150 853 l 171 972 l 781 972 l 181 119 l 574 119 l 553 0 l -57 0 l 542 853 m 397 1150 l 635 1282 l 615 1142 l 386 1061 l 397 1150 z "},"Ž":{"ha":694,"x_min":-57,"x_max":781,"o":"m 542 853 l 150 853 l 171 972 l 781 972 l 181 119 l 574 119 l 553 0 l -57 0 l 542 853 m 349 1219 l 365 1304 l 519 1193 l 708 1304 l 692 1200 l 494 1067 l 349 1219 z "},"Ż":{"ha":694,"x_min":-57,"x_max":781,"o":"m 542 853 l 150 853 l 171 972 l 781 972 l 181 119 l 574 119 l 553 0 l -57 0 l 542 853 m 456 1224 l 586 1224 l 564 1099 l 433 1099 l 456 1224 z "},"Ẓ":{"ha":694,"x_min":-57,"x_max":781,"o":"m 542 853 l 150 853 l 171 972 l 781 972 l 181 119 l 574 119 l 553 0 l -57 0 l 542 853 m 165 -112 l 293 -112 l 268 -237 l 140 -237 l 165 -112 z "},"a":{"ha":750,"x_min":29,"x_max":683,"o":"m 256 -14 q 91 60 153 -14 q 29 258 29 135 q 76 469 29 368 q 205 632 122 569 q 388 694 288 694 q 546 608 501 694 l 572 681 l 683 681 l 601 199 q 596 144 596 169 q 610 99 596 111 q 661 86 625 86 l 626 -14 q 549 -8 578 -14 q 499 19 519 -3 q 468 86 478 40 q 256 -14 383 -14 m 297 97 q 402 131 351 97 q 484 231 453 165 q 515 385 515 296 q 476 534 515 485 q 374 583 438 583 q 265 542 314 583 q 188 433 217 501 q 160 285 160 364 q 194 149 160 201 q 297 97 228 97 z "},"á":{"ha":750,"x_min":29,"x_max":683,"o":"m 256 -14 q 91 60 153 -14 q 29 258 29 135 q 76 469 29 368 q 205 632 122 569 q 388 694 288 694 q 546 608 501 694 l 572 681 l 683 681 l 601 199 q 596 144 596 169 q 610 99 596 111 q 661 86 625 86 l 626 -14 q 549 -8 578 -14 q 499 19 519 -3 q 468 86 478 40 q 256 -14 383 -14 m 297 97 q 402 131 351 97 q 484 231 453 165 q 515 385 515 296 q 476 534 515 485 q 374 583 438 583 q 265 542 314 583 q 188 433 217 501 q 160 285 160 364 q 194 149 160 201 q 297 97 228 97 m 369 893 l 624 1038 l 600 883 l 353 799 l 369 893 z "},"ă":{"ha":750,"x_min":29,"x_max":704,"o":"m 256 -14 q 91 60 153 -14 q 29 258 29 135 q 76 469 29 368 q 205 632 122 569 q 388 694 288 694 q 546 608 501 694 l 572 681 l 683 681 l 601 199 q 596 144 596 169 q 610 99 596 111 q 661 86 625 86 l 626 -14 q 549 -8 578 -14 q 499 19 519 -3 q 468 86 478 40 q 256 -14 383 -14 m 297 97 q 402 131 351 97 q 484 231 453 165 q 515 385 515 296 q 476 534 515 485 q 374 583 438 583 q 265 542 314 583 q 188 433 217 501 q 160 285 160 364 q 194 149 160 201 q 297 97 228 97 m 476 800 q 348 840 392 800 q 304 940 304 879 q 310 976 304 960 l 418 976 q 414 953 414 967 q 433 908 414 924 q 488 892 453 892 q 554 913 526 892 q 589 976 582 935 l 704 976 q 633 849 692 899 q 476 800 574 800 z "},"ắ":{"ha":750,"x_min":29,"x_max":704,"o":"m 256 -14 q 91 60 153 -14 q 29 258 29 135 q 76 469 29 368 q 205 632 122 569 q 388 694 288 694 q 546 608 501 694 l 572 681 l 683 681 l 601 199 q 596 144 596 169 q 610 99 596 111 q 661 86 625 86 l 626 -14 q 549 -8 578 -14 q 499 19 519 -3 q 468 86 478 40 q 256 -14 383 -14 m 297 97 q 402 131 351 97 q 484 231 453 165 q 515 385 515 296 q 476 534 515 485 q 374 583 438 583 q 265 542 314 583 q 188 433 217 501 q 160 285 160 364 q 194 149 160 201 q 297 97 228 97 m 474 769 q 340 808 385 769 q 296 906 296 846 q 299 936 296 917 l 410 936 q 408 919 408 931 q 430 872 408 889 q 486 856 451 856 q 556 876 526 856 q 593 936 586 897 l 704 936 q 633 815 692 860 q 474 769 574 769 m 429 1086 l 667 1218 l 647 1078 l 418 997 l 429 1086 z "},"ặ":{"ha":750,"x_min":29,"x_max":704,"o":"m 256 -14 q 91 60 153 -14 q 29 258 29 135 q 76 469 29 368 q 205 632 122 569 q 388 694 288 694 q 546 608 501 694 l 572 681 l 683 681 l 601 199 q 596 144 596 169 q 610 99 596 111 q 661 86 625 86 l 626 -14 q 549 -8 578 -14 q 499 19 519 -3 q 468 86 478 40 q 256 -14 383 -14 m 297 97 q 402 131 351 97 q 484 231 453 165 q 515 385 515 296 q 476 534 515 485 q 374 583 438 583 q 265 542 314 583 q 188 433 217 501 q 160 285 160 364 q 194 149 160 201 q 297 97 228 97 m 476 800 q 348 840 392 800 q 304 940 304 879 q 310 976 304 960 l 418 976 q 414 953 414 967 q 433 908 414 924 q 488 892 453 892 q 554 913 526 892 q 589 976 582 935 l 704 976 q 633 849 692 899 q 476 800 574 800 m 201 -112 l 329 -112 l 304 -237 l 176 -237 l 201 -112 z "},"ằ":{"ha":750,"x_min":29,"x_max":700,"o":"m 256 -14 q 91 60 153 -14 q 29 258 29 135 q 76 469 29 368 q 205 632 122 569 q 388 694 288 694 q 546 608 501 694 l 572 681 l 683 681 l 601 199 q 596 144 596 169 q 610 99 596 111 q 661 86 625 86 l 626 -14 q 549 -8 578 -14 q 499 19 519 -3 q 468 86 478 40 q 256 -14 383 -14 m 297 97 q 402 131 351 97 q 484 231 453 165 q 515 385 515 296 q 476 534 515 485 q 374 583 438 583 q 265 542 314 583 q 188 433 217 501 q 160 285 160 364 q 194 149 160 201 q 297 97 228 97 m 469 768 q 336 806 381 768 q 292 904 292 844 q 294 935 292 915 l 406 935 q 404 918 404 929 q 426 871 404 888 q 482 854 447 854 q 552 875 522 854 q 589 935 582 896 l 700 935 q 628 813 688 858 q 469 768 569 768 m 411 1076 l 435 1208 l 657 1076 l 642 996 l 411 1076 z "},"ẳ":{"ha":750,"x_min":29,"x_max":714,"o":"m 256 -14 q 91 60 153 -14 q 29 258 29 135 q 76 469 29 368 q 205 632 122 569 q 388 694 288 694 q 546 608 501 694 l 572 681 l 683 681 l 601 199 q 596 144 596 169 q 610 99 596 111 q 661 86 625 86 l 626 -14 q 549 -8 578 -14 q 499 19 519 -3 q 468 86 478 40 q 256 -14 383 -14 m 297 97 q 402 131 351 97 q 484 231 453 165 q 515 385 515 296 q 476 534 515 485 q 374 583 438 583 q 265 542 314 583 q 188 433 217 501 q 160 285 160 364 q 194 149 160 201 q 297 97 228 97 m 483 769 q 350 808 394 769 q 306 906 306 846 q 308 936 306 917 l 419 936 q 418 919 418 931 q 440 872 418 889 q 496 856 461 856 q 566 876 536 856 q 603 936 596 897 l 714 936 q 642 815 701 860 q 483 769 583 769 m 517 1014 q 574 1074 574 1033 q 560 1102 574 1092 q 524 1113 547 1113 q 439 1088 492 1113 l 428 1158 q 540 1183 481 1183 q 624 1159 592 1183 q 656 1090 656 1135 q 619 1005 656 1039 q 519 958 582 971 l 517 1014 z "},"ẵ":{"ha":750,"x_min":29,"x_max":768,"o":"m 256 -14 q 91 60 153 -14 q 29 258 29 135 q 76 469 29 368 q 205 632 122 569 q 388 694 288 694 q 546 608 501 694 l 572 681 l 683 681 l 601 199 q 596 144 596 169 q 610 99 596 111 q 661 86 625 86 l 626 -14 q 549 -8 578 -14 q 499 19 519 -3 q 468 86 478 40 q 256 -14 383 -14 m 297 97 q 402 131 351 97 q 484 231 453 165 q 515 385 515 296 q 476 534 515 485 q 374 583 438 583 q 265 542 314 583 q 188 433 217 501 q 160 285 160 364 q 194 149 160 201 q 297 97 228 97 m 479 769 q 346 808 390 769 q 301 906 301 846 q 304 936 301 917 l 415 936 q 414 919 414 931 q 435 872 414 889 q 492 856 457 856 q 562 876 532 856 q 599 936 592 897 l 710 936 q 638 815 697 860 q 479 769 579 769 m 638 1001 q 594 1008 617 1001 q 535 1031 572 1015 q 456 1056 476 1056 q 423 1043 436 1056 q 408 1008 410 1031 l 318 1008 q 363 1111 329 1075 q 446 1147 396 1147 q 488 1140 467 1147 q 546 1118 510 1133 q 591 1101 568 1108 q 631 1093 614 1093 q 663 1106 650 1093 q 678 1140 675 1118 l 768 1140 q 724 1037 758 1072 q 638 1001 689 1001 z "},"â":{"ha":750,"x_min":29,"x_max":683,"o":"m 256 -14 q 91 60 153 -14 q 29 258 29 135 q 76 469 29 368 q 205 632 122 569 q 388 694 288 694 q 546 608 501 694 l 572 681 l 683 681 l 601 199 q 596 144 596 169 q 610 99 596 111 q 661 86 625 86 l 626 -14 q 549 -8 578 -14 q 499 19 519 -3 q 468 86 478 40 q 256 -14 383 -14 m 297 97 q 402 131 351 97 q 484 231 453 165 q 515 385 515 296 q 476 534 515 485 q 374 583 438 583 q 265 542 314 583 q 188 433 217 501 q 160 285 160 364 q 194 149 160 201 q 297 97 228 97 m 335 886 l 513 1021 l 658 868 l 642 783 l 488 894 l 314 797 l 335 886 z "},"ấ":{"ha":750,"x_min":29,"x_max":831,"o":"m 256 -14 q 91 60 153 -14 q 29 258 29 135 q 76 469 29 368 q 205 632 122 569 q 388 694 288 694 q 546 608 501 694 l 572 681 l 683 681 l 601 199 q 596 144 596 169 q 610 99 596 111 q 661 86 625 86 l 626 -14 q 549 -8 578 -14 q 499 19 519 -3 q 468 86 478 40 q 256 -14 383 -14 m 297 97 q 402 131 351 97 q 484 231 453 165 q 515 385 515 296 q 476 534 515 485 q 374 583 438 583 q 265 542 314 583 q 188 433 217 501 q 160 285 160 364 q 194 149 160 201 q 297 97 228 97 m 697 1113 l 831 1113 l 672 957 l 583 957 l 697 1113 m 650 839 l 636 754 l 475 846 l 315 771 l 329 856 l 496 964 l 650 839 z "},"ậ":{"ha":750,"x_min":29,"x_max":683,"o":"m 256 -14 q 91 60 153 -14 q 29 258 29 135 q 76 469 29 368 q 205 632 122 569 q 388 694 288 694 q 546 608 501 694 l 572 681 l 683 681 l 601 199 q 596 144 596 169 q 610 99 596 111 q 661 86 625 86 l 626 -14 q 549 -8 578 -14 q 499 19 519 -3 q 468 86 478 40 q 256 -14 383 -14 m 297 97 q 402 131 351 97 q 484 231 453 165 q 515 385 515 296 q 476 534 515 485 q 374 583 438 583 q 265 542 314 583 q 188 433 217 501 q 160 285 160 364 q 194 149 160 201 q 297 97 228 97 m 335 886 l 513 1021 l 658 868 l 642 783 l 488 894 l 314 797 l 335 886 m 201 -112 l 329 -112 l 304 -237 l 176 -237 l 201 -112 z "},"ầ":{"ha":750,"x_min":29,"x_max":683,"o":"m 256 -14 q 91 60 153 -14 q 29 258 29 135 q 76 469 29 368 q 205 632 122 569 q 388 694 288 694 q 546 608 501 694 l 572 681 l 683 681 l 601 199 q 596 144 596 169 q 610 99 596 111 q 661 86 625 86 l 626 -14 q 549 -8 578 -14 q 499 19 519 -3 q 468 86 478 40 q 256 -14 383 -14 m 297 97 q 402 131 351 97 q 484 231 453 165 q 515 385 515 296 q 476 534 515 485 q 374 583 438 583 q 265 542 314 583 q 188 433 217 501 q 160 285 160 364 q 194 149 160 201 q 297 97 228 97 m 575 957 l 482 1119 l 614 1119 l 664 957 l 575 957 m 650 839 l 636 754 l 475 846 l 315 771 l 329 856 l 496 964 l 650 839 z "},"ẩ":{"ha":750,"x_min":29,"x_max":744,"o":"m 256 -14 q 91 60 153 -14 q 29 258 29 135 q 76 469 29 368 q 205 632 122 569 q 388 694 288 694 q 546 608 501 694 l 572 681 l 683 681 l 601 199 q 596 144 596 169 q 610 99 596 111 q 661 86 625 86 l 626 -14 q 549 -8 578 -14 q 499 19 519 -3 q 468 86 478 40 q 256 -14 383 -14 m 297 97 q 402 131 351 97 q 484 231 453 165 q 515 385 515 296 q 476 534 515 485 q 374 583 438 583 q 265 542 314 583 q 188 433 217 501 q 160 285 160 364 q 194 149 160 201 q 297 97 228 97 m 650 839 l 636 754 l 475 846 l 315 771 l 329 856 l 496 964 l 650 839 m 606 975 q 663 1035 663 994 q 649 1063 663 1053 q 613 1074 636 1074 q 528 1049 581 1074 l 517 1119 q 629 1144 569 1144 q 713 1120 681 1144 q 744 1051 744 1096 q 708 966 744 1000 q 608 919 671 932 l 606 975 z "},"ẫ":{"ha":750,"x_min":29,"x_max":744,"o":"m 256 -14 q 91 60 153 -14 q 29 258 29 135 q 76 469 29 368 q 205 632 122 569 q 388 694 288 694 q 546 608 501 694 l 572 681 l 683 681 l 601 199 q 596 144 596 169 q 610 99 596 111 q 661 86 625 86 l 626 -14 q 549 -8 578 -14 q 499 19 519 -3 q 468 86 478 40 q 256 -14 383 -14 m 297 97 q 402 131 351 97 q 484 231 453 165 q 515 385 515 296 q 476 534 515 485 q 374 583 438 583 q 265 542 314 583 q 188 433 217 501 q 160 285 160 364 q 194 149 160 201 q 297 97 228 97 m 650 839 l 636 754 l 475 846 l 315 771 l 329 856 l 496 964 l 650 839 m 614 1007 q 571 1014 593 1007 q 511 1036 549 1021 q 432 1061 453 1061 q 399 1049 413 1061 q 385 1014 386 1036 l 294 1014 q 339 1117 306 1081 q 422 1153 372 1153 q 465 1146 443 1153 q 522 1124 486 1139 q 567 1106 544 1114 q 607 1099 590 1099 q 639 1111 626 1099 q 654 1146 651 1124 l 744 1146 q 700 1042 735 1078 q 614 1007 665 1007 z "},"ȁ":{"ha":750,"x_min":29,"x_max":683,"o":"m 256 -14 q 91 60 153 -14 q 29 258 29 135 q 76 469 29 368 q 205 632 122 569 q 388 694 288 694 q 546 608 501 694 l 572 681 l 683 681 l 601 199 q 596 144 596 169 q 610 99 596 111 q 661 86 625 86 l 626 -14 q 549 -8 578 -14 q 499 19 519 -3 q 468 86 478 40 q 256 -14 383 -14 m 297 97 q 402 131 351 97 q 484 231 453 165 q 515 385 515 296 q 476 534 515 485 q 374 583 438 583 q 265 542 314 583 q 188 433 217 501 q 160 285 160 364 q 194 149 160 201 q 297 97 228 97 m 325 803 l 224 1035 l 360 1035 l 417 803 l 325 803 m 518 803 l 424 1035 l 560 1035 l 610 803 l 518 803 z "},"ä":{"ha":750,"x_min":29,"x_max":683,"o":"m 256 -14 q 91 60 153 -14 q 29 258 29 135 q 76 469 29 368 q 205 632 122 569 q 388 694 288 694 q 546 608 501 694 l 572 681 l 683 681 l 601 199 q 596 144 596 169 q 610 99 596 111 q 661 86 625 86 l 626 -14 q 549 -8 578 -14 q 499 19 519 -3 q 468 86 478 40 q 256 -14 383 -14 m 297 97 q 402 131 351 97 q 484 231 453 165 q 515 385 515 296 q 476 534 515 485 q 374 583 438 583 q 265 542 314 583 q 188 433 217 501 q 160 285 160 364 q 194 149 160 201 q 297 97 228 97 m 307 932 l 424 932 l 401 821 l 285 821 l 307 932 m 565 932 l 682 932 l 660 821 l 543 821 l 565 932 z "},"ạ":{"ha":750,"x_min":29,"x_max":683,"o":"m 256 -14 q 91 60 153 -14 q 29 258 29 135 q 76 469 29 368 q 205 632 122 569 q 388 694 288 694 q 546 608 501 694 l 572 681 l 683 681 l 601 199 q 596 144 596 169 q 610 99 596 111 q 661 86 625 86 l 626 -14 q 549 -8 578 -14 q 499 19 519 -3 q 468 86 478 40 q 256 -14 383 -14 m 297 97 q 402 131 351 97 q 484 231 453 165 q 515 385 515 296 q 476 534 515 485 q 374 583 438 583 q 265 542 314 583 q 188 433 217 501 q 160 285 160 364 q 194 149 160 201 q 297 97 228 97 m 201 -112 l 329 -112 l 304 -237 l 176 -237 l 201 -112 z "},"à":{"ha":750,"x_min":29,"x_max":683,"o":"m 256 -14 q 91 60 153 -14 q 29 258 29 135 q 76 469 29 368 q 205 632 122 569 q 388 694 288 694 q 546 608 501 694 l 572 681 l 683 681 l 601 199 q 596 144 596 169 q 610 99 596 111 q 661 86 625 86 l 626 -14 q 549 -8 578 -14 q 499 19 519 -3 q 468 86 478 40 q 256 -14 383 -14 m 297 97 q 402 131 351 97 q 484 231 453 165 q 515 385 515 296 q 476 534 515 485 q 374 583 438 583 q 265 542 314 583 q 188 433 217 501 q 160 285 160 364 q 194 149 160 201 q 297 97 228 97 m 360 896 l 383 1032 l 604 885 l 589 800 l 360 896 z "},"ả":{"ha":750,"x_min":29,"x_max":683,"o":"m 256 -14 q 91 60 153 -14 q 29 258 29 135 q 76 469 29 368 q 205 632 122 569 q 388 694 288 694 q 546 608 501 694 l 572 681 l 683 681 l 601 199 q 596 144 596 169 q 610 99 596 111 q 661 86 625 86 l 626 -14 q 549 -8 578 -14 q 499 19 519 -3 q 468 86 478 40 q 256 -14 383 -14 m 297 97 q 402 131 351 97 q 484 231 453 165 q 515 385 515 296 q 476 534 515 485 q 374 583 438 583 q 265 542 314 583 q 188 433 217 501 q 160 285 160 364 q 194 149 160 201 q 297 97 228 97 m 438 775 q 500 832 482 811 q 518 881 518 853 q 469 918 518 918 q 378 892 433 918 l 367 963 q 483 989 422 989 q 568 965 536 989 q 601 896 600 940 q 569 807 601 846 q 476 729 538 768 l 438 775 z "},"ȃ":{"ha":750,"x_min":29,"x_max":683,"o":"m 256 -14 q 91 60 153 -14 q 29 258 29 135 q 76 469 29 368 q 205 632 122 569 q 388 694 288 694 q 546 608 501 694 l 572 681 l 683 681 l 601 199 q 596 144 596 169 q 610 99 596 111 q 661 86 625 86 l 626 -14 q 549 -8 578 -14 q 499 19 519 -3 q 468 86 478 40 q 256 -14 383 -14 m 297 97 q 402 131 351 97 q 484 231 453 165 q 515 385 515 296 q 476 534 515 485 q 374 583 438 583 q 265 542 314 583 q 188 433 217 501 q 160 285 160 364 q 194 149 160 201 q 297 97 228 97 m 494 976 q 626 936 582 976 q 669 832 669 896 q 667 800 669 822 l 558 800 q 560 818 560 806 q 538 867 560 850 q 482 885 517 885 q 412 863 442 885 q 375 800 382 840 l 261 800 q 335 925 274 874 q 494 976 396 976 z "},"ā":{"ha":750,"x_min":29,"x_max":710,"o":"m 256 -14 q 91 60 153 -14 q 29 258 29 135 q 76 469 29 368 q 205 632 122 569 q 388 694 288 694 q 546 608 501 694 l 572 681 l 683 681 l 601 199 q 596 144 596 169 q 610 99 596 111 q 661 86 625 86 l 626 -14 q 549 -8 578 -14 q 499 19 519 -3 q 468 86 478 40 q 256 -14 383 -14 m 297 97 q 402 131 351 97 q 484 231 453 165 q 515 385 515 296 q 476 534 515 485 q 374 583 438 583 q 265 542 314 583 q 188 433 217 501 q 160 285 160 364 q 194 149 160 201 q 297 97 228 97 m 276 919 l 710 919 l 690 821 l 257 821 l 276 919 z "},"ą":{"ha":750,"x_min":29,"x_max":683,"o":"m 596 144 q 610 99 596 111 q 661 86 625 86 l 626 -14 q 585 -12 597 -14 q 499 -88 529 -53 q 468 -165 468 -124 q 482 -205 468 -192 q 519 -218 496 -218 q 603 -194 560 -218 l 611 -262 q 500 -289 561 -289 q 416 -264 449 -289 q 382 -193 383 -239 q 425 -86 382 -139 q 526 -1 468 -33 q 468 86 481 19 q 256 -14 383 -14 q 91 60 153 -14 q 29 258 29 135 q 76 469 29 368 q 205 632 122 569 q 388 694 288 694 q 546 608 501 694 l 572 681 l 683 681 l 601 199 q 596 144 596 169 m 297 97 q 402 131 351 97 q 484 231 453 165 q 515 385 515 296 q 476 534 515 485 q 374 583 438 583 q 265 542 314 583 q 188 433 217 501 q 160 285 160 364 q 194 149 160 201 q 297 97 228 97 z "},"å":{"ha":750,"x_min":29,"x_max":683,"o":"m 256 -14 q 91 60 153 -14 q 29 258 29 135 q 76 469 29 368 q 205 632 122 569 q 388 694 288 694 q 546 608 501 694 l 572 681 l 683 681 l 601 199 q 596 144 596 169 q 610 99 596 111 q 661 86 625 86 l 626 -14 q 549 -8 578 -14 q 499 19 519 -3 q 468 86 478 40 q 256 -14 383 -14 m 297 97 q 402 131 351 97 q 484 231 453 165 q 515 385 515 296 q 476 534 515 485 q 374 583 438 583 q 265 542 314 583 q 188 433 217 501 q 160 285 160 364 q 194 149 160 201 q 297 97 228 97 m 465 789 q 376 820 407 789 q 344 899 344 851 q 395 1017 344 968 q 515 1067 446 1067 q 605 1035 574 1067 q 636 957 636 1004 q 587 838 636 886 q 465 789 538 789 m 475 850 q 538 878 511 850 q 564 943 564 906 q 547 988 564 971 q 506 1006 531 1006 q 444 977 471 1006 q 417 911 417 949 q 433 867 417 883 q 475 850 450 850 z "},"ǻ":{"ha":750,"x_min":29,"x_max":683,"o":"m 256 -14 q 91 60 153 -14 q 29 258 29 135 q 76 469 29 368 q 205 632 122 569 q 388 694 288 694 q 546 608 501 694 l 572 681 l 683 681 l 601 199 q 596 144 596 169 q 610 99 596 111 q 661 86 625 86 l 626 -14 q 549 -8 578 -14 q 499 19 519 -3 q 468 86 478 40 q 256 -14 383 -14 m 297 97 q 402 131 351 97 q 484 231 453 165 q 515 385 515 296 q 476 534 515 485 q 374 583 438 583 q 265 542 314 583 q 188 433 217 501 q 160 285 160 364 q 194 149 160 201 q 297 97 228 97 m 463 758 q 373 790 404 758 q 342 869 342 821 q 390 983 342 935 q 504 1031 438 1031 q 594 999 563 1031 q 625 919 625 967 q 578 806 625 853 q 463 758 531 758 m 469 819 q 529 846 504 819 q 554 910 554 872 q 538 953 554 936 q 497 969 522 969 q 438 942 464 969 q 413 881 413 915 q 428 836 413 853 q 469 819 444 819 m 421 1165 l 658 1297 l 639 1157 l 410 1076 l 421 1165 z "},"ã":{"ha":750,"x_min":29,"x_max":721,"o":"m 256 -14 q 91 60 153 -14 q 29 258 29 135 q 76 469 29 368 q 205 632 122 569 q 388 694 288 694 q 546 608 501 694 l 572 681 l 683 681 l 601 199 q 596 144 596 169 q 610 99 596 111 q 661 86 625 86 l 626 -14 q 549 -8 578 -14 q 499 19 519 -3 q 468 86 478 40 q 256 -14 383 -14 m 297 97 q 402 131 351 97 q 484 231 453 165 q 515 385 515 296 q 476 534 515 485 q 374 583 438 583 q 265 542 314 583 q 188 433 217 501 q 160 285 160 364 q 194 149 160 201 q 297 97 228 97 m 579 806 q 538 814 558 806 q 485 838 517 822 q 438 859 457 851 q 404 867 419 867 q 351 817 363 867 l 251 817 q 397 971 288 971 q 439 963 419 971 q 488 939 458 956 q 531 917 513 925 q 568 910 549 910 q 621 964 611 910 l 721 964 q 668 844 703 882 q 579 806 633 806 z "},"æ":{"ha":1011,"x_min":-11,"x_max":976,"o":"m 154 -19 q 31 20 72 -19 q -11 129 -11 60 q 116 352 -11 288 q 408 426 243 417 q 386 549 408 514 q 299 583 364 583 q 221 574 260 583 q 133 543 182 564 l 139 640 q 354 694 256 694 q 470 658 421 694 q 519 528 519 622 q 626 655 557 615 q 778 694 694 694 q 924 638 871 694 q 976 476 976 581 q 969 410 976 440 q 950 340 963 379 l 538 340 q 532 275 532 293 q 575 135 532 183 q 690 86 618 86 q 776 99 733 86 q 875 138 819 111 l 875 42 q 769 1 821 15 q 660 -14 718 -14 q 510 24 567 -14 q 436 143 454 61 q 315 22 388 63 q 154 -19 242 -19 m 854 426 q 860 483 860 454 q 832 559 858 535 q 753 583 806 583 q 561 426 619 583 l 854 426 m 200 86 q 320 133 264 86 q 393 275 376 179 q 403 340 401 333 q 274 322 339 340 q 166 261 210 303 q 122 156 122 219 q 143 103 122 119 q 200 86 164 86 z "},"ǽ":{"ha":1011,"x_min":-11,"x_max":976,"o":"m 154 -19 q 31 20 72 -19 q -11 129 -11 60 q 116 352 -11 288 q 408 426 243 417 q 386 549 408 514 q 299 583 364 583 q 221 574 260 583 q 133 543 182 564 l 139 640 q 354 694 256 694 q 470 658 421 694 q 519 528 519 622 q 626 655 557 615 q 778 694 694 694 q 924 638 871 694 q 976 476 976 581 q 969 410 976 440 q 950 340 963 379 l 538 340 q 532 275 532 293 q 575 135 532 183 q 690 86 618 86 q 776 99 733 86 q 875 138 819 111 l 875 42 q 769 1 821 15 q 660 -14 718 -14 q 510 24 567 -14 q 436 143 454 61 q 315 22 388 63 q 154 -19 242 -19 m 854 426 q 860 483 860 454 q 832 559 858 535 q 753 583 806 583 q 561 426 619 583 l 854 426 m 200 86 q 320 133 264 86 q 393 275 376 179 q 403 340 401 333 q 274 322 339 340 q 166 261 210 303 q 122 156 122 219 q 143 103 122 119 q 200 86 164 86 m 485 893 l 739 1038 l 715 883 l 468 799 l 485 893 z "},"b":{"ha":722,"x_min":14,"x_max":669,"o":"m 342 -14 q 153 86 211 -14 l 128 0 l 14 0 l 197 1042 l 324 1042 l 247 607 q 438 694 322 694 q 609 613 549 694 q 669 408 669 531 q 624 182 669 278 q 504 36 579 86 q 342 -14 429 -14 m 335 97 q 440 136 393 97 q 513 244 486 175 q 539 396 539 313 q 504 532 539 481 q 403 583 469 583 q 297 547 347 583 q 217 441 247 510 q 186 283 186 372 q 226 142 186 188 q 335 97 267 97 z "},"c":{"ha":581,"x_min":32,"x_max":588,"o":"m 292 -14 q 95 66 158 -14 q 32 276 32 146 q 76 483 32 388 q 208 637 121 579 q 415 694 294 694 q 513 684 467 694 q 588 654 560 674 l 551 542 q 415 583 486 583 q 227 502 293 583 q 161 294 161 421 q 203 147 161 199 q 332 96 246 96 q 482 138 403 96 l 478 31 q 292 -14 394 -14 z "},"ć":{"ha":581,"x_min":32,"x_max":606,"o":"m 292 -14 q 95 66 158 -14 q 32 276 32 146 q 76 483 32 388 q 208 637 121 579 q 415 694 294 694 q 513 684 467 694 q 588 654 560 674 l 551 542 q 415 583 486 583 q 227 502 293 583 q 161 294 161 421 q 203 147 161 199 q 332 96 246 96 q 482 138 403 96 l 478 31 q 292 -14 394 -14 m 351 893 l 606 1038 l 582 883 l 335 799 l 351 893 z "},"č":{"ha":581,"x_min":32,"x_max":660,"o":"m 292 -14 q 95 66 158 -14 q 32 276 32 146 q 76 483 32 388 q 208 637 121 579 q 415 694 294 694 q 513 684 467 694 q 588 654 560 674 l 551 542 q 415 583 486 583 q 227 502 293 583 q 161 294 161 421 q 203 147 161 199 q 332 96 246 96 q 482 138 403 96 l 478 31 q 292 -14 394 -14 m 300 928 l 317 1013 l 471 901 l 660 1013 l 643 908 l 446 775 l 300 928 z "},"ç":{"ha":581,"x_min":32,"x_max":588,"o":"m 415 583 q 227 502 293 583 q 161 294 161 421 q 203 147 161 199 q 332 96 246 96 q 482 138 403 96 l 478 31 q 326 -12 411 -6 l 294 -75 l 306 -75 q 382 -99 354 -75 q 410 -167 410 -124 q 360 -272 410 -231 q 238 -314 311 -314 q 133 -287 178 -314 l 167 -219 q 250 -243 206 -243 q 307 -226 286 -243 q 328 -182 328 -208 q 267 -135 328 -135 q 200 -146 233 -135 l 257 -12 q 87 77 142 -1 q 32 276 32 156 q 76 483 32 388 q 208 637 121 579 q 415 694 294 694 q 513 684 467 694 q 588 654 560 674 l 551 542 q 415 583 486 583 z "},"ḉ":{"ha":581,"x_min":32,"x_max":606,"o":"m 582 883 l 335 799 l 351 893 l 606 1038 l 582 883 m 32 276 q 76 483 32 388 q 208 637 121 579 q 415 694 294 694 q 513 684 467 694 q 588 654 560 674 l 551 542 q 415 583 486 583 q 227 502 293 583 q 161 294 161 421 q 203 147 161 199 q 332 96 246 96 q 482 138 403 96 l 478 31 q 326 -12 411 -6 l 294 -75 l 306 -75 q 382 -99 354 -75 q 410 -167 410 -124 q 360 -272 410 -231 q 238 -314 311 -314 q 133 -287 178 -314 l 167 -219 q 250 -243 206 -243 q 307 -226 286 -243 q 328 -182 328 -208 q 267 -135 328 -135 q 200 -146 233 -135 l 257 -12 q 87 77 142 -1 q 32 276 32 156 z "},"ĉ":{"ha":581,"x_min":32,"x_max":640,"o":"m 292 -14 q 95 66 158 -14 q 32 276 32 146 q 76 483 32 388 q 208 637 121 579 q 415 694 294 694 q 513 684 467 694 q 588 654 560 674 l 551 542 q 415 583 486 583 q 227 502 293 583 q 161 294 161 421 q 203 147 161 199 q 332 96 246 96 q 482 138 403 96 l 478 31 q 292 -14 394 -14 m 317 886 l 494 1021 l 640 868 l 624 783 l 469 894 l 296 797 l 317 886 z "},"ċ":{"ha":581,"x_min":32,"x_max":588,"o":"m 292 -14 q 95 66 158 -14 q 32 276 32 146 q 76 483 32 388 q 208 637 121 579 q 415 694 294 694 q 513 684 467 694 q 588 654 560 674 l 551 542 q 415 583 486 583 q 227 502 293 583 q 161 294 161 421 q 203 147 161 199 q 332 96 246 96 q 482 138 403 96 l 478 31 q 292 -14 394 -14 m 415 946 l 543 946 l 518 821 l 390 821 l 415 946 z "},"d":{"ha":722,"x_min":29,"x_max":749,"o":"m 749 1042 l 565 0 l 450 0 l 456 86 q 361 12 413 38 q 256 -14 310 -14 q 138 24 189 -14 q 58 126 86 61 q 29 274 29 192 q 74 476 29 379 q 198 634 119 574 q 374 694 276 694 q 474 672 433 694 q 544 599 515 649 l 622 1042 l 749 1042 m 297 97 q 402 131 351 97 q 484 231 453 165 q 515 385 515 296 q 476 534 515 485 q 374 583 438 583 q 265 542 314 583 q 188 433 217 501 q 160 285 160 364 q 194 149 160 201 q 297 97 228 97 z "},"ð":{"ha":676,"x_min":14,"x_max":633,"o":"m 517 815 q 615 475 615 678 q 569 215 615 326 q 442 43 522 103 q 263 -17 363 -17 q 80 54 146 -17 q 14 236 14 125 q 55 413 14 332 q 167 543 96 494 q 326 592 239 592 q 486 515 429 592 q 418 774 486 667 l 249 701 l 213 779 l 361 843 q 257 915 317 886 l 301 974 q 457 883 385 946 l 599 943 l 633 865 l 517 815 m 274 99 q 364 129 322 99 q 429 213 406 160 q 453 331 453 267 q 422 437 453 397 q 336 476 392 476 q 239 447 282 476 q 172 366 196 417 q 149 256 149 315 q 181 142 149 186 q 274 99 214 99 z "},"ď":{"ha":794,"x_min":29,"x_max":933,"o":"m 749 1042 l 565 0 l 450 0 l 456 86 q 361 12 413 38 q 256 -14 310 -14 q 138 24 189 -14 q 58 126 86 61 q 29 274 29 192 q 74 476 29 379 q 198 634 119 574 q 374 694 276 694 q 474 672 433 694 q 544 599 515 649 l 622 1042 l 749 1042 m 297 97 q 402 131 351 97 q 484 231 453 165 q 515 385 515 296 q 476 534 515 485 q 374 583 438 583 q 265 542 314 583 q 188 433 217 501 q 160 285 160 364 q 194 149 160 201 q 297 97 228 97 m 804 1042 l 933 1042 l 853 810 l 763 810 l 804 1042 z "},"đ":{"ha":722,"x_min":29,"x_max":808,"o":"m 792 811 l 708 811 l 565 0 l 450 0 l 456 86 q 361 12 413 38 q 256 -14 310 -14 q 138 24 189 -14 q 58 126 86 61 q 29 274 29 192 q 74 476 29 379 q 198 634 119 574 q 374 694 276 694 q 474 672 433 694 q 544 599 515 649 l 582 811 l 394 811 l 411 899 l 597 899 l 622 1042 l 749 1042 l 724 899 l 808 899 l 792 811 m 297 97 q 402 131 351 97 q 484 231 453 165 q 515 385 515 296 q 476 534 515 485 q 374 583 438 583 q 265 542 314 583 q 188 433 217 501 q 160 285 160 364 q 194 149 160 201 q 297 97 228 97 z "},"ḍ":{"ha":722,"x_min":29,"x_max":749,"o":"m 749 1042 l 565 0 l 450 0 l 456 86 q 361 12 413 38 q 256 -14 310 -14 q 138 24 189 -14 q 58 126 86 61 q 29 274 29 192 q 74 476 29 379 q 198 634 119 574 q 374 694 276 694 q 474 672 433 694 q 544 599 515 649 l 622 1042 l 749 1042 m 297 97 q 402 131 351 97 q 484 231 453 165 q 515 385 515 296 q 476 534 515 485 q 374 583 438 583 q 265 542 314 583 q 188 433 217 501 q 160 285 160 364 q 194 149 160 201 q 297 97 228 97 m 278 -112 l 406 -112 l 381 -237 l 253 -237 l 278 -112 z "},"ḏ":{"ha":722,"x_min":29,"x_max":749,"o":"m 749 1042 l 565 0 l 450 0 l 456 86 q 361 12 413 38 q 256 -14 310 -14 q 138 24 189 -14 q 58 126 86 61 q 29 274 29 192 q 74 476 29 379 q 198 634 119 574 q 374 694 276 694 q 474 672 433 694 q 544 599 515 649 l 622 1042 l 749 1042 m 297 97 q 402 131 351 97 q 484 231 453 165 q 515 385 515 296 q 476 534 515 485 q 374 583 438 583 q 265 542 314 583 q 188 433 217 501 q 160 285 160 364 q 194 149 160 201 q 297 97 228 97 m 126 -126 l 560 -126 l 540 -225 l 107 -225 l 126 -126 z "},"ǆ":{"ha":1319,"x_min":29,"x_max":1335,"o":"m 749 1042 l 565 0 l 450 0 l 456 86 q 361 12 413 38 q 256 -14 310 -14 q 138 24 189 -14 q 58 126 86 61 q 29 274 29 192 q 74 476 29 379 q 198 634 119 574 q 374 694 276 694 q 474 672 433 694 q 544 599 515 649 l 622 1042 l 749 1042 m 297 97 q 402 131 351 97 q 484 231 453 165 q 515 385 515 296 q 476 534 515 485 q 374 583 438 583 q 265 542 314 583 q 188 433 217 501 q 160 285 160 364 q 194 149 160 201 q 297 97 228 97 m 1115 583 l 797 583 l 814 681 l 1335 681 l 903 97 l 1224 97 l 1206 0 l 682 0 l 1115 583 m 947 928 l 964 1013 l 1118 901 l 1307 1013 l 1290 908 l 1093 775 l 947 928 z "},"e":{"ha":636,"x_min":29,"x_max":603,"o":"m 307 -14 q 100 68 171 -14 q 29 281 29 150 q 76 484 29 389 q 208 637 124 579 q 400 694 293 694 q 550 647 497 694 q 603 521 603 600 q 573 412 603 464 q 472 326 543 360 q 286 292 401 292 q 217 295 253 292 q 164 303 182 299 q 210 143 164 189 q 340 97 257 97 q 434 108 383 97 q 528 138 485 118 l 522 39 q 307 -14 431 -14 m 275 376 q 438 415 388 376 q 488 506 488 454 q 460 564 488 544 q 388 583 432 583 q 267 535 321 583 q 178 390 213 488 q 275 376 219 376 z "},"é":{"ha":636,"x_min":29,"x_max":603,"o":"m 307 -14 q 100 68 171 -14 q 29 281 29 150 q 76 484 29 389 q 208 637 124 579 q 400 694 293 694 q 550 647 497 694 q 603 521 603 600 q 573 412 603 464 q 472 326 543 360 q 286 292 401 292 q 217 295 253 292 q 164 303 182 299 q 210 143 164 189 q 340 97 257 97 q 434 108 383 97 q 528 138 485 118 l 522 39 q 307 -14 431 -14 m 275 376 q 438 415 388 376 q 488 506 488 454 q 460 564 488 544 q 388 583 432 583 q 267 535 321 583 q 178 390 213 488 q 275 376 219 376 m 336 893 l 590 1038 l 567 883 l 319 799 l 336 893 z "},"ĕ":{"ha":636,"x_min":29,"x_max":671,"o":"m 307 -14 q 100 68 171 -14 q 29 281 29 150 q 76 484 29 389 q 208 637 124 579 q 400 694 293 694 q 550 647 497 694 q 603 521 603 600 q 573 412 603 464 q 472 326 543 360 q 286 292 401 292 q 217 295 253 292 q 164 303 182 299 q 210 143 164 189 q 340 97 257 97 q 434 108 383 97 q 528 138 485 118 l 522 39 q 307 -14 431 -14 m 275 376 q 438 415 388 376 q 488 506 488 454 q 460 564 488 544 q 388 583 432 583 q 267 535 321 583 q 178 390 213 488 q 275 376 219 376 m 443 800 q 315 840 358 800 q 271 940 271 879 q 276 976 271 960 l 385 976 q 381 953 381 967 q 400 908 381 924 q 454 892 419 892 q 521 913 493 892 q 556 976 549 935 l 671 976 q 599 849 658 899 q 443 800 540 800 z "},"ě":{"ha":636,"x_min":29,"x_max":644,"o":"m 307 -14 q 100 68 171 -14 q 29 281 29 150 q 76 484 29 389 q 208 637 124 579 q 400 694 293 694 q 550 647 497 694 q 603 521 603 600 q 573 412 603 464 q 472 326 543 360 q 286 292 401 292 q 217 295 253 292 q 164 303 182 299 q 210 143 164 189 q 340 97 257 97 q 434 108 383 97 q 528 138 485 118 l 522 39 q 307 -14 431 -14 m 275 376 q 438 415 388 376 q 488 506 488 454 q 460 564 488 544 q 388 583 432 583 q 267 535 321 583 q 178 390 213 488 q 275 376 219 376 m 285 928 l 301 1013 l 456 901 l 644 1013 l 628 908 l 431 775 l 285 928 z "},"ḝ":{"ha":636,"x_min":29,"x_max":671,"o":"m 671 976 q 599 849 658 899 q 443 800 540 800 q 315 840 358 800 q 271 940 271 879 q 276 976 271 960 l 385 976 q 381 953 381 967 q 400 908 381 924 q 454 892 419 892 q 521 913 493 892 q 556 976 549 935 l 671 976 m 400 694 q 550 647 497 694 q 603 521 603 600 q 573 412 603 464 q 472 326 543 360 q 286 292 401 292 q 217 295 253 292 q 164 303 182 299 q 210 143 164 189 q 340 97 257 97 q 434 108 383 97 q 528 138 485 118 l 522 39 q 357 -11 450 -3 l 325 -75 l 336 -75 q 413 -99 385 -75 q 440 -167 440 -124 q 391 -272 440 -231 q 268 -314 342 -314 q 164 -287 208 -314 l 197 -219 q 281 -243 236 -243 q 338 -226 317 -243 q 358 -182 358 -208 q 297 -135 358 -135 q 231 -146 264 -135 l 288 -14 q 95 74 161 -7 q 29 281 29 156 q 76 484 29 389 q 208 637 124 579 q 400 694 293 694 m 275 376 q 438 415 388 376 q 488 506 488 454 q 460 564 488 544 q 388 583 432 583 q 267 535 321 583 q 178 390 213 488 q 275 376 219 376 z "},"ê":{"ha":636,"x_min":29,"x_max":625,"o":"m 307 -14 q 100 68 171 -14 q 29 281 29 150 q 76 484 29 389 q 208 637 124 579 q 400 694 293 694 q 550 647 497 694 q 603 521 603 600 q 573 412 603 464 q 472 326 543 360 q 286 292 401 292 q 217 295 253 292 q 164 303 182 299 q 210 143 164 189 q 340 97 257 97 q 434 108 383 97 q 528 138 485 118 l 522 39 q 307 -14 431 -14 m 275 376 q 438 415 388 376 q 488 506 488 454 q 460 564 488 544 q 388 583 432 583 q 267 535 321 583 q 178 390 213 488 q 275 376 219 376 m 301 886 l 479 1021 l 625 868 l 608 783 l 454 894 l 281 797 l 301 886 z "},"ế":{"ha":636,"x_min":29,"x_max":797,"o":"m 307 -14 q 100 68 171 -14 q 29 281 29 150 q 76 484 29 389 q 208 637 124 579 q 400 694 293 694 q 550 647 497 694 q 603 521 603 600 q 573 412 603 464 q 472 326 543 360 q 286 292 401 292 q 217 295 253 292 q 164 303 182 299 q 210 143 164 189 q 340 97 257 97 q 434 108 383 97 q 528 138 485 118 l 522 39 q 307 -14 431 -14 m 275 376 q 438 415 388 376 q 488 506 488 454 q 460 564 488 544 q 388 583 432 583 q 267 535 321 583 q 178 390 213 488 q 275 376 219 376 m 664 1113 l 797 1113 l 639 957 l 550 957 l 664 1113 m 617 839 l 603 754 l 442 846 l 282 771 l 296 856 l 463 964 l 617 839 z "},"ệ":{"ha":636,"x_min":29,"x_max":625,"o":"m 307 -14 q 100 68 171 -14 q 29 281 29 150 q 76 484 29 389 q 208 637 124 579 q 400 694 293 694 q 550 647 497 694 q 603 521 603 600 q 573 412 603 464 q 472 326 543 360 q 286 292 401 292 q 217 295 253 292 q 164 303 182 299 q 210 143 164 189 q 340 97 257 97 q 434 108 383 97 q 528 138 485 118 l 522 39 q 307 -14 431 -14 m 275 376 q 438 415 388 376 q 488 506 488 454 q 460 564 488 544 q 388 583 432 583 q 267 535 321 583 q 178 390 213 488 q 275 376 219 376 m 301 886 l 479 1021 l 625 868 l 608 783 l 454 894 l 281 797 l 301 886 m 240 -112 l 368 -112 l 343 -237 l 215 -237 l 240 -112 z "},"ề":{"ha":636,"x_min":29,"x_max":631,"o":"m 307 -14 q 100 68 171 -14 q 29 281 29 150 q 76 484 29 389 q 208 637 124 579 q 400 694 293 694 q 550 647 497 694 q 603 521 603 600 q 573 412 603 464 q 472 326 543 360 q 286 292 401 292 q 217 295 253 292 q 164 303 182 299 q 210 143 164 189 q 340 97 257 97 q 434 108 383 97 q 528 138 485 118 l 522 39 q 307 -14 431 -14 m 275 376 q 438 415 388 376 q 488 506 488 454 q 460 564 488 544 q 388 583 432 583 q 267 535 321 583 q 178 390 213 488 q 275 376 219 376 m 542 957 l 449 1119 l 581 1119 l 631 957 l 542 957 m 617 839 l 603 754 l 442 846 l 282 771 l 296 856 l 463 964 l 617 839 z "},"ể":{"ha":636,"x_min":29,"x_max":711,"o":"m 307 -14 q 100 68 171 -14 q 29 281 29 150 q 76 484 29 389 q 208 637 124 579 q 400 694 293 694 q 550 647 497 694 q 603 521 603 600 q 573 412 603 464 q 472 326 543 360 q 286 292 401 292 q 217 295 253 292 q 164 303 182 299 q 210 143 164 189 q 340 97 257 97 q 434 108 383 97 q 528 138 485 118 l 522 39 q 307 -14 431 -14 m 275 376 q 438 415 388 376 q 488 506 488 454 q 460 564 488 544 q 388 583 432 583 q 267 535 321 583 q 178 390 213 488 q 275 376 219 376 m 617 839 l 603 754 l 442 846 l 282 771 l 296 856 l 463 964 l 617 839 m 572 975 q 629 1035 629 994 q 616 1063 629 1053 q 579 1074 603 1074 q 494 1049 547 1074 l 483 1119 q 596 1144 536 1144 q 679 1120 647 1144 q 711 1051 711 1096 q 674 966 711 1000 q 575 919 638 932 l 572 975 z "},"ễ":{"ha":636,"x_min":29,"x_max":711,"o":"m 307 -14 q 100 68 171 -14 q 29 281 29 150 q 76 484 29 389 q 208 637 124 579 q 400 694 293 694 q 550 647 497 694 q 603 521 603 600 q 573 412 603 464 q 472 326 543 360 q 286 292 401 292 q 217 295 253 292 q 164 303 182 299 q 210 143 164 189 q 340 97 257 97 q 434 108 383 97 q 528 138 485 118 l 522 39 q 307 -14 431 -14 m 275 376 q 438 415 388 376 q 488 506 488 454 q 460 564 488 544 q 388 583 432 583 q 267 535 321 583 q 178 390 213 488 q 275 376 219 376 m 617 839 l 603 754 l 442 846 l 282 771 l 296 856 l 463 964 l 617 839 m 581 1007 q 538 1014 560 1007 q 478 1036 515 1021 q 399 1061 419 1061 q 366 1049 379 1061 q 351 1014 353 1036 l 261 1014 q 306 1117 272 1081 q 389 1153 339 1153 q 431 1146 410 1153 q 489 1124 453 1139 q 534 1106 511 1114 q 574 1099 557 1099 q 606 1111 593 1099 q 621 1146 618 1124 l 711 1146 q 667 1042 701 1078 q 581 1007 632 1007 z "},"ȅ":{"ha":636,"x_min":29,"x_max":603,"o":"m 307 -14 q 100 68 171 -14 q 29 281 29 150 q 76 484 29 389 q 208 637 124 579 q 400 694 293 694 q 550 647 497 694 q 603 521 603 600 q 573 412 603 464 q 472 326 543 360 q 286 292 401 292 q 217 295 253 292 q 164 303 182 299 q 210 143 164 189 q 340 97 257 97 q 434 108 383 97 q 528 138 485 118 l 522 39 q 307 -14 431 -14 m 275 376 q 438 415 388 376 q 488 506 488 454 q 460 564 488 544 q 388 583 432 583 q 267 535 321 583 q 178 390 213 488 q 275 376 219 376 m 292 803 l 190 1035 l 326 1035 l 383 803 l 292 803 m 485 803 l 390 1035 l 526 1035 l 576 803 l 485 803 z "},"ë":{"ha":636,"x_min":29,"x_max":649,"o":"m 307 -14 q 100 68 171 -14 q 29 281 29 150 q 76 484 29 389 q 208 637 124 579 q 400 694 293 694 q 550 647 497 694 q 603 521 603 600 q 573 412 603 464 q 472 326 543 360 q 286 292 401 292 q 217 295 253 292 q 164 303 182 299 q 210 143 164 189 q 340 97 257 97 q 434 108 383 97 q 528 138 485 118 l 522 39 q 307 -14 431 -14 m 275 376 q 438 415 388 376 q 488 506 488 454 q 460 564 488 544 q 388 583 432 583 q 267 535 321 583 q 178 390 213 488 q 275 376 219 376 m 274 932 l 390 932 l 368 821 l 251 821 l 274 932 m 532 932 l 649 932 l 626 821 l 510 821 l 532 932 z "},"ė":{"ha":636,"x_min":29,"x_max":603,"o":"m 307 -14 q 100 68 171 -14 q 29 281 29 150 q 76 484 29 389 q 208 637 124 579 q 400 694 293 694 q 550 647 497 694 q 603 521 603 600 q 573 412 603 464 q 472 326 543 360 q 286 292 401 292 q 217 295 253 292 q 164 303 182 299 q 210 143 164 189 q 340 97 257 97 q 434 108 383 97 q 528 138 485 118 l 522 39 q 307 -14 431 -14 m 275 376 q 438 415 388 376 q 488 506 488 454 q 460 564 488 544 q 388 583 432 583 q 267 535 321 583 q 178 390 213 488 q 275 376 219 376 m 400 946 l 528 946 l 503 821 l 375 821 l 400 946 z "},"ẹ":{"ha":636,"x_min":29,"x_max":603,"o":"m 307 -14 q 100 68 171 -14 q 29 281 29 150 q 76 484 29 389 q 208 637 124 579 q 400 694 293 694 q 550 647 497 694 q 603 521 603 600 q 573 412 603 464 q 472 326 543 360 q 286 292 401 292 q 217 295 253 292 q 164 303 182 299 q 210 143 164 189 q 340 97 257 97 q 434 108 383 97 q 528 138 485 118 l 522 39 q 307 -14 431 -14 m 275 376 q 438 415 388 376 q 488 506 488 454 q 460 564 488 544 q 388 583 432 583 q 267 535 321 583 q 178 390 213 488 q 275 376 219 376 m 240 -112 l 368 -112 l 343 -237 l 215 -237 l 240 -112 z "},"è":{"ha":636,"x_min":29,"x_max":603,"o":"m 307 -14 q 100 68 171 -14 q 29 281 29 150 q 76 484 29 389 q 208 637 124 579 q 400 694 293 694 q 550 647 497 694 q 603 521 603 600 q 573 412 603 464 q 472 326 543 360 q 286 292 401 292 q 217 295 253 292 q 164 303 182 299 q 210 143 164 189 q 340 97 257 97 q 434 108 383 97 q 528 138 485 118 l 522 39 q 307 -14 431 -14 m 275 376 q 438 415 388 376 q 488 506 488 454 q 460 564 488 544 q 388 583 432 583 q 267 535 321 583 q 178 390 213 488 q 275 376 219 376 m 326 896 l 350 1032 l 571 885 l 556 800 l 326 896 z "},"ẻ":{"ha":636,"x_min":29,"x_max":603,"o":"m 307 -14 q 100 68 171 -14 q 29 281 29 150 q 76 484 29 389 q 208 637 124 579 q 400 694 293 694 q 550 647 497 694 q 603 521 603 600 q 573 412 603 464 q 472 326 543 360 q 286 292 401 292 q 217 295 253 292 q 164 303 182 299 q 210 143 164 189 q 340 97 257 97 q 434 108 383 97 q 528 138 485 118 l 522 39 q 307 -14 431 -14 m 275 376 q 438 415 388 376 q 488 506 488 454 q 460 564 488 544 q 388 583 432 583 q 267 535 321 583 q 178 390 213 488 q 275 376 219 376 m 404 775 q 467 832 449 811 q 485 881 485 853 q 436 918 485 918 q 344 892 400 918 l 333 963 q 450 989 389 989 q 535 965 503 989 q 568 896 567 940 q 536 807 568 846 q 443 729 504 768 l 404 775 z "},"ȇ":{"ha":636,"x_min":29,"x_max":636,"o":"m 307 -14 q 100 68 171 -14 q 29 281 29 150 q 76 484 29 389 q 208 637 124 579 q 400 694 293 694 q 550 647 497 694 q 603 521 603 600 q 573 412 603 464 q 472 326 543 360 q 286 292 401 292 q 217 295 253 292 q 164 303 182 299 q 210 143 164 189 q 340 97 257 97 q 434 108 383 97 q 528 138 485 118 l 522 39 q 307 -14 431 -14 m 275 376 q 438 415 388 376 q 488 506 488 454 q 460 564 488 544 q 388 583 432 583 q 267 535 321 583 q 178 390 213 488 q 275 376 219 376 m 461 976 q 592 936 549 976 q 636 832 636 896 q 633 800 636 822 l 525 800 q 526 818 526 806 q 505 867 526 850 q 449 885 483 885 q 378 863 408 885 q 342 800 349 840 l 228 800 q 301 925 240 874 q 461 976 363 976 z "},"ē":{"ha":636,"x_min":29,"x_max":676,"o":"m 307 -14 q 100 68 171 -14 q 29 281 29 150 q 76 484 29 389 q 208 637 124 579 q 400 694 293 694 q 550 647 497 694 q 603 521 603 600 q 573 412 603 464 q 472 326 543 360 q 286 292 401 292 q 217 295 253 292 q 164 303 182 299 q 210 143 164 189 q 340 97 257 97 q 434 108 383 97 q 528 138 485 118 l 522 39 q 307 -14 431 -14 m 275 376 q 438 415 388 376 q 488 506 488 454 q 460 564 488 544 q 388 583 432 583 q 267 535 321 583 q 178 390 213 488 q 275 376 219 376 m 243 919 l 676 919 l 657 821 l 224 821 l 243 919 z "},"ḗ":{"ha":636,"x_min":29,"x_max":671,"o":"m 307 -14 q 100 68 171 -14 q 29 281 29 150 q 76 484 29 389 q 208 637 124 579 q 400 694 293 694 q 550 647 497 694 q 603 521 603 600 q 573 412 603 464 q 472 326 543 360 q 286 292 401 292 q 217 295 253 292 q 164 303 182 299 q 210 143 164 189 q 340 97 257 97 q 434 108 383 97 q 528 138 485 118 l 522 39 q 307 -14 431 -14 m 275 376 q 438 415 388 376 q 488 506 488 454 q 460 564 488 544 q 388 583 432 583 q 267 535 321 583 q 178 390 213 488 q 275 376 219 376 m 232 904 l 671 904 l 654 810 l 215 810 l 232 904 m 385 1069 l 622 1201 l 603 1061 l 374 981 l 385 1069 z "},"ḕ":{"ha":636,"x_min":29,"x_max":671,"o":"m 307 -14 q 100 68 171 -14 q 29 281 29 150 q 76 484 29 389 q 208 637 124 579 q 400 694 293 694 q 550 647 497 694 q 603 521 603 600 q 573 412 603 464 q 472 326 543 360 q 286 292 401 292 q 217 295 253 292 q 164 303 182 299 q 210 143 164 189 q 340 97 257 97 q 434 108 383 97 q 528 138 485 118 l 522 39 q 307 -14 431 -14 m 275 376 q 438 415 388 376 q 488 506 488 454 q 460 564 488 544 q 388 583 432 583 q 267 535 321 583 q 178 390 213 488 q 275 376 219 376 m 232 904 l 671 904 l 654 810 l 215 810 l 232 904 m 371 1061 l 394 1193 l 617 1061 l 601 981 l 371 1061 z "},"ę":{"ha":636,"x_min":29,"x_max":603,"o":"m 603 521 q 573 412 603 464 q 472 326 543 360 q 286 292 401 292 q 217 295 253 292 q 164 303 182 299 q 210 143 164 189 q 340 97 257 97 q 434 108 383 97 q 528 138 485 118 l 522 39 q 423 -44 458 -6 q 388 -126 388 -82 q 401 -166 388 -153 q 439 -179 415 -179 q 522 -156 479 -179 l 531 -224 q 419 -250 481 -250 q 335 -225 368 -250 q 301 -154 303 -200 q 323 -78 301 -117 q 381 -8 344 -40 q 307 -14 349 -14 q 100 68 171 -14 q 29 281 29 150 q 76 484 29 389 q 208 637 124 579 q 400 694 293 694 q 550 647 497 694 q 603 521 603 600 m 178 390 q 275 376 219 376 q 438 415 388 376 q 488 506 488 454 q 460 564 488 544 q 388 583 432 583 q 267 535 321 583 q 178 390 213 488 z "},"ẽ":{"ha":636,"x_min":29,"x_max":688,"o":"m 307 -14 q 100 68 171 -14 q 29 281 29 150 q 76 484 29 389 q 208 637 124 579 q 400 694 293 694 q 550 647 497 694 q 603 521 603 600 q 573 412 603 464 q 472 326 543 360 q 286 292 401 292 q 217 295 253 292 q 164 303 182 299 q 210 143 164 189 q 340 97 257 97 q 434 108 383 97 q 528 138 485 118 l 522 39 q 307 -14 431 -14 m 275 376 q 438 415 388 376 q 488 506 488 454 q 460 564 488 544 q 388 583 432 583 q 267 535 321 583 q 178 390 213 488 q 275 376 219 376 m 546 806 q 504 814 525 806 q 451 838 483 822 q 405 859 424 851 q 371 867 386 867 q 318 817 329 867 l 218 817 q 364 971 254 971 q 406 963 386 971 q 454 939 425 956 q 497 917 479 925 q 535 910 515 910 q 588 964 578 910 l 688 964 q 635 844 669 882 q 546 806 600 806 z "},"f":{"ha":421,"x_min":47,"x_max":504,"o":"m 150 583 l 50 583 l 81 681 l 167 681 l 197 853 q 260 992 213 943 q 399 1042 307 1042 q 504 1024 456 1042 l 469 918 q 401 931 438 931 q 357 918 372 931 q 332 872 342 906 q 308 764 322 839 l 293 681 l 450 681 l 432 583 l 276 583 l 174 0 l 47 0 l 150 583 z "},"g":{"ha":638,"x_min":-58,"x_max":668,"o":"m 200 -347 q 51 -320 110 -347 q -33 -253 -7 -293 q -58 -171 -58 -212 q -27 -72 -58 -124 q 78 11 4 -19 q 43 48 54 26 q 32 86 32 69 q 54 144 32 111 q 119 199 76 176 q 51 381 51 271 q 89 533 51 461 q 195 650 126 606 q 354 694 264 694 q 499 644 440 694 q 649 683 564 683 l 668 683 l 642 600 l 604 600 q 576 597 594 600 q 542 590 557 594 q 568 468 568 536 q 530 321 568 393 q 424 203 492 249 q 268 157 356 157 q 188 169 224 157 q 156 124 156 147 q 189 89 156 101 q 322 56 222 76 q 479 0 417 36 q 542 -112 542 -36 q 499 -225 542 -171 q 379 -313 457 -279 q 200 -347 301 -347 m 282 253 q 370 283 332 253 q 429 361 408 313 q 450 464 450 410 q 421 561 450 528 q 338 594 392 594 q 216 534 263 594 q 169 389 169 474 q 199 288 169 324 q 282 253 229 253 m 217 -250 q 322 -233 276 -250 q 393 -188 368 -215 q 418 -132 418 -161 q 374 -72 418 -92 q 250 -37 331 -53 q 174 -19 199 -28 q 92 -74 126 -36 q 57 -153 57 -112 q 99 -222 57 -194 q 217 -250 142 -250 z "},"ğ":{"ha":638,"x_min":-58,"x_max":668,"o":"m 200 -347 q 51 -320 110 -347 q -33 -253 -7 -293 q -58 -171 -58 -212 q -27 -72 -58 -124 q 78 11 4 -19 q 43 48 54 26 q 32 86 32 69 q 54 144 32 111 q 119 199 76 176 q 51 381 51 271 q 89 533 51 461 q 195 650 126 606 q 354 694 264 694 q 499 644 440 694 q 649 683 564 683 l 668 683 l 642 600 l 604 600 q 576 597 594 600 q 542 590 557 594 q 568 468 568 536 q 530 321 568 393 q 424 203 492 249 q 268 157 356 157 q 188 169 224 157 q 156 124 156 147 q 189 89 156 101 q 322 56 222 76 q 479 0 417 36 q 542 -112 542 -36 q 499 -225 542 -171 q 379 -313 457 -279 q 200 -347 301 -347 m 282 253 q 370 283 332 253 q 429 361 408 313 q 450 464 450 410 q 421 561 450 528 q 338 594 392 594 q 216 534 263 594 q 169 389 169 474 q 199 288 169 324 q 282 253 229 253 m 217 -250 q 322 -233 276 -250 q 393 -188 368 -215 q 418 -132 418 -161 q 374 -72 418 -92 q 250 -37 331 -53 q 174 -19 199 -28 q 92 -74 126 -36 q 57 -153 57 -112 q 99 -222 57 -194 q 217 -250 142 -250 m 376 800 q 248 840 292 800 q 204 940 204 879 q 210 976 204 960 l 318 976 q 314 953 314 967 q 333 908 314 924 q 388 892 353 892 q 454 913 426 892 q 489 976 482 935 l 604 976 q 533 849 592 899 q 376 800 474 800 z "},"ǧ":{"ha":638,"x_min":-58,"x_max":668,"o":"m 200 -347 q 51 -320 110 -347 q -33 -253 -7 -293 q -58 -171 -58 -212 q -27 -72 -58 -124 q 78 11 4 -19 q 43 48 54 26 q 32 86 32 69 q 54 144 32 111 q 119 199 76 176 q 51 381 51 271 q 89 533 51 461 q 195 650 126 606 q 354 694 264 694 q 499 644 440 694 q 649 683 564 683 l 668 683 l 642 600 l 604 600 q 576 597 594 600 q 542 590 557 594 q 568 468 568 536 q 530 321 568 393 q 424 203 492 249 q 268 157 356 157 q 188 169 224 157 q 156 124 156 147 q 189 89 156 101 q 322 56 222 76 q 479 0 417 36 q 542 -112 542 -36 q 499 -225 542 -171 q 379 -313 457 -279 q 200 -347 301 -347 m 282 253 q 370 283 332 253 q 429 361 408 313 q 450 464 450 410 q 421 561 450 528 q 338 594 392 594 q 216 534 263 594 q 169 389 169 474 q 199 288 169 324 q 282 253 229 253 m 217 -250 q 322 -233 276 -250 q 393 -188 368 -215 q 418 -132 418 -161 q 374 -72 418 -92 q 250 -37 331 -53 q 174 -19 199 -28 q 92 -74 126 -36 q 57 -153 57 -112 q 99 -222 57 -194 q 217 -250 142 -250 m 218 928 l 235 1013 l 389 901 l 578 1013 l 561 908 l 364 775 l 218 928 z "},"ĝ":{"ha":638,"x_min":-58,"x_max":668,"o":"m 200 -347 q 51 -320 110 -347 q -33 -253 -7 -293 q -58 -171 -58 -212 q -27 -72 -58 -124 q 78 11 4 -19 q 43 48 54 26 q 32 86 32 69 q 54 144 32 111 q 119 199 76 176 q 51 381 51 271 q 89 533 51 461 q 195 650 126 606 q 354 694 264 694 q 499 644 440 694 q 649 683 564 683 l 668 683 l 642 600 l 604 600 q 576 597 594 600 q 542 590 557 594 q 568 468 568 536 q 530 321 568 393 q 424 203 492 249 q 268 157 356 157 q 188 169 224 157 q 156 124 156 147 q 189 89 156 101 q 322 56 222 76 q 479 0 417 36 q 542 -112 542 -36 q 499 -225 542 -171 q 379 -313 457 -279 q 200 -347 301 -347 m 282 253 q 370 283 332 253 q 429 361 408 313 q 450 464 450 410 q 421 561 450 528 q 338 594 392 594 q 216 534 263 594 q 169 389 169 474 q 199 288 169 324 q 282 253 229 253 m 217 -250 q 322 -233 276 -250 q 393 -188 368 -215 q 418 -132 418 -161 q 374 -72 418 -92 q 250 -37 331 -53 q 174 -19 199 -28 q 92 -74 126 -36 q 57 -153 57 -112 q 99 -222 57 -194 q 217 -250 142 -250 m 235 886 l 413 1021 l 558 868 l 542 783 l 388 894 l 214 797 l 235 886 z "},"ģ":{"ha":638,"x_min":-58,"x_max":668,"o":"m 200 -347 q 51 -320 110 -347 q -33 -253 -7 -293 q -58 -171 -58 -212 q -27 -72 -58 -124 q 78 11 4 -19 q 43 48 54 26 q 32 86 32 69 q 54 144 32 111 q 119 199 76 176 q 51 381 51 271 q 89 533 51 461 q 195 650 126 606 q 354 694 264 694 q 499 644 440 694 q 649 683 564 683 l 668 683 l 642 600 l 604 600 q 576 597 594 600 q 542 590 557 594 q 568 468 568 536 q 530 321 568 393 q 424 203 492 249 q 268 157 356 157 q 188 169 224 157 q 156 124 156 147 q 189 89 156 101 q 322 56 222 76 q 479 0 417 36 q 542 -112 542 -36 q 499 -225 542 -171 q 379 -313 457 -279 q 200 -347 301 -347 m 282 253 q 370 283 332 253 q 429 361 408 313 q 450 464 450 410 q 421 561 450 528 q 338 594 392 594 q 216 534 263 594 q 169 389 169 474 q 199 288 169 324 q 282 253 229 253 m 217 -250 q 322 -233 276 -250 q 393 -188 368 -215 q 418 -132 418 -161 q 374 -72 418 -92 q 250 -37 331 -53 q 174 -19 199 -28 q 92 -74 126 -36 q 57 -153 57 -112 q 99 -222 57 -194 q 217 -250 142 -250 z "},"ġ":{"ha":638,"x_min":-58,"x_max":668,"o":"m 200 -347 q 51 -320 110 -347 q -33 -253 -7 -293 q -58 -171 -58 -212 q -27 -72 -58 -124 q 78 11 4 -19 q 43 48 54 26 q 32 86 32 69 q 54 144 32 111 q 119 199 76 176 q 51 381 51 271 q 89 533 51 461 q 195 650 126 606 q 354 694 264 694 q 499 644 440 694 q 649 683 564 683 l 668 683 l 642 600 l 604 600 q 576 597 594 600 q 542 590 557 594 q 568 468 568 536 q 530 321 568 393 q 424 203 492 249 q 268 157 356 157 q 188 169 224 157 q 156 124 156 147 q 189 89 156 101 q 322 56 222 76 q 479 0 417 36 q 542 -112 542 -36 q 499 -225 542 -171 q 379 -313 457 -279 q 200 -347 301 -347 m 282 253 q 370 283 332 253 q 429 361 408 313 q 450 464 450 410 q 421 561 450 528 q 338 594 392 594 q 216 534 263 594 q 169 389 169 474 q 199 288 169 324 q 282 253 229 253 m 217 -250 q 322 -233 276 -250 q 393 -188 368 -215 q 418 -132 418 -161 q 374 -72 418 -92 q 250 -37 331 -53 q 174 -19 199 -28 q 92 -74 126 -36 q 57 -153 57 -112 q 99 -222 57 -194 q 217 -250 142 -250 m 333 946 l 461 946 l 436 821 l 308 821 l 333 946 z "},"ḡ":{"ha":638,"x_min":-58,"x_max":668,"o":"m 200 -347 q 51 -320 110 -347 q -33 -253 -7 -293 q -58 -171 -58 -212 q -27 -72 -58 -124 q 78 11 4 -19 q 43 48 54 26 q 32 86 32 69 q 54 144 32 111 q 119 199 76 176 q 51 381 51 271 q 89 533 51 461 q 195 650 126 606 q 354 694 264 694 q 499 644 440 694 q 649 683 564 683 l 668 683 l 642 600 l 604 600 q 576 597 594 600 q 542 590 557 594 q 568 468 568 536 q 530 321 568 393 q 424 203 492 249 q 268 157 356 157 q 188 169 224 157 q 156 124 156 147 q 189 89 156 101 q 322 56 222 76 q 479 0 417 36 q 542 -112 542 -36 q 499 -225 542 -171 q 379 -313 457 -279 q 200 -347 301 -347 m 282 253 q 370 283 332 253 q 429 361 408 313 q 450 464 450 410 q 421 561 450 528 q 338 594 392 594 q 216 534 263 594 q 169 389 169 474 q 199 288 169 324 q 282 253 229 253 m 217 -250 q 322 -233 276 -250 q 393 -188 368 -215 q 418 -132 418 -161 q 374 -72 418 -92 q 250 -37 331 -53 q 174 -19 199 -28 q 92 -74 126 -36 q 57 -153 57 -112 q 99 -222 57 -194 q 217 -250 142 -250 m 176 919 l 610 919 l 590 821 l 157 821 l 176 919 z "},"h":{"ha":703,"x_min":14,"x_max":628,"o":"m 197 1042 l 325 1042 l 247 607 q 337 674 290 654 q 442 694 383 694 q 581 635 533 694 q 628 483 628 575 q 613 343 628 431 l 553 0 l 426 0 l 485 340 q 500 467 500 429 q 471 552 500 521 q 390 583 442 583 q 303 560 342 583 q 228 494 264 538 l 140 0 l 14 0 l 197 1042 z "},"ħ":{"ha":703,"x_min":14,"x_max":628,"o":"m 442 694 q 581 635 533 694 q 628 483 628 575 q 613 343 628 431 l 553 0 l 426 0 l 485 340 q 500 467 500 429 q 471 552 500 521 q 390 583 442 583 q 303 560 342 583 q 228 494 264 538 l 140 0 l 14 0 l 160 825 l 76 825 l 93 913 l 175 913 l 197 1042 l 325 1042 l 301 913 l 490 913 l 474 825 l 286 825 l 247 607 q 337 674 290 654 q 442 694 383 694 z "},"ḫ":{"ha":703,"x_min":14,"x_max":628,"o":"m 197 1042 l 325 1042 l 247 607 q 337 674 290 654 q 442 694 383 694 q 581 635 533 694 q 628 483 628 575 q 613 343 628 431 l 553 0 l 426 0 l 485 340 q 500 467 500 429 q 471 552 500 521 q 390 583 442 583 q 303 560 342 583 q 228 494 264 538 l 140 0 l 14 0 l 197 1042 m 232 -303 q 103 -263 147 -303 q 60 -162 60 -224 q 65 -126 60 -143 l 174 -126 q 169 -150 169 -137 q 189 -195 169 -179 q 243 -211 208 -211 q 310 -190 282 -211 q 344 -126 338 -168 l 460 -126 q 388 -253 447 -204 q 232 -303 329 -303 z "},"ĥ":{"ha":703,"x_min":14,"x_max":628,"o":"m 197 1042 l 325 1042 l 247 607 q 337 674 290 654 q 442 694 383 694 q 581 635 533 694 q 628 483 628 575 q 613 343 628 431 l 553 0 l 426 0 l 485 340 q 500 467 500 429 q 471 552 500 521 q 390 583 442 583 q 303 560 342 583 q 228 494 264 538 l 140 0 l 14 0 l 197 1042 m 465 1200 l 451 1115 l 290 1207 l 131 1132 l 144 1217 l 311 1325 l 465 1200 z "},"ḥ":{"ha":703,"x_min":14,"x_max":628,"o":"m 197 1042 l 325 1042 l 247 607 q 337 674 290 654 q 442 694 383 694 q 581 635 533 694 q 628 483 628 575 q 613 343 628 431 l 553 0 l 426 0 l 485 340 q 500 467 500 429 q 471 552 500 521 q 390 583 442 583 q 303 560 342 583 q 228 494 264 538 l 140 0 l 14 0 l 197 1042 m 200 -112 l 328 -112 l 303 -237 l 175 -237 l 200 -112 z "},"i":{"ha":297,"x_min":14,"x_max":311,"o":"m 185 972 l 311 972 l 288 833 l 161 833 l 185 972 m 133 681 l 260 681 l 140 0 l 14 0 l 133 681 z "},"ı":{"ha":297,"x_min":14,"x_max":260,"o":"m 133 681 l 260 681 l 140 0 l 14 0 l 133 681 z "},"í":{"ha":297,"x_min":14,"x_max":375,"o":"m 133 681 l 260 681 l 140 0 l 14 0 l 133 681 m 121 893 l 375 1038 l 351 883 l 104 799 l 121 893 z "},"ĭ":{"ha":297,"x_min":14,"x_max":456,"o":"m 133 681 l 260 681 l 140 0 l 14 0 l 133 681 m 228 800 q 99 840 143 800 q 56 940 56 879 q 61 976 56 960 l 169 976 q 165 953 165 967 q 185 908 165 924 q 239 892 204 892 q 306 913 278 892 q 340 976 333 935 l 456 976 q 384 849 443 899 q 228 800 325 800 z "},"î":{"ha":297,"x_min":14,"x_max":410,"o":"m 133 681 l 260 681 l 140 0 l 14 0 l 133 681 m 86 886 l 264 1021 l 410 868 l 393 783 l 239 894 l 65 797 l 86 886 z "},"ȉ":{"ha":297,"x_min":-25,"x_max":361,"o":"m 133 681 l 260 681 l 140 0 l 14 0 l 133 681 m 76 803 l -25 1035 l 111 1035 l 168 803 l 76 803 m 269 803 l 175 1035 l 311 1035 l 361 803 l 269 803 z "},"ï":{"ha":297,"x_min":14,"x_max":433,"o":"m 133 681 l 260 681 l 140 0 l 14 0 l 133 681 m 58 932 l 175 932 l 153 821 l 36 821 l 58 932 m 317 932 l 433 932 l 411 821 l 294 821 l 317 932 z "},"ḯ":{"ha":297,"x_min":14,"x_max":425,"o":"m 133 681 l 260 681 l 140 0 l 14 0 l 133 681 m 53 915 l 169 915 l 150 811 l 33 811 l 53 915 m 308 915 l 425 915 l 406 811 l 289 811 l 308 915 m 157 1081 l 394 1213 l 375 1072 l 146 992 l 157 1081 z "},"ị":{"ha":297,"x_min":-32,"x_max":311,"o":"m 185 972 l 311 972 l 288 833 l 161 833 l 185 972 m 133 681 l 260 681 l 140 0 l 14 0 l 133 681 m -7 -112 l 121 -112 l 96 -237 l -32 -237 l -7 -112 z "},"ì":{"ha":297,"x_min":14,"x_max":356,"o":"m 133 681 l 260 681 l 140 0 l 14 0 l 133 681 m 111 896 l 135 1032 l 356 885 l 340 800 l 111 896 z "},"ỉ":{"ha":297,"x_min":14,"x_max":353,"o":"m 133 681 l 260 681 l 140 0 l 14 0 l 133 681 m 189 775 q 251 832 233 811 q 269 881 269 853 q 221 918 269 918 q 129 892 185 918 l 118 963 q 235 989 174 989 q 319 965 288 989 q 353 896 351 940 q 321 807 353 846 q 228 729 289 768 l 189 775 z "},"ȋ":{"ha":297,"x_min":13,"x_max":421,"o":"m 133 681 l 260 681 l 140 0 l 14 0 l 133 681 m 246 976 q 377 936 333 976 q 421 832 421 896 q 418 800 421 822 l 310 800 q 311 818 311 806 q 290 867 311 850 q 233 885 268 885 q 163 863 193 885 q 126 800 133 840 l 13 800 q 86 925 25 874 q 246 976 147 976 z "},"ĳ":{"ha":594,"x_min":14,"x_max":610,"o":"m 185 972 l 311 972 l 288 833 l 161 833 l 185 972 m 133 681 l 260 681 l 140 0 l 14 0 l 133 681 m 483 972 l 610 972 l 585 833 l 458 833 l 483 972 m 183 -240 q 240 -224 221 -236 q 272 -185 260 -212 q 293 -101 283 -158 l 431 681 l 557 681 l 411 -149 q 345 -278 394 -237 q 224 -329 296 -318 l 179 -336 l 183 -240 z "},"ī":{"ha":297,"x_min":8,"x_max":461,"o":"m 133 681 l 260 681 l 140 0 l 14 0 l 133 681 m 28 919 l 461 919 l 442 821 l 8 821 l 28 919 z "},"į":{"ha":297,"x_min":-81,"x_max":313,"o":"m 133 681 l 260 681 l 140 0 l 14 0 l 133 681 m 185 946 l 313 946 l 288 821 l 160 821 l 185 946 m 140 0 q 41 -83 76 -44 q 6 -165 6 -121 q 19 -205 6 -192 q 57 -218 32 -218 q 140 -194 97 -218 l 149 -262 q 38 -289 99 -289 q -47 -264 -14 -289 q -81 -193 -79 -239 q -37 -85 -81 -137 q 67 0 7 -32 l 140 0 z "},"ĩ":{"ha":297,"x_min":3,"x_max":472,"o":"m 133 681 l 260 681 l 140 0 l 14 0 l 133 681 m 331 806 q 289 814 310 806 q 236 838 268 822 q 190 859 208 851 q 156 867 171 867 q 103 817 114 867 l 3 817 q 149 971 39 971 q 190 963 171 971 q 239 939 210 956 q 282 917 264 925 q 319 910 300 910 q 372 964 363 910 l 472 964 q 419 844 454 882 q 331 806 385 806 z "},"j":{"ha":297,"x_min":-118,"x_max":313,"o":"m 186 972 l 313 972 l 288 833 l 161 833 l 186 972 m -114 -240 q -57 -224 -76 -236 q -26 -185 -37 -212 q -4 -101 -14 -158 l 133 681 l 260 681 l 114 -149 q 48 -278 97 -237 q -74 -329 -1 -318 l -118 -336 l -114 -240 z "},"ȷ":{"ha":297,"x_min":-118,"x_max":260,"o":"m -114 -240 q -57 -224 -76 -236 q -26 -185 -37 -212 q -4 -101 -14 -158 l 133 681 l 260 681 l 114 -149 q 48 -278 97 -237 q -74 -329 -1 -318 l -118 -336 l -114 -240 z "},"ĵ":{"ha":297,"x_min":-118,"x_max":410,"o":"m -114 -240 q -57 -224 -76 -236 q -26 -185 -37 -212 q -4 -101 -14 -158 l 133 681 l 260 681 l 114 -149 q 48 -278 97 -237 q -74 -329 -1 -318 l -118 -336 l -114 -240 m 86 886 l 264 1021 l 410 868 l 393 783 l 239 894 l 65 797 l 86 886 z "},"k":{"ha":594,"x_min":14,"x_max":626,"o":"m 197 1042 l 324 1042 l 206 374 l 476 681 l 626 681 l 326 367 l 510 0 l 361 0 l 201 346 l 140 0 l 14 0 l 197 1042 z "},"ķ":{"ha":594,"x_min":14,"x_max":626,"o":"m 197 1042 l 324 1042 l 206 374 l 476 681 l 626 681 l 326 367 l 510 0 l 361 0 l 201 346 l 140 0 l 14 0 l 197 1042 m 138 -364 l 199 -246 l 149 -246 l 169 -126 l 303 -126 l 282 -246 l 189 -364 l 138 -364 z "},"ĸ":{"ha":631,"x_min":14,"x_max":672,"o":"m 133 681 l 260 681 l 206 374 l 518 681 l 672 681 l 329 356 l 547 0 l 403 0 l 201 346 l 140 0 l 14 0 l 133 681 z "},"l":{"ha":325,"x_min":33,"x_max":319,"o":"m 167 -14 q 65 19 97 -14 q 33 106 33 51 q 47 208 33 122 l 193 1042 l 319 1042 l 172 196 q 165 142 165 153 q 182 97 165 108 q 243 86 199 86 l 210 -14 l 167 -14 z "},"ĺ":{"ha":325,"x_min":33,"x_max":415,"o":"m 167 -14 q 65 19 97 -14 q 33 106 33 51 q 47 208 33 122 l 193 1042 l 319 1042 l 172 196 q 165 142 165 153 q 182 97 165 108 q 243 86 199 86 l 210 -14 l 167 -14 m 178 1219 l 415 1351 l 396 1211 l 167 1131 l 178 1219 z "},"ľ":{"ha":357,"x_min":33,"x_max":504,"o":"m 167 -14 q 65 19 97 -14 q 33 106 33 51 q 47 208 33 122 l 193 1042 l 319 1042 l 172 196 q 165 142 165 153 q 182 97 165 108 q 243 86 199 86 l 210 -14 l 167 -14 m 375 1042 l 504 1042 l 424 810 l 333 810 l 375 1042 z "},"ļ":{"ha":325,"x_min":33,"x_max":319,"o":"m 167 -14 q 65 19 97 -14 q 33 106 33 51 q 47 208 33 122 l 193 1042 l 319 1042 l 172 196 q 165 142 165 153 q 182 97 165 108 q 243 86 199 86 l 210 -14 l 167 -14 m 49 -364 l 110 -246 l 60 -246 l 81 -126 l 214 -126 l 193 -246 l 100 -364 l 49 -364 z "},"ŀ":{"ha":394,"x_min":33,"x_max":443,"o":"m 167 -14 q 65 19 97 -14 q 33 106 33 51 q 47 208 33 122 l 193 1042 l 319 1042 l 172 196 q 165 142 165 153 q 182 97 165 108 q 243 86 199 86 l 210 -14 l 167 -14 m 324 639 l 443 639 l 421 514 l 301 514 l 324 639 z "},"ḷ":{"ha":325,"x_min":33,"x_max":319,"o":"m 167 -14 q 65 19 97 -14 q 33 106 33 51 q 47 208 33 122 l 193 1042 l 319 1042 l 172 196 q 165 142 165 153 q 182 97 165 108 q 243 86 199 86 l 210 -14 l 167 -14 m 79 -112 l 207 -112 l 182 -237 l 54 -237 l 79 -112 z "},"ǉ":{"ha":622,"x_min":33,"x_max":638,"o":"m 167 -14 q 65 19 97 -14 q 33 106 33 51 q 47 208 33 122 l 193 1042 l 319 1042 l 172 196 q 165 142 165 153 q 182 97 165 108 q 243 86 199 86 l 210 -14 l 167 -14 m 511 972 l 638 972 l 613 833 l 486 833 l 511 972 m 211 -240 q 268 -224 249 -236 q 299 -185 288 -212 q 321 -101 311 -158 l 458 681 l 585 681 l 439 -149 q 373 -278 422 -237 q 251 -329 324 -318 l 207 -336 l 211 -240 z "},"ḻ":{"ha":325,"x_min":-92,"x_max":361,"o":"m 167 -14 q 65 19 97 -14 q 33 106 33 51 q 47 208 33 122 l 193 1042 l 319 1042 l 172 196 q 165 142 165 153 q 182 97 165 108 q 243 86 199 86 l 210 -14 l 167 -14 m -72 -126 l 361 -126 l 342 -225 l -92 -225 l -72 -126 z "},"ł":{"ha":325,"x_min":-1,"x_max":375,"o":"m 172 196 q 165 142 165 153 q 182 97 165 108 q 243 86 199 86 l 210 -14 l 167 -14 q 65 19 97 -14 q 33 106 33 51 q 47 208 33 122 l 103 528 l -1 489 l 15 585 l 119 624 l 193 1042 l 319 1042 l 256 675 l 375 719 l 358 624 l 239 579 l 172 196 z "},"m":{"ha":1113,"x_min":14,"x_max":1043,"o":"m 133 681 l 233 681 l 233 608 q 327 676 283 658 q 422 694 371 694 q 534 665 488 694 q 603 558 581 636 q 846 694 681 694 q 1043 500 1043 694 q 1026 366 1043 475 q 963 0 1008 257 l 836 0 q 897 352 881 250 q 914 472 914 454 q 888 556 914 529 q 806 583 861 583 q 676 528 718 583 q 621 394 635 472 l 551 0 l 425 0 q 488 363 475 283 q 500 464 500 442 q 473 557 500 531 q 393 583 446 583 q 228 494 286 583 l 140 0 l 14 0 l 133 681 z "},"ṃ":{"ha":1113,"x_min":14,"x_max":1043,"o":"m 133 681 l 233 681 l 233 608 q 327 676 283 658 q 422 694 371 694 q 534 665 488 694 q 603 558 581 636 q 846 694 681 694 q 1043 500 1043 694 q 1026 366 1043 475 q 963 0 1008 257 l 836 0 q 897 352 881 250 q 914 472 914 454 q 888 556 914 529 q 806 583 861 583 q 676 528 718 583 q 621 394 635 472 l 551 0 l 425 0 q 488 363 475 283 q 500 464 500 442 q 473 557 500 531 q 393 583 446 583 q 228 494 286 583 l 140 0 l 14 0 l 133 681 m 406 -112 l 533 -112 l 508 -237 l 381 -237 l 406 -112 z "},"n":{"ha":715,"x_min":14,"x_max":642,"o":"m 133 681 l 240 681 l 236 608 q 335 676 288 657 q 439 694 383 694 q 593 639 544 694 q 642 476 642 583 q 628 365 642 449 q 565 0 615 282 l 439 0 q 501 360 489 282 q 514 460 514 439 q 485 553 514 524 q 397 583 457 583 q 301 561 344 583 q 228 494 257 539 l 140 0 l 14 0 l 133 681 z "},"ń":{"ha":715,"x_min":14,"x_max":642,"o":"m 133 681 l 240 681 l 236 608 q 335 676 288 657 q 439 694 383 694 q 593 639 544 694 q 642 476 642 583 q 628 365 642 449 q 565 0 615 282 l 439 0 q 501 360 489 282 q 514 460 514 439 q 485 553 514 524 q 397 583 457 583 q 301 561 344 583 q 228 494 257 539 l 140 0 l 14 0 l 133 681 m 342 893 l 596 1038 l 572 883 l 325 799 l 342 893 z "},"ŉ":{"ha":833,"x_min":14,"x_max":642,"o":"m 56 735 l 117 853 l 67 853 l 88 972 l 221 972 l 200 853 l 107 735 l 56 735 m 133 681 l 240 681 l 236 608 q 335 676 288 657 q 439 694 383 694 q 593 639 544 694 q 642 476 642 583 q 628 365 642 449 q 565 0 615 282 l 439 0 q 501 360 489 282 q 514 460 514 439 q 485 553 514 524 q 397 583 457 583 q 301 561 344 583 q 228 494 257 539 l 140 0 l 14 0 l 133 681 z "},"ň":{"ha":715,"x_min":14,"x_max":650,"o":"m 133 681 l 240 681 l 236 608 q 335 676 288 657 q 439 694 383 694 q 593 639 544 694 q 642 476 642 583 q 628 365 642 449 q 565 0 615 282 l 439 0 q 501 360 489 282 q 514 460 514 439 q 485 553 514 524 q 397 583 457 583 q 301 561 344 583 q 228 494 257 539 l 140 0 l 14 0 l 133 681 m 290 928 l 307 1013 l 461 901 l 650 1013 l 633 908 l 436 775 l 290 928 z "},"ņ":{"ha":715,"x_min":14,"x_max":642,"o":"m 133 681 l 240 681 l 236 608 q 335 676 288 657 q 439 694 383 694 q 593 639 544 694 q 642 476 642 583 q 628 365 642 449 q 565 0 615 282 l 439 0 q 501 360 489 282 q 514 460 514 439 q 485 553 514 524 q 397 583 457 583 q 301 561 344 583 q 228 494 257 539 l 140 0 l 14 0 l 133 681 m 176 -364 l 238 -246 l 188 -246 l 208 -126 l 342 -126 l 321 -246 l 228 -364 l 176 -364 z "},"ṅ":{"ha":715,"x_min":14,"x_max":642,"o":"m 133 681 l 240 681 l 236 608 q 335 676 288 657 q 439 694 383 694 q 593 639 544 694 q 642 476 642 583 q 628 365 642 449 q 565 0 615 282 l 439 0 q 501 360 489 282 q 514 460 514 439 q 485 553 514 524 q 397 583 457 583 q 301 561 344 583 q 228 494 257 539 l 140 0 l 14 0 l 133 681 m 406 946 l 533 946 l 508 821 l 381 821 l 406 946 z "},"ṇ":{"ha":715,"x_min":14,"x_max":642,"o":"m 133 681 l 240 681 l 236 608 q 335 676 288 657 q 439 694 383 694 q 593 639 544 694 q 642 476 642 583 q 628 365 642 449 q 565 0 615 282 l 439 0 q 501 360 489 282 q 514 460 514 439 q 485 553 514 524 q 397 583 457 583 q 301 561 344 583 q 228 494 257 539 l 140 0 l 14 0 l 133 681 m 207 -112 l 335 -112 l 310 -237 l 182 -237 l 207 -112 z "},"ŋ":{"ha":785,"x_min":44,"x_max":679,"o":"m 608 24 q 507 -181 585 -114 q 315 -249 429 -249 q 182 -225 244 -249 l 219 -117 q 321 -137 269 -137 q 426 -97 383 -137 q 482 19 468 -57 l 544 375 q 553 451 553 419 q 524 551 553 519 q 432 583 494 583 q 333 561 379 583 q 257 494 286 539 l 171 0 l 44 0 l 164 681 l 263 681 l 264 608 q 371 676 319 657 q 476 694 422 694 q 679 474 679 694 q 669 375 679 436 l 608 24 z "},"ǌ":{"ha":1013,"x_min":14,"x_max":1028,"o":"m 133 681 l 240 681 l 236 608 q 335 676 288 657 q 439 694 383 694 q 593 639 544 694 q 642 476 642 583 q 628 365 642 449 q 565 0 615 282 l 439 0 q 501 360 489 282 q 514 460 514 439 q 485 553 514 524 q 397 583 457 583 q 301 561 344 583 q 228 494 257 539 l 140 0 l 14 0 l 133 681 m 901 972 l 1028 972 l 1003 833 l 876 833 l 901 972 m 601 -240 q 658 -224 639 -236 q 690 -185 678 -212 q 711 -101 701 -158 l 849 681 l 975 681 l 829 -149 q 763 -278 813 -237 q 642 -329 714 -318 l 597 -336 l 601 -240 z "},"ṉ":{"ha":715,"x_min":14,"x_max":642,"o":"m 133 681 l 240 681 l 236 608 q 335 676 288 657 q 439 694 383 694 q 593 639 544 694 q 642 476 642 583 q 628 365 642 449 q 565 0 615 282 l 439 0 q 501 360 489 282 q 514 460 514 439 q 485 553 514 524 q 397 583 457 583 q 301 561 344 583 q 228 494 257 539 l 140 0 l 14 0 l 133 681 m 56 -126 l 489 -126 l 469 -225 l 36 -225 l 56 -126 z "},"ñ":{"ha":715,"x_min":14,"x_max":693,"o":"m 133 681 l 240 681 l 236 608 q 335 676 288 657 q 439 694 383 694 q 593 639 544 694 q 642 476 642 583 q 628 365 642 449 q 565 0 615 282 l 439 0 q 501 360 489 282 q 514 460 514 439 q 485 553 514 524 q 397 583 457 583 q 301 561 344 583 q 228 494 257 539 l 140 0 l 14 0 l 133 681 m 551 806 q 510 814 531 806 q 457 838 489 822 q 410 859 429 851 q 376 867 392 867 q 324 817 335 867 l 224 817 q 369 971 260 971 q 411 963 392 971 q 460 939 431 956 q 503 917 485 925 q 540 910 521 910 q 593 964 583 910 l 693 964 q 640 844 675 882 q 551 806 606 806 z "},"o":{"ha":714,"x_min":29,"x_max":660,"o":"m 286 -14 q 95 66 161 -14 q 29 274 29 146 q 78 482 29 385 q 212 637 126 579 q 403 694 297 694 q 594 614 528 694 q 660 406 660 533 q 611 198 660 294 q 477 44 563 101 q 286 -14 392 -14 m 304 97 q 424 137 372 97 q 503 244 475 176 q 531 396 531 313 q 385 583 531 583 q 265 544 317 583 q 186 436 214 504 q 158 285 158 368 q 304 97 158 97 z "},"ó":{"ha":714,"x_min":29,"x_max":660,"o":"m 286 -14 q 95 66 161 -14 q 29 274 29 146 q 78 482 29 385 q 212 637 126 579 q 403 694 297 694 q 594 614 528 694 q 660 406 660 533 q 611 198 660 294 q 477 44 563 101 q 286 -14 392 -14 m 304 97 q 424 137 372 97 q 503 244 475 176 q 531 396 531 313 q 385 583 531 583 q 265 544 317 583 q 186 436 214 504 q 158 285 158 368 q 304 97 158 97 m 331 893 l 585 1038 l 561 883 l 314 799 l 331 893 z "},"ŏ":{"ha":714,"x_min":29,"x_max":665,"o":"m 286 -14 q 95 66 161 -14 q 29 274 29 146 q 78 482 29 385 q 212 637 126 579 q 403 694 297 694 q 594 614 528 694 q 660 406 660 533 q 611 198 660 294 q 477 44 563 101 q 286 -14 392 -14 m 304 97 q 424 137 372 97 q 503 244 475 176 q 531 396 531 313 q 385 583 531 583 q 265 544 317 583 q 186 436 214 504 q 158 285 158 368 q 304 97 158 97 m 438 800 q 309 840 353 800 q 265 940 265 879 q 271 976 265 960 l 379 976 q 375 953 375 967 q 394 908 375 924 q 449 892 414 892 q 515 913 488 892 q 550 976 543 935 l 665 976 q 594 849 653 899 q 438 800 535 800 z "},"ô":{"ha":714,"x_min":29,"x_max":660,"o":"m 286 -14 q 95 66 161 -14 q 29 274 29 146 q 78 482 29 385 q 212 637 126 579 q 403 694 297 694 q 594 614 528 694 q 660 406 660 533 q 611 198 660 294 q 477 44 563 101 q 286 -14 392 -14 m 304 97 q 424 137 372 97 q 503 244 475 176 q 531 396 531 313 q 385 583 531 583 q 265 544 317 583 q 186 436 214 504 q 158 285 158 368 q 304 97 158 97 m 296 886 l 474 1021 l 619 868 l 603 783 l 449 894 l 275 797 l 296 886 z "},"ố":{"ha":714,"x_min":29,"x_max":792,"o":"m 286 -14 q 95 66 161 -14 q 29 274 29 146 q 78 482 29 385 q 212 637 126 579 q 403 694 297 694 q 594 614 528 694 q 660 406 660 533 q 611 198 660 294 q 477 44 563 101 q 286 -14 392 -14 m 304 97 q 424 137 372 97 q 503 244 475 176 q 531 396 531 313 q 385 583 531 583 q 265 544 317 583 q 186 436 214 504 q 158 285 158 368 q 304 97 158 97 m 658 1113 l 792 1113 l 633 957 l 544 957 l 658 1113 m 611 839 l 597 754 l 436 846 l 276 771 l 290 856 l 457 964 l 611 839 z "},"ộ":{"ha":714,"x_min":29,"x_max":660,"o":"m 286 -14 q 95 66 161 -14 q 29 274 29 146 q 78 482 29 385 q 212 637 126 579 q 403 694 297 694 q 594 614 528 694 q 660 406 660 533 q 611 198 660 294 q 477 44 563 101 q 286 -14 392 -14 m 304 97 q 424 137 372 97 q 503 244 475 176 q 531 396 531 313 q 385 583 531 583 q 265 544 317 583 q 186 436 214 504 q 158 285 158 368 q 304 97 158 97 m 296 886 l 474 1021 l 619 868 l 603 783 l 449 894 l 275 797 l 296 886 m 201 -112 l 329 -112 l 304 -237 l 176 -237 l 201 -112 z "},"ồ":{"ha":714,"x_min":29,"x_max":660,"o":"m 286 -14 q 95 66 161 -14 q 29 274 29 146 q 78 482 29 385 q 212 637 126 579 q 403 694 297 694 q 594 614 528 694 q 660 406 660 533 q 611 198 660 294 q 477 44 563 101 q 286 -14 392 -14 m 304 97 q 424 137 372 97 q 503 244 475 176 q 531 396 531 313 q 385 583 531 583 q 265 544 317 583 q 186 436 214 504 q 158 285 158 368 q 304 97 158 97 m 536 957 l 443 1119 l 575 1119 l 625 957 l 536 957 m 611 839 l 597 754 l 436 846 l 276 771 l 290 856 l 457 964 l 611 839 z "},"ổ":{"ha":714,"x_min":29,"x_max":706,"o":"m 286 -14 q 95 66 161 -14 q 29 274 29 146 q 78 482 29 385 q 212 637 126 579 q 403 694 297 694 q 594 614 528 694 q 660 406 660 533 q 611 198 660 294 q 477 44 563 101 q 286 -14 392 -14 m 304 97 q 424 137 372 97 q 503 244 475 176 q 531 396 531 313 q 385 583 531 583 q 265 544 317 583 q 186 436 214 504 q 158 285 158 368 q 304 97 158 97 m 611 839 l 597 754 l 436 846 l 276 771 l 290 856 l 457 964 l 611 839 m 567 975 q 624 1035 624 994 q 610 1063 624 1053 q 574 1074 597 1074 q 489 1049 542 1074 l 478 1119 q 590 1144 531 1144 q 674 1120 642 1144 q 706 1051 706 1096 q 669 966 706 1000 q 569 919 632 932 l 567 975 z "},"ỗ":{"ha":714,"x_min":29,"x_max":706,"o":"m 286 -14 q 95 66 161 -14 q 29 274 29 146 q 78 482 29 385 q 212 637 126 579 q 403 694 297 694 q 594 614 528 694 q 660 406 660 533 q 611 198 660 294 q 477 44 563 101 q 286 -14 392 -14 m 304 97 q 424 137 372 97 q 503 244 475 176 q 531 396 531 313 q 385 583 531 583 q 265 544 317 583 q 186 436 214 504 q 158 285 158 368 q 304 97 158 97 m 611 839 l 597 754 l 436 846 l 276 771 l 290 856 l 457 964 l 611 839 m 575 1007 q 532 1014 554 1007 q 472 1036 510 1021 q 393 1061 414 1061 q 360 1049 374 1061 q 346 1014 347 1036 l 256 1014 q 300 1117 267 1081 q 383 1153 333 1153 q 426 1146 404 1153 q 483 1124 447 1139 q 528 1106 506 1114 q 568 1099 551 1099 q 600 1111 588 1099 q 615 1146 613 1124 l 706 1146 q 661 1042 696 1078 q 575 1007 626 1007 z "},"ȍ":{"ha":714,"x_min":29,"x_max":660,"o":"m 286 -14 q 95 66 161 -14 q 29 274 29 146 q 78 482 29 385 q 212 637 126 579 q 403 694 297 694 q 594 614 528 694 q 660 406 660 533 q 611 198 660 294 q 477 44 563 101 q 286 -14 392 -14 m 304 97 q 424 137 372 97 q 503 244 475 176 q 531 396 531 313 q 385 583 531 583 q 265 544 317 583 q 186 436 214 504 q 158 285 158 368 q 304 97 158 97 m 286 803 l 185 1035 l 321 1035 l 378 803 l 286 803 m 479 803 l 385 1035 l 521 1035 l 571 803 l 479 803 z "},"ö":{"ha":714,"x_min":29,"x_max":660,"o":"m 286 -14 q 95 66 161 -14 q 29 274 29 146 q 78 482 29 385 q 212 637 126 579 q 403 694 297 694 q 594 614 528 694 q 660 406 660 533 q 611 198 660 294 q 477 44 563 101 q 286 -14 392 -14 m 304 97 q 424 137 372 97 q 503 244 475 176 q 531 396 531 313 q 385 583 531 583 q 265 544 317 583 q 186 436 214 504 q 158 285 158 368 q 304 97 158 97 m 268 932 l 385 932 l 363 821 l 246 821 l 268 932 m 526 932 l 643 932 l 621 821 l 504 821 l 526 932 z "},"ȫ":{"ha":714,"x_min":29,"x_max":704,"o":"m 286 -14 q 95 66 161 -14 q 29 274 29 146 q 78 482 29 385 q 212 637 126 579 q 403 694 297 694 q 594 614 528 694 q 660 406 660 533 q 611 198 660 294 q 477 44 563 101 q 286 -14 392 -14 m 304 97 q 424 137 372 97 q 503 244 475 176 q 531 396 531 313 q 385 583 531 583 q 265 544 317 583 q 186 436 214 504 q 158 285 158 368 q 304 97 158 97 m 263 915 l 379 915 l 360 811 l 243 811 l 263 915 m 518 915 l 635 915 l 615 811 l 499 811 l 518 915 m 265 1126 l 704 1126 l 688 1032 l 249 1032 l 265 1126 z "},"ȱ":{"ha":714,"x_min":29,"x_max":706,"o":"m 286 -14 q 95 66 161 -14 q 29 274 29 146 q 78 482 29 385 q 212 637 126 579 q 403 694 297 694 q 594 614 528 694 q 660 406 660 533 q 611 198 660 294 q 477 44 563 101 q 286 -14 392 -14 m 304 97 q 424 137 372 97 q 503 244 475 176 q 531 396 531 313 q 385 583 531 583 q 265 544 317 583 q 186 436 214 504 q 158 285 158 368 q 304 97 158 97 m 386 932 l 517 932 l 494 807 l 364 807 l 386 932 m 267 1135 l 706 1135 l 689 1040 l 250 1040 l 267 1135 z "},"ọ":{"ha":714,"x_min":29,"x_max":660,"o":"m 286 -14 q 95 66 161 -14 q 29 274 29 146 q 78 482 29 385 q 212 637 126 579 q 403 694 297 694 q 594 614 528 694 q 660 406 660 533 q 611 198 660 294 q 477 44 563 101 q 286 -14 392 -14 m 304 97 q 424 137 372 97 q 503 244 475 176 q 531 396 531 313 q 385 583 531 583 q 265 544 317 583 q 186 436 214 504 q 158 285 158 368 q 304 97 158 97 m 201 -112 l 329 -112 l 304 -237 l 176 -237 l 201 -112 z "},"ò":{"ha":714,"x_min":29,"x_max":660,"o":"m 286 -14 q 95 66 161 -14 q 29 274 29 146 q 78 482 29 385 q 212 637 126 579 q 403 694 297 694 q 594 614 528 694 q 660 406 660 533 q 611 198 660 294 q 477 44 563 101 q 286 -14 392 -14 m 304 97 q 424 137 372 97 q 503 244 475 176 q 531 396 531 313 q 385 583 531 583 q 265 544 317 583 q 186 436 214 504 q 158 285 158 368 q 304 97 158 97 m 321 896 l 344 1032 l 565 885 l 550 800 l 321 896 z "},"ỏ":{"ha":714,"x_min":29,"x_max":660,"o":"m 286 -14 q 95 66 161 -14 q 29 274 29 146 q 78 482 29 385 q 212 637 126 579 q 403 694 297 694 q 594 614 528 694 q 660 406 660 533 q 611 198 660 294 q 477 44 563 101 q 286 -14 392 -14 m 304 97 q 424 137 372 97 q 503 244 475 176 q 531 396 531 313 q 385 583 531 583 q 265 544 317 583 q 186 436 214 504 q 158 285 158 368 q 304 97 158 97 m 399 775 q 461 832 443 811 q 479 881 479 853 q 431 918 479 918 q 339 892 394 918 l 328 963 q 444 989 383 989 q 529 965 497 989 q 563 896 561 940 q 531 807 563 846 q 438 729 499 768 l 399 775 z "},"ơ":{"ha":714,"x_min":29,"x_max":708,"o":"m 708 783 q 588 621 685 672 q 660 406 660 543 q 611 198 660 294 q 477 44 563 101 q 286 -14 392 -14 q 95 66 161 -14 q 29 274 29 146 q 78 482 29 385 q 212 637 126 579 q 403 694 297 694 q 489 682 449 694 q 589 783 571 694 l 708 783 m 304 97 q 424 137 372 97 q 503 244 475 176 q 531 396 531 313 q 385 583 531 583 q 265 544 317 583 q 186 436 214 504 q 158 285 158 368 q 304 97 158 97 z "},"ớ":{"ha":714,"x_min":29,"x_max":708,"o":"m 708 783 q 588 621 685 672 q 660 406 660 543 q 611 198 660 294 q 477 44 563 101 q 286 -14 392 -14 q 95 66 161 -14 q 29 274 29 146 q 78 482 29 385 q 212 637 126 579 q 403 694 297 694 q 489 682 449 694 q 589 783 571 694 l 708 783 m 304 97 q 424 137 372 97 q 503 244 475 176 q 531 396 531 313 q 385 583 531 583 q 265 544 317 583 q 186 436 214 504 q 158 285 158 368 q 304 97 158 97 m 331 893 l 585 1038 l 561 883 l 314 799 l 331 893 z "},"ợ":{"ha":714,"x_min":29,"x_max":708,"o":"m 708 783 q 588 621 685 672 q 660 406 660 543 q 611 198 660 294 q 477 44 563 101 q 286 -14 392 -14 q 95 66 161 -14 q 29 274 29 146 q 78 482 29 385 q 212 637 126 579 q 403 694 297 694 q 489 682 449 694 q 589 783 571 694 l 708 783 m 304 97 q 424 137 372 97 q 503 244 475 176 q 531 396 531 313 q 385 583 531 583 q 265 544 317 583 q 186 436 214 504 q 158 285 158 368 q 304 97 158 97 m 201 -112 l 329 -112 l 304 -237 l 176 -237 l 201 -112 z "},"ờ":{"ha":714,"x_min":29,"x_max":708,"o":"m 708 783 q 588 621 685 672 q 660 406 660 543 q 611 198 660 294 q 477 44 563 101 q 286 -14 392 -14 q 95 66 161 -14 q 29 274 29 146 q 78 482 29 385 q 212 637 126 579 q 403 694 297 694 q 489 682 449 694 q 589 783 571 694 l 708 783 m 304 97 q 424 137 372 97 q 503 244 475 176 q 531 396 531 313 q 385 583 531 583 q 265 544 317 583 q 186 436 214 504 q 158 285 158 368 q 304 97 158 97 m 321 896 l 344 1032 l 565 885 l 550 800 l 321 896 z "},"ở":{"ha":714,"x_min":29,"x_max":708,"o":"m 708 783 q 588 621 685 672 q 660 406 660 543 q 611 198 660 294 q 477 44 563 101 q 286 -14 392 -14 q 95 66 161 -14 q 29 274 29 146 q 78 482 29 385 q 212 637 126 579 q 403 694 297 694 q 489 682 449 694 q 589 783 571 694 l 708 783 m 304 97 q 424 137 372 97 q 503 244 475 176 q 531 396 531 313 q 385 583 531 583 q 265 544 317 583 q 186 436 214 504 q 158 285 158 368 q 304 97 158 97 m 399 775 q 461 832 443 811 q 479 881 479 853 q 431 918 479 918 q 339 892 394 918 l 328 963 q 444 989 383 989 q 529 965 497 989 q 563 896 561 940 q 531 807 563 846 q 438 729 499 768 l 399 775 z "},"ỡ":{"ha":714,"x_min":29,"x_max":708,"o":"m 708 783 q 588 621 685 672 q 660 406 660 543 q 611 198 660 294 q 477 44 563 101 q 286 -14 392 -14 q 95 66 161 -14 q 29 274 29 146 q 78 482 29 385 q 212 637 126 579 q 403 694 297 694 q 489 682 449 694 q 589 783 571 694 l 708 783 m 304 97 q 424 137 372 97 q 503 244 475 176 q 531 396 531 313 q 385 583 531 583 q 265 544 317 583 q 186 436 214 504 q 158 285 158 368 q 304 97 158 97 m 540 806 q 499 814 519 806 q 446 838 478 822 q 399 859 418 851 q 365 867 381 867 q 313 817 324 867 l 213 817 q 358 971 249 971 q 400 963 381 971 q 449 939 419 956 q 492 917 474 925 q 529 910 510 910 q 582 964 572 910 l 682 964 q 629 844 664 882 q 540 806 594 806 z "},"ő":{"ha":714,"x_min":29,"x_max":771,"o":"m 286 -14 q 95 66 161 -14 q 29 274 29 146 q 78 482 29 385 q 212 637 126 579 q 403 694 297 694 q 594 614 528 694 q 660 406 660 533 q 611 198 660 294 q 477 44 563 101 q 286 -14 392 -14 m 304 97 q 424 137 372 97 q 503 244 475 176 q 531 396 531 313 q 385 583 531 583 q 265 544 317 583 q 186 436 214 504 q 158 285 158 368 q 304 97 158 97 m 433 1035 l 569 1035 l 378 803 l 286 803 l 433 1035 m 635 1035 l 771 1035 l 572 803 l 481 803 l 635 1035 z "},"ȏ":{"ha":714,"x_min":29,"x_max":660,"o":"m 286 -14 q 95 66 161 -14 q 29 274 29 146 q 78 482 29 385 q 212 637 126 579 q 403 694 297 694 q 594 614 528 694 q 660 406 660 533 q 611 198 660 294 q 477 44 563 101 q 286 -14 392 -14 m 304 97 q 424 137 372 97 q 503 244 475 176 q 531 396 531 313 q 385 583 531 583 q 265 544 317 583 q 186 436 214 504 q 158 285 158 368 q 304 97 158 97 m 456 976 q 587 936 543 976 q 631 832 631 896 q 628 800 631 822 l 519 800 q 521 818 521 806 q 499 867 521 850 q 443 885 478 885 q 373 863 403 885 q 336 800 343 840 l 222 800 q 296 925 235 874 q 456 976 357 976 z "},"ō":{"ha":714,"x_min":29,"x_max":671,"o":"m 286 -14 q 95 66 161 -14 q 29 274 29 146 q 78 482 29 385 q 212 637 126 579 q 403 694 297 694 q 594 614 528 694 q 660 406 660 533 q 611 198 660 294 q 477 44 563 101 q 286 -14 392 -14 m 304 97 q 424 137 372 97 q 503 244 475 176 q 531 396 531 313 q 385 583 531 583 q 265 544 317 583 q 186 436 214 504 q 158 285 158 368 q 304 97 158 97 m 238 919 l 671 919 l 651 821 l 218 821 l 238 919 z "},"ṓ":{"ha":714,"x_min":29,"x_max":665,"o":"m 286 -14 q 95 66 161 -14 q 29 274 29 146 q 78 482 29 385 q 212 637 126 579 q 403 694 297 694 q 594 614 528 694 q 660 406 660 533 q 611 198 660 294 q 477 44 563 101 q 286 -14 392 -14 m 304 97 q 424 137 372 97 q 503 244 475 176 q 531 396 531 313 q 385 583 531 583 q 265 544 317 583 q 186 436 214 504 q 158 285 158 368 q 304 97 158 97 m 226 904 l 665 904 l 649 810 l 210 810 l 226 904 m 379 1069 l 617 1201 l 597 1061 l 368 981 l 379 1069 z "},"ṑ":{"ha":714,"x_min":29,"x_max":665,"o":"m 286 -14 q 95 66 161 -14 q 29 274 29 146 q 78 482 29 385 q 212 637 126 579 q 403 694 297 694 q 594 614 528 694 q 660 406 660 533 q 611 198 660 294 q 477 44 563 101 q 286 -14 392 -14 m 304 97 q 424 137 372 97 q 503 244 475 176 q 531 396 531 313 q 385 583 531 583 q 265 544 317 583 q 186 436 214 504 q 158 285 158 368 q 304 97 158 97 m 226 904 l 665 904 l 649 810 l 210 810 l 226 904 m 365 1061 l 389 1193 l 611 1061 l 596 981 l 365 1061 z "},"ǫ":{"ha":714,"x_min":29,"x_max":660,"o":"m 369 -4 q 274 -83 308 -46 q 240 -165 240 -121 q 254 -205 240 -192 q 292 -218 268 -218 q 375 -194 332 -218 l 383 -262 q 272 -289 333 -289 q 188 -264 221 -289 q 154 -193 156 -239 q 190 -96 154 -144 q 278 -14 225 -47 q 93 69 157 -11 q 29 274 29 149 q 78 482 29 385 q 212 637 126 579 q 403 694 297 694 q 594 614 528 694 q 660 406 660 533 q 623 224 660 310 q 520 77 586 138 q 369 -4 454 17 m 158 285 q 304 97 158 97 q 424 137 372 97 q 503 244 475 176 q 531 396 531 313 q 385 583 531 583 q 265 544 317 583 q 186 436 214 504 q 158 285 158 368 z "},"ø":{"ha":714,"x_min":-14,"x_max":703,"o":"m 601 604 q 660 406 660 528 q 611 198 660 294 q 477 44 563 101 q 286 -14 392 -14 q 153 18 208 -14 l 97 -56 l -14 -56 l 88 76 q 29 274 29 151 q 78 482 29 385 q 212 637 126 579 q 403 694 297 694 q 535 663 479 694 l 592 736 l 703 736 l 601 604 m 158 285 q 172 188 158 225 l 461 565 q 385 583 431 583 q 265 544 317 583 q 186 436 214 504 q 158 285 158 368 m 531 396 q 517 493 531 456 l 228 115 q 304 97 258 97 q 424 137 372 97 q 503 244 475 176 q 531 396 531 313 z "},"ǿ":{"ha":714,"x_min":-14,"x_max":703,"o":"m 601 604 q 660 406 660 528 q 611 198 660 294 q 477 44 563 101 q 286 -14 392 -14 q 153 18 208 -14 l 97 -56 l -14 -56 l 88 76 q 29 274 29 151 q 78 482 29 385 q 212 637 126 579 q 403 694 297 694 q 535 663 479 694 l 592 736 l 703 736 l 601 604 m 158 285 q 172 188 158 225 l 461 565 q 385 583 431 583 q 265 544 317 583 q 186 436 214 504 q 158 285 158 368 m 531 396 q 517 493 531 456 l 228 115 q 304 97 258 97 q 424 137 372 97 q 503 244 475 176 q 531 396 531 313 m 331 893 l 585 1038 l 561 883 l 314 799 l 331 893 z "},"õ":{"ha":714,"x_min":29,"x_max":682,"o":"m 286 -14 q 95 66 161 -14 q 29 274 29 146 q 78 482 29 385 q 212 637 126 579 q 403 694 297 694 q 594 614 528 694 q 660 406 660 533 q 611 198 660 294 q 477 44 563 101 q 286 -14 392 -14 m 304 97 q 424 137 372 97 q 503 244 475 176 q 531 396 531 313 q 385 583 531 583 q 265 544 317 583 q 186 436 214 504 q 158 285 158 368 q 304 97 158 97 m 540 806 q 499 814 519 806 q 446 838 478 822 q 399 859 418 851 q 365 867 381 867 q 313 817 324 867 l 213 817 q 358 971 249 971 q 400 963 381 971 q 449 939 419 956 q 492 917 474 925 q 529 910 510 910 q 582 964 572 910 l 682 964 q 629 844 664 882 q 540 806 594 806 z "},"ṍ":{"ha":714,"x_min":29,"x_max":667,"o":"m 286 -14 q 95 66 161 -14 q 29 274 29 146 q 78 482 29 385 q 212 637 126 579 q 403 694 297 694 q 594 614 528 694 q 660 406 660 533 q 611 198 660 294 q 477 44 563 101 q 286 -14 392 -14 m 304 97 q 424 137 372 97 q 503 244 475 176 q 531 396 531 313 q 385 583 531 583 q 265 544 317 583 q 186 436 214 504 q 158 285 158 368 q 304 97 158 97 m 536 803 q 493 810 515 803 q 433 832 471 817 q 354 857 375 857 q 322 844 335 857 q 307 810 308 832 l 217 810 q 261 913 228 876 q 344 949 294 949 q 387 942 365 949 q 444 919 408 935 q 490 902 467 910 q 529 894 513 894 q 561 907 549 894 q 576 942 574 919 l 667 942 q 622 838 657 874 q 536 803 588 803 m 371 1103 l 608 1235 l 589 1094 l 360 1014 l 371 1103 z "},"ṏ":{"ha":714,"x_min":29,"x_max":678,"o":"m 286 -14 q 95 66 161 -14 q 29 274 29 146 q 78 482 29 385 q 212 637 126 579 q 403 694 297 694 q 594 614 528 694 q 660 406 660 533 q 611 198 660 294 q 477 44 563 101 q 286 -14 392 -14 m 304 97 q 424 137 372 97 q 503 244 475 176 q 531 396 531 313 q 385 583 531 583 q 265 544 317 583 q 186 436 214 504 q 158 285 158 368 q 304 97 158 97 m 536 803 q 493 810 515 803 q 433 832 471 817 q 354 857 375 857 q 322 844 335 857 q 307 810 308 832 l 217 810 q 261 913 228 876 q 344 949 294 949 q 387 942 365 949 q 444 919 408 935 q 490 902 467 910 q 529 894 513 894 q 561 907 549 894 q 576 942 574 919 l 667 942 q 622 838 657 874 q 536 803 588 803 m 306 1160 l 422 1160 l 403 1056 l 286 1056 l 306 1160 m 561 1160 l 678 1160 l 658 1056 l 542 1056 l 561 1160 z "},"ȭ":{"ha":714,"x_min":29,"x_max":708,"o":"m 286 -14 q 95 66 161 -14 q 29 274 29 146 q 78 482 29 385 q 212 637 126 579 q 403 694 297 694 q 594 614 528 694 q 660 406 660 533 q 611 198 660 294 q 477 44 563 101 q 286 -14 392 -14 m 304 97 q 424 137 372 97 q 503 244 475 176 q 531 396 531 313 q 385 583 531 583 q 265 544 317 583 q 186 436 214 504 q 158 285 158 368 q 304 97 158 97 m 536 803 q 493 810 515 803 q 433 832 471 817 q 354 857 375 857 q 322 844 335 857 q 307 810 308 832 l 217 810 q 261 913 228 876 q 344 949 294 949 q 387 942 365 949 q 444 919 408 935 q 490 902 467 910 q 529 894 513 894 q 561 907 549 894 q 576 942 574 919 l 667 942 q 622 838 657 874 q 536 803 588 803 m 269 1149 l 708 1149 l 692 1054 l 253 1054 l 269 1149 z "},"œ":{"ha":1142,"x_min":31,"x_max":1106,"o":"m 285 -14 q 97 68 164 -14 q 31 278 31 150 q 78 487 31 392 q 210 638 125 582 q 404 694 294 694 q 545 658 483 694 q 626 553 607 622 q 742 658 674 622 q 881 694 811 694 q 1044 633 983 694 q 1106 465 1106 572 q 1100 399 1106 422 q 1089 361 1094 375 q 1081 340 1083 347 l 660 340 q 653 265 653 294 q 699 125 653 164 q 808 86 744 86 q 912 101 857 86 q 1011 138 967 115 l 1003 31 q 799 -14 908 -14 q 634 23 692 -14 q 556 135 576 60 q 440 25 513 64 q 285 -14 367 -14 m 307 97 q 430 140 378 97 q 509 251 482 182 q 536 400 536 321 q 499 533 536 483 q 393 583 463 583 q 221 499 283 583 q 158 278 158 414 q 197 144 158 192 q 307 97 235 97 m 974 426 q 976 461 976 451 q 947 551 976 519 q 861 583 918 583 q 751 543 797 583 q 678 426 704 503 l 974 426 z "},"p":{"ha":725,"x_min":-46,"x_max":669,"o":"m 133 681 l 236 681 l 232 583 q 328 667 281 640 q 438 694 376 694 q 610 613 550 694 q 669 407 669 532 q 626 201 669 299 q 503 45 582 104 q 328 -14 425 -14 q 154 86 207 -14 l 81 -336 l -46 -336 l 133 681 m 321 97 q 433 140 383 97 q 510 251 482 182 q 539 399 539 319 q 505 533 539 483 q 406 583 471 583 q 299 547 350 583 q 217 443 249 511 q 186 286 186 375 q 223 143 186 189 q 321 97 260 97 z "},"þ":{"ha":725,"x_min":-46,"x_max":669,"o":"m 197 1042 l 324 1042 l 246 614 q 444 694 329 694 q 611 613 553 694 q 669 407 669 532 q 626 201 669 299 q 503 45 582 104 q 328 -14 425 -14 q 154 86 207 -14 l 81 -336 l -46 -336 l 197 1042 m 321 97 q 433 140 383 97 q 510 251 482 182 q 539 399 539 319 q 505 533 539 483 q 406 583 471 583 q 299 547 350 583 q 217 443 249 511 q 186 286 186 375 q 223 143 186 189 q 321 97 260 97 z "},"q":{"ha":724,"x_min":29,"x_max":686,"o":"m 456 86 q 361 13 415 39 q 260 -14 307 -14 q 88 63 147 -14 q 29 263 29 139 q 75 473 29 374 q 201 633 121 572 q 383 694 282 694 q 485 667 447 694 q 554 583 524 640 l 583 681 l 686 681 l 507 -336 l 381 -336 l 456 86 m 296 97 q 401 133 351 97 q 483 235 451 168 q 514 390 514 301 q 476 536 514 489 q 376 583 439 583 q 266 542 315 583 q 189 433 217 501 q 161 285 161 364 q 194 149 161 200 q 296 97 228 97 z "},"r":{"ha":426,"x_min":14,"x_max":472,"o":"m 133 681 l 243 681 l 233 568 q 345 672 292 639 q 453 706 399 706 l 472 706 l 422 568 l 376 568 q 295 541 339 568 q 229 481 251 514 l 144 0 l 14 0 l 133 681 z "},"ŕ":{"ha":426,"x_min":14,"x_max":475,"o":"m 133 681 l 243 681 l 233 568 q 345 672 292 639 q 453 706 399 706 l 472 706 l 422 568 l 376 568 q 295 541 339 568 q 229 481 251 514 l 144 0 l 14 0 l 133 681 m 221 893 l 475 1038 l 451 883 l 204 799 l 221 893 z "},"ř":{"ha":426,"x_min":14,"x_max":529,"o":"m 133 681 l 243 681 l 233 568 q 345 672 292 639 q 453 706 399 706 l 472 706 l 422 568 l 376 568 q 295 541 339 568 q 229 481 251 514 l 144 0 l 14 0 l 133 681 m 169 928 l 186 1013 l 340 901 l 529 1013 l 513 908 l 315 775 l 169 928 z "},"ŗ":{"ha":426,"x_min":-35,"x_max":472,"o":"m 133 681 l 243 681 l 233 568 q 345 672 292 639 q 453 706 399 706 l 472 706 l 422 568 l 376 568 q 295 541 339 568 q 229 481 251 514 l 144 0 l 14 0 l 133 681 m -35 -364 l 26 -246 l -24 -246 l -3 -126 l 131 -126 l 110 -246 l 17 -364 l -35 -364 z "},"ȑ":{"ha":426,"x_min":14,"x_max":472,"o":"m 133 681 l 243 681 l 233 568 q 345 672 292 639 q 453 706 399 706 l 472 706 l 422 568 l 376 568 q 295 541 339 568 q 229 481 251 514 l 144 0 l 14 0 l 133 681 m 176 803 l 75 1035 l 211 1035 l 268 803 l 176 803 m 369 803 l 275 1035 l 411 1035 l 461 803 l 369 803 z "},"ṛ":{"ha":426,"x_min":-29,"x_max":472,"o":"m 133 681 l 243 681 l 233 568 q 345 672 292 639 q 453 706 399 706 l 472 706 l 422 568 l 376 568 q 295 541 339 568 q 229 481 251 514 l 144 0 l 14 0 l 133 681 m -4 -112 l 124 -112 l 99 -237 l -29 -237 l -4 -112 z "},"ȓ":{"ha":426,"x_min":14,"x_max":521,"o":"m 133 681 l 243 681 l 233 568 q 345 672 292 639 q 453 706 399 706 l 472 706 l 422 568 l 376 568 q 295 541 339 568 q 229 481 251 514 l 144 0 l 14 0 l 133 681 m 346 976 q 477 936 433 976 q 521 832 521 896 q 518 800 521 822 l 410 800 q 411 818 411 806 q 390 867 411 850 q 333 885 368 885 q 263 863 293 885 q 226 800 233 840 l 113 800 q 186 925 125 874 q 346 976 247 976 z "},"ṟ":{"ha":426,"x_min":-175,"x_max":472,"o":"m 133 681 l 243 681 l 233 568 q 345 672 292 639 q 453 706 399 706 l 472 706 l 422 568 l 376 568 q 295 541 339 568 q 229 481 251 514 l 144 0 l 14 0 l 133 681 m -156 -126 l 278 -126 l 258 -225 l -175 -225 l -156 -126 z "},"s":{"ha":540,"x_min":-14,"x_max":508,"o":"m 192 -14 q 66 4 117 -14 q -14 46 15 22 l 21 167 q 95 119 47 140 q 203 97 143 97 q 299 124 267 97 q 331 194 331 150 q 303 258 331 238 q 229 294 276 279 q 146 327 178 311 q 92 375 114 343 q 71 460 71 407 q 99 570 71 517 q 186 659 126 624 q 339 694 246 694 q 508 650 440 694 l 475 536 q 415 579 451 563 q 331 596 378 596 q 235 569 272 596 q 197 493 197 542 q 223 436 197 454 q 321 393 249 418 q 423 335 383 371 q 463 222 463 299 q 441 117 463 171 q 359 25 419 64 q 192 -14 299 -14 z "},"ś":{"ha":540,"x_min":-14,"x_max":508,"o":"m 192 -14 q 66 4 117 -14 q -14 46 15 22 l 21 167 q 95 119 47 140 q 203 97 143 97 q 299 124 267 97 q 331 194 331 150 q 303 258 331 238 q 229 294 276 279 q 146 327 178 311 q 92 375 114 343 q 71 460 71 407 q 99 570 71 517 q 186 659 126 624 q 339 694 246 694 q 508 650 440 694 l 475 536 q 415 579 451 563 q 331 596 378 596 q 235 569 272 596 q 197 493 197 542 q 223 436 197 454 q 321 393 249 418 q 423 335 383 371 q 463 222 463 299 q 441 117 463 171 q 359 25 419 64 q 192 -14 299 -14 m 253 893 l 507 1038 l 483 883 l 236 799 l 253 893 z "},"ṥ":{"ha":540,"x_min":-14,"x_max":508,"o":"m 192 -14 q 66 4 117 -14 q -14 46 15 22 l 21 167 q 95 119 47 140 q 203 97 143 97 q 299 124 267 97 q 331 194 331 150 q 303 258 331 238 q 229 294 276 279 q 146 327 178 311 q 92 375 114 343 q 71 460 71 407 q 99 570 71 517 q 186 659 126 624 q 339 694 246 694 q 508 650 440 694 l 475 536 q 415 579 451 563 q 331 596 378 596 q 235 569 272 596 q 197 493 197 542 q 223 436 197 454 q 321 393 249 418 q 423 335 383 371 q 463 222 463 299 q 441 117 463 171 q 359 25 419 64 q 192 -14 299 -14 m 250 858 l 488 990 l 468 850 l 239 769 l 250 858 m 357 1185 l 488 1185 l 465 1060 l 335 1060 l 357 1185 z "},"š":{"ha":540,"x_min":-14,"x_max":561,"o":"m 192 -14 q 66 4 117 -14 q -14 46 15 22 l 21 167 q 95 119 47 140 q 203 97 143 97 q 299 124 267 97 q 331 194 331 150 q 303 258 331 238 q 229 294 276 279 q 146 327 178 311 q 92 375 114 343 q 71 460 71 407 q 99 570 71 517 q 186 659 126 624 q 339 694 246 694 q 508 650 440 694 l 475 536 q 415 579 451 563 q 331 596 378 596 q 235 569 272 596 q 197 493 197 542 q 223 436 197 454 q 321 393 249 418 q 423 335 383 371 q 463 222 463 299 q 441 117 463 171 q 359 25 419 64 q 192 -14 299 -14 m 201 928 l 218 1013 l 372 901 l 561 1013 l 544 908 l 347 775 l 201 928 z "},"ṧ":{"ha":540,"x_min":-14,"x_max":525,"o":"m 192 -14 q 66 4 117 -14 q -14 46 15 22 l 21 167 q 95 119 47 140 q 203 97 143 97 q 299 124 267 97 q 331 194 331 150 q 303 258 331 238 q 229 294 276 279 q 146 327 178 311 q 92 375 114 343 q 71 460 71 407 q 99 570 71 517 q 186 659 126 624 q 339 694 246 694 q 508 650 440 694 l 475 536 q 415 579 451 563 q 331 596 378 596 q 235 569 272 596 q 197 493 197 542 q 223 436 197 454 q 321 393 249 418 q 423 335 383 371 q 463 222 463 299 q 441 117 463 171 q 359 25 419 64 q 192 -14 299 -14 m 183 879 l 197 964 l 358 872 l 525 958 l 513 868 l 338 754 l 183 879 m 347 1138 l 478 1138 l 456 1013 l 325 1013 l 347 1138 z "},"ş":{"ha":540,"x_min":-14,"x_max":508,"o":"m 339 694 q 508 650 440 694 l 475 536 q 415 579 451 563 q 331 596 378 596 q 235 569 272 596 q 197 493 197 542 q 223 436 197 454 q 321 393 249 418 q 423 335 383 371 q 463 222 463 299 q 412 70 463 142 q 232 -12 361 -1 l 200 -75 l 211 -75 q 288 -99 260 -75 q 315 -167 315 -124 q 266 -272 315 -231 q 143 -314 217 -314 q 39 -287 83 -314 l 72 -219 q 156 -243 111 -243 q 213 -226 192 -243 q 233 -182 233 -208 q 172 -135 233 -135 q 106 -146 139 -135 l 163 -12 q 55 8 99 -8 q -14 46 11 25 l 21 167 q 95 119 47 140 q 203 97 143 97 q 299 124 267 97 q 331 194 331 150 q 303 258 331 238 q 229 294 276 279 q 146 327 178 311 q 92 375 114 343 q 71 460 71 407 q 99 570 71 517 q 186 659 126 624 q 339 694 246 694 z "},"ŝ":{"ha":540,"x_min":-14,"x_max":542,"o":"m 192 -14 q 66 4 117 -14 q -14 46 15 22 l 21 167 q 95 119 47 140 q 203 97 143 97 q 299 124 267 97 q 331 194 331 150 q 303 258 331 238 q 229 294 276 279 q 146 327 178 311 q 92 375 114 343 q 71 460 71 407 q 99 570 71 517 q 186 659 126 624 q 339 694 246 694 q 508 650 440 694 l 475 536 q 415 579 451 563 q 331 596 378 596 q 235 569 272 596 q 197 493 197 542 q 223 436 197 454 q 321 393 249 418 q 423 335 383 371 q 463 222 463 299 q 441 117 463 171 q 359 25 419 64 q 192 -14 299 -14 m 218 886 l 396 1021 l 542 868 l 525 783 l 371 894 l 197 797 l 218 886 z "},"ș":{"ha":540,"x_min":-14,"x_max":508,"o":"m 192 -14 q 66 4 117 -14 q -14 46 15 22 l 21 167 q 95 119 47 140 q 203 97 143 97 q 299 124 267 97 q 331 194 331 150 q 303 258 331 238 q 229 294 276 279 q 146 327 178 311 q 92 375 114 343 q 71 460 71 407 q 99 570 71 517 q 186 659 126 624 q 339 694 246 694 q 508 650 440 694 l 475 536 q 415 579 451 563 q 331 596 378 596 q 235 569 272 596 q 197 493 197 542 q 223 436 197 454 q 321 393 249 418 q 423 335 383 371 q 463 222 463 299 q 441 117 463 171 q 359 25 419 64 q 192 -14 299 -14 m 85 -364 l 146 -246 l 96 -246 l 117 -126 l 250 -126 l 229 -246 l 136 -364 l 85 -364 z "},"ṡ":{"ha":540,"x_min":-14,"x_max":508,"o":"m 192 -14 q 66 4 117 -14 q -14 46 15 22 l 21 167 q 95 119 47 140 q 203 97 143 97 q 299 124 267 97 q 331 194 331 150 q 303 258 331 238 q 229 294 276 279 q 146 327 178 311 q 92 375 114 343 q 71 460 71 407 q 99 570 71 517 q 186 659 126 624 q 339 694 246 694 q 508 650 440 694 l 475 536 q 415 579 451 563 q 331 596 378 596 q 235 569 272 596 q 197 493 197 542 q 223 436 197 454 q 321 393 249 418 q 423 335 383 371 q 463 222 463 299 q 441 117 463 171 q 359 25 419 64 q 192 -14 299 -14 m 317 946 l 444 946 l 419 821 l 292 821 l 317 946 z "},"ṣ":{"ha":540,"x_min":-14,"x_max":508,"o":"m 192 -14 q 66 4 117 -14 q -14 46 15 22 l 21 167 q 95 119 47 140 q 203 97 143 97 q 299 124 267 97 q 331 194 331 150 q 303 258 331 238 q 229 294 276 279 q 146 327 178 311 q 92 375 114 343 q 71 460 71 407 q 99 570 71 517 q 186 659 126 624 q 339 694 246 694 q 508 650 440 694 l 475 536 q 415 579 451 563 q 331 596 378 596 q 235 569 272 596 q 197 493 197 542 q 223 436 197 454 q 321 393 249 418 q 423 335 383 371 q 463 222 463 299 q 441 117 463 171 q 359 25 419 64 q 192 -14 299 -14 m 115 -112 l 243 -112 l 218 -237 l 90 -237 l 115 -112 z "},"ṩ":{"ha":540,"x_min":-14,"x_max":508,"o":"m 192 -14 q 66 4 117 -14 q -14 46 15 22 l 21 167 q 95 119 47 140 q 203 97 143 97 q 299 124 267 97 q 331 194 331 150 q 303 258 331 238 q 229 294 276 279 q 146 327 178 311 q 92 375 114 343 q 71 460 71 407 q 99 570 71 517 q 186 659 126 624 q 339 694 246 694 q 508 650 440 694 l 475 536 q 415 579 451 563 q 331 596 378 596 q 235 569 272 596 q 197 493 197 542 q 223 436 197 454 q 321 393 249 418 q 423 335 383 371 q 463 222 463 299 q 441 117 463 171 q 359 25 419 64 q 192 -14 299 -14 m 317 946 l 444 946 l 419 821 l 292 821 l 317 946 m 115 -112 l 243 -112 l 218 -237 l 90 -237 l 115 -112 z "},"ß":{"ha":768,"x_min":31,"x_max":735,"o":"m 392 -19 q 236 0 308 -19 l 253 111 q 401 92 326 92 q 526 126 476 92 q 576 219 576 160 q 552 295 576 265 q 478 363 528 325 q 406 428 429 400 q 382 501 382 457 q 416 592 382 547 q 525 703 450 636 q 590 777 569 744 q 610 854 610 810 q 578 924 608 899 q 490 950 547 950 q 358 902 408 950 q 292 767 307 854 l 157 0 l 31 0 l 133 583 l 33 583 l 61 681 l 150 681 l 165 764 q 284 985 190 910 q 514 1061 378 1061 q 675 1012 615 1061 q 735 882 735 963 q 710 767 735 814 q 626 665 685 721 l 601 642 q 531 567 547 589 q 514 521 514 546 q 531 476 514 496 q 588 424 549 456 q 675 338 644 378 q 706 232 706 297 q 663 99 706 157 q 548 11 619 42 q 392 -19 476 -19 z "},"ə":{"ha":636,"x_min":33,"x_max":607,"o":"m 329 694 q 536 613 465 694 q 607 400 607 531 q 560 197 607 292 q 428 44 513 101 q 236 -14 343 -14 q 86 33 139 -14 q 33 160 33 81 q 63 269 33 217 q 164 355 93 321 q 350 389 235 389 q 419 385 383 389 q 472 378 454 382 q 426 538 472 492 q 296 583 379 583 q 202 573 253 583 q 108 543 151 563 l 114 642 q 329 694 206 694 m 361 304 q 199 265 249 304 q 149 175 149 226 q 176 117 149 136 q 249 97 204 97 q 369 145 315 97 q 458 290 424 193 q 361 304 417 304 z "},"t":{"ha":421,"x_min":49,"x_max":446,"o":"m 206 -14 q 102 22 135 -14 q 69 113 69 57 q 149 583 69 136 l 49 583 l 76 681 l 165 681 l 196 849 l 324 861 l 292 681 l 446 681 l 428 583 l 274 583 q 216 253 232 350 q 200 140 200 156 q 220 95 200 104 q 304 86 240 86 l 338 86 l 310 -14 l 206 -14 z "},"ŧ":{"ha":436,"x_min":19,"x_max":461,"o":"m 289 583 l 261 424 l 415 424 l 399 336 l 246 336 q 215 140 215 157 q 235 95 215 104 q 319 86 256 86 l 353 86 l 325 -14 l 221 -14 q 117 22 150 -14 q 85 113 85 57 q 121 336 85 128 l 19 336 l 36 424 l 136 424 q 164 583 143 465 l 64 583 l 92 681 l 181 681 l 211 849 l 339 861 l 307 681 l 461 681 l 443 583 l 289 583 z "},"ť":{"ha":421,"x_min":49,"x_max":543,"o":"m 206 -14 q 102 22 135 -14 q 69 113 69 57 q 149 583 69 136 l 49 583 l 76 681 l 165 681 l 196 849 l 324 861 l 292 681 l 446 681 l 428 583 l 274 583 q 216 253 232 350 q 200 140 200 156 q 220 95 200 104 q 304 86 240 86 l 338 86 l 310 -14 l 206 -14 m 414 983 l 543 983 l 463 751 l 372 751 l 414 983 z "},"ţ":{"ha":421,"x_min":49,"x_max":446,"o":"m 274 583 q 216 253 232 350 q 200 140 200 156 q 220 95 200 104 q 304 86 240 86 l 338 86 l 310 -14 l 243 -14 l 213 -75 l 224 -75 q 300 -99 272 -75 q 328 -167 328 -124 q 278 -272 328 -231 q 156 -314 229 -314 q 51 -287 96 -314 l 85 -219 q 168 -243 124 -243 q 225 -226 204 -243 q 246 -182 246 -208 q 185 -135 246 -135 q 118 -146 151 -135 l 175 -12 q 95 30 121 -4 q 69 113 69 64 q 149 583 69 136 l 49 583 l 76 681 l 165 681 l 196 849 l 324 861 l 292 681 l 446 681 l 428 583 l 274 583 z "},"ț":{"ha":421,"x_min":49,"x_max":446,"o":"m 206 -14 q 102 22 135 -14 q 69 113 69 57 q 149 583 69 136 l 49 583 l 76 681 l 165 681 l 196 849 l 324 861 l 292 681 l 446 681 l 428 583 l 274 583 q 216 253 232 350 q 200 140 200 156 q 220 95 200 104 q 304 86 240 86 l 338 86 l 310 -14 l 206 -14 m 97 -364 l 158 -246 l 108 -246 l 129 -126 l 263 -126 l 242 -246 l 149 -364 l 97 -364 z "},"ẗ":{"ha":421,"x_min":49,"x_max":496,"o":"m 206 -14 q 102 22 135 -14 q 69 113 69 57 q 149 583 69 136 l 49 583 l 76 681 l 165 681 l 196 849 l 324 861 l 292 681 l 446 681 l 428 583 l 274 583 q 216 253 232 350 q 200 140 200 156 q 220 95 200 104 q 304 86 240 86 l 338 86 l 310 -14 l 206 -14 m 121 1100 l 238 1100 l 215 989 l 99 989 l 121 1100 m 379 1100 l 496 1100 l 474 989 l 357 989 l 379 1100 z "},"ṭ":{"ha":421,"x_min":49,"x_max":446,"o":"m 206 -14 q 102 22 135 -14 q 69 113 69 57 q 149 583 69 136 l 49 583 l 76 681 l 165 681 l 196 849 l 324 861 l 292 681 l 446 681 l 428 583 l 274 583 q 216 253 232 350 q 200 140 200 156 q 220 95 200 104 q 304 86 240 86 l 338 86 l 310 -14 l 206 -14 m 128 -112 l 256 -112 l 231 -237 l 103 -237 l 128 -112 z "},"ṯ":{"ha":421,"x_min":-43,"x_max":446,"o":"m 206 -14 q 102 22 135 -14 q 69 113 69 57 q 149 583 69 136 l 49 583 l 76 681 l 165 681 l 196 849 l 324 861 l 292 681 l 446 681 l 428 583 l 274 583 q 216 253 232 350 q 200 140 200 156 q 220 95 200 104 q 304 86 240 86 l 338 86 l 310 -14 l 206 -14 m -24 -126 l 410 -126 l 390 -225 l -43 -225 l -24 -126 z "},"u":{"ha":686,"x_min":47,"x_max":649,"o":"m 236 -14 q 97 38 146 -14 q 47 186 47 90 q 58 281 47 219 l 126 681 l 253 681 l 188 300 q 179 225 179 251 q 288 97 179 97 q 367 117 329 97 q 433 175 406 136 l 522 681 l 649 681 l 529 0 l 414 0 l 418 75 q 236 -14 340 -14 z "},"ú":{"ha":686,"x_min":47,"x_max":649,"o":"m 236 -14 q 97 38 146 -14 q 47 186 47 90 q 58 281 47 219 l 126 681 l 253 681 l 188 300 q 179 225 179 251 q 288 97 179 97 q 367 117 329 97 q 433 175 406 136 l 522 681 l 649 681 l 529 0 l 414 0 l 418 75 q 236 -14 340 -14 m 311 893 l 565 1038 l 542 883 l 294 799 l 311 893 z "},"ŭ":{"ha":686,"x_min":47,"x_max":649,"o":"m 236 -14 q 97 38 146 -14 q 47 186 47 90 q 58 281 47 219 l 126 681 l 253 681 l 188 300 q 179 225 179 251 q 288 97 179 97 q 367 117 329 97 q 433 175 406 136 l 522 681 l 649 681 l 529 0 l 414 0 l 418 75 q 236 -14 340 -14 m 418 800 q 290 840 333 800 q 246 940 246 879 q 251 976 246 960 l 360 976 q 356 953 356 967 q 375 908 356 924 q 429 892 394 892 q 496 913 468 892 q 531 976 524 935 l 646 976 q 574 849 633 899 q 418 800 515 800 z "},"û":{"ha":686,"x_min":47,"x_max":649,"o":"m 236 -14 q 97 38 146 -14 q 47 186 47 90 q 58 281 47 219 l 126 681 l 253 681 l 188 300 q 179 225 179 251 q 288 97 179 97 q 367 117 329 97 q 433 175 406 136 l 522 681 l 649 681 l 529 0 l 414 0 l 418 75 q 236 -14 340 -14 m 276 886 l 454 1021 l 600 868 l 583 783 l 429 894 l 256 797 l 276 886 z "},"ȕ":{"ha":686,"x_min":47,"x_max":649,"o":"m 236 -14 q 97 38 146 -14 q 47 186 47 90 q 58 281 47 219 l 126 681 l 253 681 l 188 300 q 179 225 179 251 q 288 97 179 97 q 367 117 329 97 q 433 175 406 136 l 522 681 l 649 681 l 529 0 l 414 0 l 418 75 q 236 -14 340 -14 m 267 803 l 165 1035 l 301 1035 l 358 803 l 267 803 m 460 803 l 365 1035 l 501 1035 l 551 803 l 460 803 z "},"ü":{"ha":686,"x_min":47,"x_max":649,"o":"m 236 -14 q 97 38 146 -14 q 47 186 47 90 q 58 281 47 219 l 126 681 l 253 681 l 188 300 q 179 225 179 251 q 288 97 179 97 q 367 117 329 97 q 433 175 406 136 l 522 681 l 649 681 l 529 0 l 414 0 l 418 75 q 236 -14 340 -14 m 249 932 l 365 932 l 343 821 l 226 821 l 249 932 m 507 932 l 624 932 l 601 821 l 485 821 l 507 932 z "},"ụ":{"ha":686,"x_min":47,"x_max":649,"o":"m 236 -14 q 97 38 146 -14 q 47 186 47 90 q 58 281 47 219 l 126 681 l 253 681 l 188 300 q 179 225 179 251 q 288 97 179 97 q 367 117 329 97 q 433 175 406 136 l 522 681 l 649 681 l 529 0 l 414 0 l 418 75 q 236 -14 340 -14 m 154 -112 l 282 -112 l 257 -237 l 129 -237 l 154 -112 z "},"ù":{"ha":686,"x_min":47,"x_max":649,"o":"m 236 -14 q 97 38 146 -14 q 47 186 47 90 q 58 281 47 219 l 126 681 l 253 681 l 188 300 q 179 225 179 251 q 288 97 179 97 q 367 117 329 97 q 433 175 406 136 l 522 681 l 649 681 l 529 0 l 414 0 l 418 75 q 236 -14 340 -14 m 301 896 l 325 1032 l 546 885 l 531 800 l 301 896 z "},"ủ":{"ha":686,"x_min":47,"x_max":649,"o":"m 236 -14 q 97 38 146 -14 q 47 186 47 90 q 58 281 47 219 l 126 681 l 253 681 l 188 300 q 179 225 179 251 q 288 97 179 97 q 367 117 329 97 q 433 175 406 136 l 522 681 l 649 681 l 529 0 l 414 0 l 418 75 q 236 -14 340 -14 m 379 775 q 442 832 424 811 q 460 881 460 853 q 411 918 460 918 q 319 892 375 918 l 308 963 q 425 989 364 989 q 510 965 478 989 q 543 896 542 940 q 511 807 543 846 q 418 729 479 768 l 379 775 z "},"ư":{"ha":686,"x_min":47,"x_max":822,"o":"m 822 783 q 758 662 807 710 q 633 597 710 614 l 529 0 l 414 0 l 418 75 q 236 -14 340 -14 q 97 38 146 -14 q 47 186 47 90 q 58 281 47 219 l 126 681 l 253 681 l 188 300 q 179 225 179 251 q 288 97 179 97 q 367 117 329 97 q 433 175 406 136 l 522 681 l 574 681 q 703 783 683 681 l 822 783 z "},"ứ":{"ha":686,"x_min":47,"x_max":822,"o":"m 822 783 q 758 662 807 710 q 633 597 710 614 l 529 0 l 414 0 l 418 75 q 236 -14 340 -14 q 97 38 146 -14 q 47 186 47 90 q 58 281 47 219 l 126 681 l 253 681 l 188 300 q 179 225 179 251 q 288 97 179 97 q 367 117 329 97 q 433 175 406 136 l 522 681 l 574 681 q 703 783 683 681 l 822 783 m 311 893 l 565 1038 l 542 883 l 294 799 l 311 893 z "},"ự":{"ha":686,"x_min":47,"x_max":822,"o":"m 822 783 q 758 662 807 710 q 633 597 710 614 l 529 0 l 414 0 l 418 75 q 236 -14 340 -14 q 97 38 146 -14 q 47 186 47 90 q 58 281 47 219 l 126 681 l 253 681 l 188 300 q 179 225 179 251 q 288 97 179 97 q 367 117 329 97 q 433 175 406 136 l 522 681 l 574 681 q 703 783 683 681 l 822 783 m 154 -112 l 282 -112 l 257 -237 l 129 -237 l 154 -112 z "},"ừ":{"ha":686,"x_min":47,"x_max":822,"o":"m 822 783 q 758 662 807 710 q 633 597 710 614 l 529 0 l 414 0 l 418 75 q 236 -14 340 -14 q 97 38 146 -14 q 47 186 47 90 q 58 281 47 219 l 126 681 l 253 681 l 188 300 q 179 225 179 251 q 288 97 179 97 q 367 117 329 97 q 433 175 406 136 l 522 681 l 574 681 q 703 783 683 681 l 822 783 m 301 896 l 325 1032 l 546 885 l 531 800 l 301 896 z "},"ử":{"ha":686,"x_min":47,"x_max":822,"o":"m 822 783 q 758 662 807 710 q 633 597 710 614 l 529 0 l 414 0 l 418 75 q 236 -14 340 -14 q 97 38 146 -14 q 47 186 47 90 q 58 281 47 219 l 126 681 l 253 681 l 188 300 q 179 225 179 251 q 288 97 179 97 q 367 117 329 97 q 433 175 406 136 l 522 681 l 574 681 q 703 783 683 681 l 822 783 m 379 775 q 442 832 424 811 q 460 881 460 853 q 411 918 460 918 q 319 892 375 918 l 308 963 q 425 989 364 989 q 510 965 478 989 q 543 896 542 940 q 511 807 543 846 q 418 729 479 768 l 379 775 z "},"ữ":{"ha":686,"x_min":47,"x_max":822,"o":"m 822 783 q 758 662 807 710 q 633 597 710 614 l 529 0 l 414 0 l 418 75 q 236 -14 340 -14 q 97 38 146 -14 q 47 186 47 90 q 58 281 47 219 l 126 681 l 253 681 l 188 300 q 179 225 179 251 q 288 97 179 97 q 367 117 329 97 q 433 175 406 136 l 522 681 l 574 681 q 703 783 683 681 l 822 783 m 521 806 q 479 814 500 806 q 426 838 458 822 q 380 859 399 851 q 346 867 361 867 q 293 817 304 867 l 193 817 q 339 971 229 971 q 381 963 361 971 q 429 939 400 956 q 472 917 454 925 q 510 910 490 910 q 563 964 553 910 l 663 964 q 610 844 644 882 q 521 806 575 806 z "},"ű":{"ha":686,"x_min":47,"x_max":751,"o":"m 236 -14 q 97 38 146 -14 q 47 186 47 90 q 58 281 47 219 l 126 681 l 253 681 l 188 300 q 179 225 179 251 q 288 97 179 97 q 367 117 329 97 q 433 175 406 136 l 522 681 l 649 681 l 529 0 l 414 0 l 418 75 q 236 -14 340 -14 m 414 1035 l 550 1035 l 358 803 l 267 803 l 414 1035 m 615 1035 l 751 1035 l 553 803 l 461 803 l 615 1035 z "},"ȗ":{"ha":686,"x_min":47,"x_max":649,"o":"m 236 -14 q 97 38 146 -14 q 47 186 47 90 q 58 281 47 219 l 126 681 l 253 681 l 188 300 q 179 225 179 251 q 288 97 179 97 q 367 117 329 97 q 433 175 406 136 l 522 681 l 649 681 l 529 0 l 414 0 l 418 75 q 236 -14 340 -14 m 436 976 q 567 936 524 976 q 611 832 611 896 q 608 800 611 822 l 500 800 q 501 818 501 806 q 480 867 501 850 q 424 885 458 885 q 353 863 383 885 q 317 800 324 840 l 203 800 q 276 925 215 874 q 436 976 338 976 z "},"ū":{"ha":686,"x_min":47,"x_max":651,"o":"m 236 -14 q 97 38 146 -14 q 47 186 47 90 q 58 281 47 219 l 126 681 l 253 681 l 188 300 q 179 225 179 251 q 288 97 179 97 q 367 117 329 97 q 433 175 406 136 l 522 681 l 649 681 l 529 0 l 414 0 l 418 75 q 236 -14 340 -14 m 218 919 l 651 919 l 632 821 l 199 821 l 218 919 z "},"ṻ":{"ha":686,"x_min":47,"x_max":667,"o":"m 236 -14 q 97 38 146 -14 q 47 186 47 90 q 58 281 47 219 l 126 681 l 253 681 l 188 300 q 179 225 179 251 q 288 97 179 97 q 367 117 329 97 q 433 175 406 136 l 522 681 l 649 681 l 529 0 l 414 0 l 418 75 q 236 -14 340 -14 m 207 904 l 646 904 l 629 810 l 190 810 l 207 904 m 294 1126 l 411 1126 l 392 1022 l 275 1022 l 294 1126 m 550 1126 l 667 1126 l 647 1022 l 531 1022 l 550 1126 z "},"ų":{"ha":686,"x_min":47,"x_max":665,"o":"m 236 -14 q 97 38 146 -14 q 47 186 47 90 q 58 281 47 219 l 126 681 l 253 681 l 188 300 q 179 225 179 251 q 288 97 179 97 q 367 117 329 97 q 433 175 406 136 l 522 681 l 649 681 l 529 0 l 414 0 l 418 75 q 236 -14 340 -14 m 657 14 q 558 -69 593 -31 q 522 -151 522 -107 q 535 -191 522 -178 q 574 -204 549 -204 q 657 -181 614 -204 l 665 -249 q 554 -275 615 -275 q 470 -250 503 -275 q 436 -179 438 -225 q 480 -71 436 -124 q 583 14 524 -18 l 657 14 z "}}}
